<svg width="37" height="36" viewBox="0 0 37 36" fill="none" xmlns="http://www.w3.org/2000/svg">
<path d="M19 13L15.6666 9.66667H20.3333C22.1666 9.66667 23.6666 11.1667 23.6666 13V17.6667L20.3333 14.3333V13H19ZM37 13V9.66667H30.3333C28.5 9.66667 27 11.1667 27 13V16.3333C27 18.1667 28.5 19.6667 30.3333 19.6667H33.6666V23H29L32.3333 26.3333H33.6666C35.5 26.3333 37 24.8333 37 23V19.6667C37 17.8333 35.5 16.3333 33.6666 16.3333H30.3333V13H37ZM35.5 33.8333L33.3333 36L22.6666 25.3333C22.1666 25.8333 21.3333 26.3333 20.3333 26.3333H13.6666V16.1667L10.3333 12.8333V26.3333H6.99995V19.6667H3.66662V26.3333H0.333282V13C0.333282 11.1667 1.83328 9.66667 3.66662 9.66667H7.16662L0.499949 3L2.66662 0.833336L35.5 33.8333ZM6.99995 13H3.66662V16.3333H6.99995V13ZM20.3333 22.8333L17 19.5V23H20.3333V22.8333Z" fill="black"/>
</svg>
