<svg width="36" height="36" viewBox="0 0 36 36" fill="none" xmlns="http://www.w3.org/2000/svg">
<g clip-path="url(#clip0_30_3978)">
<path d="M18 0C13.2261 0 8.64773 1.89642 5.27208 5.27208C1.89642 8.64773 0 13.2261 0 18C0 22.7739 1.89642 27.3523 5.27208 30.7279C8.64773 34.1036 13.2261 36 18 36C22.7739 36 27.3523 34.1036 30.7279 30.7279C34.1036 27.3523 36 22.7739 36 18C36 13.2261 34.1036 8.64773 30.7279 5.27208C27.3523 1.89642 22.7739 0 18 0V0ZM4.59 9.7335C5.32125 12.7238 10.287 15.4485 12.9532 16.911C14.0332 17.5028 14.7375 17.8875 14.625 18C14.445 18.18 14.2605 18.3555 14.0805 18.5265C13.1445 19.4175 12.3097 20.2118 12.375 21.375C12.4537 22.8015 13.7655 23.229 15.1065 23.6632C16.4048 24.0863 17.7345 24.5182 18 25.875C18.1845 26.8132 17.8313 28.098 17.505 29.295C17.0212 31.0545 16.5915 32.625 18 32.625C21.375 31.5 26.5455 25.4565 27 21.375C27.3105 18.5783 22.5 16.875 19.125 15.75C18.0495 15.39 17.4263 15.9323 16.8975 16.389C16.5105 16.7265 16.173 17.0168 15.75 16.875C14.7487 16.542 10.125 12.375 12.375 11.25C14.13 10.3725 14.517 10.8653 15.1358 11.6595C15.3113 11.8823 15.5025 12.1275 15.75 12.375C17.1203 13.059 17.2395 12.078 17.3768 10.9508C17.4645 10.2263 17.559 9.441 18 9C18.9765 8.0235 20.8463 7.22025 22.563 6.48C24.165 5.7915 25.6343 5.15925 26.1158 4.5C28.7915 6.10904 30.9287 8.47707 32.2557 11.3033C33.5828 14.1295 34.0399 17.2864 33.569 20.373C33.0981 23.4596 31.7204 26.3366 29.6109 28.6385C27.5014 30.9404 24.7554 32.5634 21.7215 33.3013C18.6877 34.0393 15.503 33.8588 12.5719 32.7829C9.64084 31.707 7.09569 29.7842 5.25974 27.2587C3.42379 24.7333 2.3799 21.7191 2.26065 18.5991C2.1414 15.4791 2.95218 12.394 4.59 9.73575V9.7335Z" fill="#8E8E8E"/>
</g>
<defs>
<clipPath id="clip0_30_3978">
<rect width="36" height="36" fill="white"/>
</clipPath>
</defs>
</svg>
