<svg width="372" height="403" viewBox="0 0 372 403" fill="none" xmlns="http://www.w3.org/2000/svg">
<rect width="372" height="403" rx="5" fill="white"/>
<path d="M28.8691 27.1289C28.4238 27.1289 27.9941 27.0703 27.5801 26.9531C27.1699 26.8359 26.7852 26.6582 26.4258 26.4199C26.0664 26.1777 25.752 25.8867 25.4824 25.5469C25.2168 25.2031 25.0059 24.793 24.8496 24.3164C24.6973 23.8398 24.6211 23.3223 24.6211 22.7637C24.6211 22.0801 24.7344 21.4551 24.9609 20.8887C25.1875 20.3184 25.4922 19.8477 25.875 19.4766C26.2617 19.1055 26.7031 18.8184 27.1992 18.6152C27.6992 18.4121 28.2246 18.3105 28.7754 18.3105C29.877 18.3105 30.8066 18.6133 31.5645 19.2188L31.0312 20.1504C30.3906 19.6934 29.6758 19.4648 28.8867 19.4648C28.3477 19.4648 27.8613 19.6055 27.4277 19.8867C26.9941 20.1641 26.6543 20.5527 26.4082 21.0527C26.1621 21.5527 26.0391 22.1172 26.0391 22.7461C26.0391 23.7305 26.3105 24.5156 26.8535 25.1016C27.4004 25.6836 28.0977 25.9746 28.9453 25.9746C29.7891 25.9746 30.582 25.6875 31.3242 25.1133L31.7754 26.1855C30.9551 26.8145 29.9863 27.1289 28.8691 27.1289ZM35.4492 27.1348C34.6953 27.1348 34.1191 26.9199 33.7207 26.4902C33.3262 26.0566 33.1289 25.4805 33.1289 24.7617V20.9883H34.4297V24.75C34.4297 25.1914 34.5391 25.5215 34.7578 25.7402C34.9805 25.959 35.2949 26.0684 35.7012 26.0684C36.1699 26.0684 36.5254 25.9434 36.7676 25.6934C37.0098 25.4434 37.1309 25.0723 37.1309 24.5801V20.9883H38.4434V25.4297C38.4434 25.9297 38.4629 26.4531 38.502 27H37.1543L37.1309 26.0859C37.084 26.1953 37.0195 26.3047 36.9375 26.4141C36.8555 26.5234 36.748 26.6367 36.6152 26.7539C36.4824 26.8672 36.3145 26.959 36.1113 27.0293C35.9082 27.0996 35.6875 27.1348 35.4492 27.1348ZM40.3477 27V22.4883C40.3477 22.3242 40.3398 22.1172 40.3242 21.8672C40.3086 21.6172 40.293 21.4082 40.2773 21.2402L40.2539 20.9883H41.6484V21.8379C42.082 21.1699 42.5938 20.8359 43.1836 20.8359C43.3789 20.8359 43.582 20.8652 43.793 20.9238V22.0781C43.5664 22 43.332 21.9609 43.0898 21.9609C42.6641 21.9609 42.3203 22.1055 42.0586 22.3945C41.7969 22.6797 41.666 23.0879 41.666 23.6191V27H40.3477ZM45.0234 27V22.4883C45.0234 22.3242 45.0156 22.1172 45 21.8672C44.9844 21.6172 44.9688 21.4082 44.9531 21.2402L44.9297 20.9883H46.3242V21.8379C46.7578 21.1699 47.2695 20.8359 47.8594 20.8359C48.0547 20.8359 48.2578 20.8652 48.4688 20.9238V22.0781C48.2422 22 48.0078 21.9609 47.7656 21.9609C47.3398 21.9609 46.9961 22.1055 46.7344 22.3945C46.4727 22.6797 46.3418 23.0879 46.3418 23.6191V27H45.0234ZM50.7246 23.3203H53.8301C53.7793 22.8477 53.627 22.4863 53.373 22.2363C53.123 21.9863 52.8008 21.8613 52.4062 21.8613C51.9648 21.8613 51.5957 21.9902 51.2988 22.248C51.0059 22.5059 50.8145 22.8633 50.7246 23.3203ZM52.5234 27.1348C51.5391 27.1348 50.7598 26.8477 50.1855 26.2734C49.6113 25.6992 49.3242 24.9414 49.3242 24C49.3242 23.418 49.4434 22.8887 49.6816 22.4121C49.9199 21.9355 50.2715 21.5547 50.7363 21.2695C51.2012 20.9805 51.7383 20.8359 52.3477 20.8359C52.7969 20.8359 53.1934 20.916 53.5371 21.0762C53.8848 21.2324 54.1621 21.4531 54.3691 21.7383C54.5801 22.0195 54.7383 22.3457 54.8438 22.7168C54.9492 23.084 55.002 23.4902 55.002 23.9355C55.002 24.0176 54.9922 24.1074 54.9727 24.2051H50.6953C50.7188 24.8223 50.9043 25.2871 51.252 25.5996C51.5996 25.9121 52.0566 26.0684 52.623 26.0684C53.3066 26.0684 53.9355 25.8496 54.5098 25.4121L54.8789 26.373C54.2031 26.8809 53.418 27.1348 52.5234 27.1348ZM56.6484 27V23.0332C56.6484 22.6699 56.6406 22.3184 56.625 21.9785C56.6094 21.6387 56.5938 21.3887 56.5781 21.2285L56.5547 20.9883H57.9316V21.8379C58.1387 21.5176 58.4199 21.2715 58.7754 21.0996C59.1309 20.9238 59.4883 20.8359 59.8477 20.8359C60.5898 20.8359 61.1465 21.0586 61.5176 21.5039C61.8887 21.9492 62.0742 22.6582 62.0742 23.6309V27H60.7617V23.5898C60.7617 22.9961 60.6738 22.5664 60.498 22.3008C60.3262 22.0312 60.0215 21.8965 59.584 21.8965C59.2051 21.8965 58.8398 22.043 58.4883 22.3359C58.1367 22.625 57.9609 22.957 57.9609 23.332V27H56.6484ZM66.6211 27.1348C65.9883 27.1348 65.4336 26.9941 64.957 26.7129C64.4805 26.4277 64.1211 26.0508 63.8789 25.582C63.6367 25.1133 63.5156 24.5898 63.5156 24.0117C63.5156 23.4023 63.6406 22.8574 63.8906 22.377C64.1445 21.8965 64.5078 21.5195 64.9805 21.2461C65.457 20.9727 66.0059 20.8359 66.627 20.8359C67.5215 20.8359 68.2168 21.0938 68.7129 21.6094L68.25 22.4648C67.8242 22.0898 67.3223 21.9023 66.7441 21.9023C66.1699 21.9023 65.7148 22.0879 65.3789 22.459C65.0469 22.8301 64.8809 23.3457 64.8809 24.0059C64.8809 24.6309 65.0488 25.1309 65.3848 25.5059C65.7207 25.8809 66.1777 26.0684 66.7559 26.0684C67.2949 26.0684 67.8125 25.8828 68.3086 25.5117L68.7129 26.4727C68.0957 26.9141 67.3984 27.1348 66.6211 27.1348ZM70.582 29.584L70.0312 28.6934C70.5664 28.4941 70.9746 28.2715 71.2559 28.0254C71.5371 27.7832 71.7266 27.502 71.8242 27.1816L71.9062 26.8887L69.3984 20.9883H70.7578L72.5449 25.4883L74.1387 20.9883H75.4688L73.0312 27.3281C72.8047 27.918 72.4766 28.4004 72.0469 28.7754C71.6172 29.1543 71.1289 29.4238 70.582 29.584Z" fill="#262728"/>
<path d="M217.484 18.0078H218.791C219.021 18.0078 219.23 17.9883 219.418 17.9492C219.609 17.9102 219.789 17.8477 219.957 17.7617C220.125 17.6719 220.256 17.543 220.35 17.375C220.443 17.207 220.49 17.0059 220.49 16.7715C220.49 16.3223 220.332 16.0176 220.016 15.8574C219.699 15.6973 219.215 15.6172 218.562 15.6172H217.484V18.0078ZM217.49 21.8457H218.973C219.59 21.8457 220.061 21.7324 220.385 21.5059C220.713 21.2754 220.877 20.9414 220.877 20.5039C220.877 19.9766 220.727 19.6152 220.426 19.4199C220.129 19.2207 219.613 19.1211 218.879 19.1211H217.49V21.8457ZM216.137 23V14.4688H218.416C218.666 14.4688 218.889 14.4746 219.084 14.4863C219.283 14.4941 219.51 14.5156 219.764 14.5508C220.018 14.582 220.24 14.627 220.432 14.6855C220.623 14.7441 220.816 14.8281 221.012 14.9375C221.207 15.043 221.367 15.168 221.492 15.3125C221.617 15.457 221.719 15.6387 221.797 15.8574C221.879 16.0762 221.92 16.3223 221.92 16.5957C221.92 17.0137 221.816 17.3848 221.609 17.709C221.406 18.0293 221.09 18.2734 220.66 18.4414C221.195 18.5625 221.604 18.8105 221.885 19.1855C222.17 19.5605 222.312 20.0176 222.312 20.5566C222.312 20.8848 222.248 21.1934 222.119 21.4824C221.99 21.7715 221.801 22.0312 221.551 22.2617C221.305 22.4883 220.98 22.668 220.578 22.8008C220.176 22.9336 219.721 23 219.213 23H216.137ZM226.133 23.1348C225.379 23.1348 224.803 22.9199 224.404 22.4902C224.01 22.0566 223.812 21.4805 223.812 20.7617V16.9883H225.113V20.75C225.113 21.1914 225.223 21.5215 225.441 21.7402C225.664 21.959 225.979 22.0684 226.385 22.0684C226.854 22.0684 227.209 21.9434 227.451 21.6934C227.693 21.4434 227.814 21.0723 227.814 20.5801V16.9883H229.127V21.4297C229.127 21.9297 229.146 22.4531 229.186 23H227.838L227.814 22.0859C227.768 22.1953 227.703 22.3047 227.621 22.4141C227.539 22.5234 227.432 22.6367 227.299 22.7539C227.166 22.8672 226.998 22.959 226.795 23.0293C226.592 23.0996 226.371 23.1348 226.133 23.1348ZM231.43 25.584L230.879 24.6934C231.414 24.4941 231.822 24.2715 232.104 24.0254C232.385 23.7832 232.574 23.502 232.672 23.1816L232.754 22.8887L230.246 16.9883H231.605L233.393 21.4883L234.986 16.9883H236.316L233.879 23.3281C233.652 23.918 233.324 24.4004 232.895 24.7754C232.465 25.1543 231.977 25.4238 231.43 25.584Z" fill="#262728"/>
<path d="M305.615 23.1348C305.01 23.1348 304.439 23.0391 303.904 22.8477C303.369 22.6523 302.971 22.4238 302.709 22.1621L303.295 21.1895C303.545 21.3926 303.887 21.5762 304.32 21.7402C304.758 21.9004 305.166 21.9805 305.545 21.9805C306.631 21.9805 307.174 21.5586 307.174 20.7148C307.174 20.5352 307.158 20.3887 307.127 20.2754C307.096 20.1582 307.029 20.043 306.928 19.9297C306.83 19.8125 306.688 19.707 306.5 19.6133C306.312 19.5195 306.062 19.4199 305.75 19.3145C305.668 19.2832 305.535 19.2402 305.352 19.1855C305.172 19.127 305.051 19.0859 304.988 19.0625C304.465 18.8906 304.047 18.707 303.734 18.5117C303.422 18.3125 303.18 18.0566 303.008 17.7441C302.836 17.4316 302.75 17.0527 302.75 16.6074C302.75 16.1113 302.881 15.6875 303.143 15.3359C303.404 14.9844 303.75 14.7266 304.18 14.5625C304.609 14.3945 305.1 14.3105 305.65 14.3105C306.15 14.3105 306.588 14.3555 306.963 14.4453C307.338 14.5312 307.633 14.6387 307.848 14.7676C308.062 14.8926 308.273 15.0566 308.48 15.2598L307.789 16.1621C307.551 15.9316 307.258 15.7578 306.91 15.6406C306.566 15.5234 306.209 15.4648 305.838 15.4648C305.35 15.4648 304.951 15.5566 304.643 15.7402C304.338 15.9199 304.186 16.1914 304.186 16.5547C304.186 16.7969 304.217 16.9883 304.279 17.1289C304.346 17.2695 304.473 17.4004 304.66 17.5215C304.852 17.6387 305.143 17.7637 305.533 17.8965C306.029 18.0566 306.293 18.1426 306.324 18.1543C307.188 18.4473 307.783 18.7812 308.111 19.1562C308.439 19.5273 308.604 20.0527 308.604 20.7324C308.604 21.1426 308.521 21.5059 308.357 21.8223C308.197 22.1387 307.977 22.3906 307.695 22.5781C307.414 22.7617 307.098 22.9004 306.746 22.9941C306.398 23.0879 306.021 23.1348 305.615 23.1348ZM311.299 19.3203H314.404C314.354 18.8477 314.201 18.4863 313.947 18.2363C313.697 17.9863 313.375 17.8613 312.98 17.8613C312.539 17.8613 312.17 17.9902 311.873 18.248C311.58 18.5059 311.389 18.8633 311.299 19.3203ZM313.098 23.1348C312.113 23.1348 311.334 22.8477 310.76 22.2734C310.186 21.6992 309.898 20.9414 309.898 20C309.898 19.418 310.018 18.8887 310.256 18.4121C310.494 17.9355 310.846 17.5547 311.311 17.2695C311.775 16.9805 312.312 16.8359 312.922 16.8359C313.371 16.8359 313.768 16.916 314.111 17.0762C314.459 17.2324 314.736 17.4531 314.943 17.7383C315.154 18.0195 315.312 18.3457 315.418 18.7168C315.523 19.084 315.576 19.4902 315.576 19.9355C315.576 20.0176 315.566 20.1074 315.547 20.2051H311.27C311.293 20.8223 311.479 21.2871 311.826 21.5996C312.174 21.9121 312.631 22.0684 313.197 22.0684C313.881 22.0684 314.51 21.8496 315.084 21.4121L315.453 22.373C314.777 22.8809 313.992 23.1348 313.098 23.1348ZM317.176 23V14.3926H318.482V23H317.176ZM320.27 23V14.3926H321.576V23H320.27Z" fill="#262728"/>
<path d="M25.7969 67V55.625H26.9688V67H25.7969ZM30.1562 67V60.6641C30.1562 60.4401 30.151 60.1901 30.1406 59.9141C30.1302 59.6328 30.1198 59.4062 30.1094 59.2344L30.0859 58.9844H31.1797L31.2266 60.4219C31.4922 59.901 31.888 59.4974 32.4141 59.2109C32.9453 58.9245 33.5286 58.7812 34.1641 58.7812C36.112 58.7812 37.0859 59.9583 37.0859 62.3125V67H35.9766V62.3125C35.9766 61.4271 35.8255 60.7682 35.5234 60.3359C35.2214 59.9036 34.7266 59.6875 34.0391 59.6875C33.3464 59.6875 32.7396 59.888 32.2188 60.2891C31.6979 60.6901 31.3776 61.2083 31.2578 61.8438V67H30.1562ZM42.9688 66.2578C43.8438 66.2578 44.5286 65.9583 45.0234 65.3594C45.5234 64.7552 45.7734 63.9453 45.7734 62.9297C45.7734 61.9557 45.5234 61.1719 45.0234 60.5781C44.5234 59.9844 43.8438 59.6875 42.9844 59.6875C42.1562 59.6875 41.5104 59.9844 41.0469 60.5781C40.5833 61.1719 40.3516 61.9661 40.3516 62.9609C40.3516 63.9661 40.5781 64.7682 41.0312 65.3672C41.4896 65.9609 42.1354 66.2578 42.9688 66.2578ZM42.8672 67.1641C41.7786 67.1641 40.8984 66.7839 40.2266 66.0234C39.5547 65.263 39.2188 64.2474 39.2188 62.9766C39.2188 61.7161 39.5495 60.7031 40.2109 59.9375C40.8776 59.1667 41.776 58.7812 42.9062 58.7812C43.5677 58.7812 44.1562 58.9401 44.6719 59.2578C45.1875 59.5755 45.5495 59.9818 45.7578 60.4766V55.2734H46.8594V64.9141C46.8646 65.2734 46.8828 65.9688 46.9141 67H45.7969L45.7656 65.3828C45.5729 65.9036 45.2188 66.3307 44.7031 66.6641C44.1875 66.9974 43.5755 67.1641 42.8672 67.1641ZM49.7188 56.7188V55.625H50.8125V56.7188H49.7188ZM49.7109 67V58.9844H50.8125V67H49.7109ZM56.9219 66.2578C57.7708 66.2578 58.4245 65.9583 58.8828 65.3594C59.3464 64.7604 59.5781 63.9479 59.5781 62.9219C59.5781 61.9479 59.3411 61.1667 58.8672 60.5781C58.3984 59.9844 57.7474 59.6875 56.9141 59.6875C56.0391 59.6875 55.3568 59.9844 54.8672 60.5781C54.3776 61.1719 54.1328 61.9557 54.1328 62.9297C54.1328 63.9297 54.3776 64.7344 54.8672 65.3438C55.362 65.9531 56.0469 66.2578 56.9219 66.2578ZM56.8047 67.1641C56.0286 67.1641 55.3516 66.9818 54.7734 66.6172C54.1953 66.2474 53.7578 65.7474 53.4609 65.1172C53.1641 64.4818 53.0156 63.7604 53.0156 62.9531C53.0156 61.724 53.362 60.7214 54.0547 59.9453C54.7474 59.1693 55.6693 58.7812 56.8203 58.7812C57.4401 58.7812 57.9922 58.9323 58.4766 59.2344C58.9609 59.5365 59.3203 59.9271 59.5547 60.4062V58.9844H60.6484V67H59.5469V65.4766C59.3073 65.9974 58.9505 66.4089 58.4766 66.7109C58.0026 67.013 57.4453 67.1641 56.8047 67.1641ZM63.6094 67V60.6641C63.6094 60.4401 63.6042 60.1901 63.5938 59.9141C63.5833 59.6328 63.5729 59.4062 63.5625 59.2344L63.5391 58.9844H64.6328L64.6797 60.4219C64.9453 59.901 65.3411 59.4974 65.8672 59.2109C66.3984 58.9245 66.9818 58.7812 67.6172 58.7812C69.5651 58.7812 70.5391 59.9583 70.5391 62.3125V67H69.4297V62.3125C69.4297 61.4271 69.2786 60.7682 68.9766 60.3359C68.6745 59.9036 68.1797 59.6875 67.4922 59.6875C66.7995 59.6875 66.1927 59.888 65.6719 60.2891C65.151 60.6901 64.8307 61.2083 64.7109 61.8438V67H63.6094ZM79.4297 60.8828H81.875C82.7188 60.8828 83.3542 60.7031 83.7812 60.3438C84.2135 59.9844 84.4297 59.4245 84.4297 58.6641C84.4297 58.2839 84.3802 57.9635 84.2812 57.7031C84.1875 57.4375 84.0391 57.224 83.8359 57.0625C83.6328 56.8958 83.3802 56.776 83.0781 56.7031C82.7812 56.6302 82.4219 56.5938 82 56.5938C81.9323 56.5938 81.862 56.5938 81.7891 56.5938H79.4297V60.8828ZM78.2578 67V55.625H81.7734C82.4036 55.625 82.9453 55.6745 83.3984 55.7734C83.8568 55.8724 84.2552 56.0365 84.5938 56.2656C84.9375 56.4948 85.1927 56.8047 85.3594 57.1953C85.5312 57.5859 85.6172 58.0599 85.6172 58.6172C85.6172 59.3724 85.4271 60 85.0469 60.5C84.6667 60.9948 84.099 61.2969 83.3438 61.4062C83.5677 61.4583 83.7604 61.5286 83.9219 61.6172C84.0885 61.7005 84.2292 61.7943 84.3438 61.8984C84.4635 62.0026 84.5755 62.1484 84.6797 62.3359C84.7891 62.5234 84.8802 62.7057 84.9531 62.8828C85.026 63.0547 85.1198 63.2943 85.2344 63.6016L86.4922 67H85.3047L84.1172 63.7344C84.0182 63.4583 83.9323 63.237 83.8594 63.0703C83.7865 62.9036 83.7031 62.7422 83.6094 62.5859C83.5156 62.4297 83.4219 62.3099 83.3281 62.2266C83.2396 62.1432 83.1276 62.0703 82.9922 62.0078C82.8568 61.9401 82.7057 61.8958 82.5391 61.875C82.3776 61.8542 82.1823 61.8438 81.9531 61.8438H79.4219V67H78.2578ZM91.7344 67.1875C90.7188 67.1875 89.9557 66.8984 89.4453 66.3203C88.9349 65.737 88.6797 64.9167 88.6797 63.8594V58.9844H89.7812V63.875C89.7812 64.6719 89.9557 65.2734 90.3047 65.6797C90.6536 66.0807 91.1693 66.2812 91.8516 66.2812C92.263 66.2812 92.6406 66.2109 92.9844 66.0703C93.3281 65.9297 93.6042 65.75 93.8125 65.5312C94.026 65.3073 94.1901 65.0677 94.3047 64.8125C94.4245 64.5521 94.4844 64.2943 94.4844 64.0391V58.9844H95.5938V65.1328C95.5938 65.8203 95.612 66.4427 95.6484 67H94.5625L94.5078 65.6094C94.2266 66.0885 93.8542 66.4714 93.3906 66.7578C92.9271 67.0443 92.375 67.1875 91.7344 67.1875ZM102.484 66.2812C103.312 66.2812 103.953 65.987 104.406 65.3984C104.865 64.8047 105.094 64.0078 105.094 63.0078C105.094 62.0026 104.865 61.2031 104.406 60.6094C103.953 60.0104 103.315 59.7109 102.492 59.7109C101.628 59.7109 100.943 60.026 100.438 60.6562C99.9375 61.2812 99.6875 62.1016 99.6875 63.1172C99.6875 64.0911 99.9349 64.862 100.43 65.4297C100.93 65.9974 101.615 66.2812 102.484 66.2812ZM98.6094 70.5859V61.1953C98.6094 60.7318 98.5859 59.9948 98.5391 58.9844H99.6797L99.7031 60.6641C99.8906 60.1328 100.253 59.6901 100.789 59.3359C101.331 58.9818 101.94 58.8047 102.617 58.8047C103.711 58.8047 104.586 59.1901 105.242 59.9609C105.898 60.7318 106.227 61.7396 106.227 62.9844C106.227 64.2344 105.896 65.2474 105.234 66.0234C104.578 66.7995 103.701 67.1875 102.602 67.1875C101.924 67.1875 101.32 67.0339 100.789 66.7266C100.263 66.4141 99.9036 66.013 99.7109 65.5234V70.5859H98.6094ZM108.945 62.3438H114.219C114.167 61.5104 113.914 60.8568 113.461 60.3828C113.013 59.9089 112.427 59.6719 111.703 59.6719C110.948 59.6719 110.32 59.9115 109.82 60.3906C109.326 60.8698 109.034 61.5208 108.945 62.3438ZM111.883 67.1641C110.628 67.1641 109.628 66.7891 108.883 66.0391C108.138 65.2839 107.766 64.2786 107.766 63.0234C107.766 61.7578 108.122 60.7344 108.836 59.9531C109.549 59.1719 110.497 58.7812 111.68 58.7812C112.779 58.7812 113.638 59.138 114.258 59.8516C114.883 60.5651 115.195 61.513 115.195 62.6953C115.195 62.9245 115.193 63.0651 115.188 63.1172H108.906C108.906 64.0964 109.18 64.8646 109.727 65.4219C110.273 65.9792 111.005 66.2578 111.922 66.2578C112.917 66.2578 113.792 65.9609 114.547 65.3672L114.906 66.1641C114.51 66.4818 114.047 66.7292 113.516 66.9062C112.99 67.0781 112.445 67.1641 111.883 67.1641ZM117.93 62.3438H123.203C123.151 61.5104 122.898 60.8568 122.445 60.3828C121.997 59.9089 121.411 59.6719 120.688 59.6719C119.932 59.6719 119.305 59.9115 118.805 60.3906C118.31 60.8698 118.018 61.5208 117.93 62.3438ZM120.867 67.1641C119.612 67.1641 118.612 66.7891 117.867 66.0391C117.122 65.2839 116.75 64.2786 116.75 63.0234C116.75 61.7578 117.107 60.7344 117.82 59.9531C118.534 59.1719 119.482 58.7812 120.664 58.7812C121.763 58.7812 122.622 59.138 123.242 59.8516C123.867 60.5651 124.18 61.513 124.18 62.6953C124.18 62.9245 124.177 63.0651 124.172 63.1172H117.891C117.891 64.0964 118.164 64.8646 118.711 65.4219C119.258 65.9792 119.99 66.2578 120.906 66.2578C121.901 66.2578 122.776 65.9609 123.531 65.3672L123.891 66.1641C123.495 66.4818 123.031 66.7292 122.5 66.9062C121.974 67.0781 121.43 67.1641 120.867 67.1641ZM128.852 67.1641C128.487 67.1641 128.135 67.1276 127.797 67.0547C127.458 66.987 127.164 66.8984 126.914 66.7891C126.669 66.6745 126.471 66.5729 126.32 66.4844C126.174 66.3958 126.047 66.3099 125.938 66.2266L126.281 65.3906C127.083 65.9583 127.917 66.2422 128.781 66.2422C130.021 66.2422 130.641 65.7917 130.641 64.8906C130.641 64.5104 130.523 64.2266 130.289 64.0391C130.06 63.8464 129.643 63.651 129.039 63.4531L127.883 63.0938C127.227 62.875 126.737 62.612 126.414 62.3047C126.091 61.9922 125.93 61.5391 125.93 60.9453C125.93 60.5755 126.003 60.25 126.148 59.9688C126.299 59.6823 126.508 59.4557 126.773 59.2891C127.044 59.1172 127.352 58.9896 127.695 58.9062C128.039 58.8229 128.419 58.7812 128.836 58.7812C129.846 58.7812 130.69 58.9974 131.367 59.4297L131.047 60.2266C130.38 59.8672 129.672 59.6875 128.922 59.6875C128.292 59.6875 127.818 59.7917 127.5 60C127.182 60.2083 127.023 60.5078 127.023 60.8984C127.023 61.2474 127.112 61.5026 127.289 61.6641C127.471 61.8255 127.823 61.9922 128.344 62.1641C128.365 62.1745 128.466 62.2083 128.648 62.2656C128.831 62.3229 129.018 62.3828 129.211 62.4453C129.409 62.5078 129.516 62.5417 129.531 62.5469C129.901 62.6719 130.203 62.7917 130.438 62.9062C130.677 63.0208 130.898 63.1641 131.102 63.3359C131.305 63.5078 131.453 63.7135 131.547 63.9531C131.641 64.1875 131.688 64.4661 131.688 64.7891C131.688 65.2005 131.609 65.5651 131.453 65.8828C131.302 66.1953 131.091 66.4427 130.82 66.625C130.555 66.8073 130.255 66.9427 129.922 67.0312C129.594 67.1198 129.237 67.1641 128.852 67.1641Z" fill="#8E8E8E"/>
<path d="M28.2266 112V107.445L24.3906 100.625H25.6484L28.8359 106.43L32.0625 100.625H33.3047L29.3984 107.422V112H28.2266ZM35.6172 107.344H40.8906C40.8385 106.51 40.5859 105.857 40.1328 105.383C39.6849 104.909 39.099 104.672 38.375 104.672C37.6198 104.672 36.9922 104.911 36.4922 105.391C35.9974 105.87 35.7057 106.521 35.6172 107.344ZM38.5547 112.164C37.2995 112.164 36.2995 111.789 35.5547 111.039C34.8099 110.284 34.4375 109.279 34.4375 108.023C34.4375 106.758 34.7943 105.734 35.5078 104.953C36.2214 104.172 37.1693 103.781 38.3516 103.781C39.4505 103.781 40.3099 104.138 40.9297 104.852C41.5547 105.565 41.8672 106.513 41.8672 107.695C41.8672 107.924 41.8646 108.065 41.8594 108.117H35.5781C35.5781 109.096 35.8516 109.865 36.3984 110.422C36.9453 110.979 37.6771 111.258 38.5938 111.258C39.5885 111.258 40.4635 110.961 41.2188 110.367L41.5781 111.164C41.1823 111.482 40.7188 111.729 40.1875 111.906C39.6615 112.078 39.1172 112.164 38.5547 112.164ZM44.1406 112V105.664C44.1406 105.44 44.1354 105.19 44.125 104.914C44.1146 104.633 44.1042 104.406 44.0938 104.234L44.0703 103.984H45.1641L45.2109 105.422C45.4766 104.901 45.8724 104.497 46.3984 104.211C46.9297 103.924 47.513 103.781 48.1484 103.781C50.0964 103.781 51.0703 104.958 51.0703 107.312V112H49.9609V107.312C49.9609 106.427 49.8099 105.768 49.5078 105.336C49.2057 104.904 48.7109 104.688 48.0234 104.688C47.3307 104.688 46.724 104.888 46.2031 105.289C45.6823 105.69 45.362 106.208 45.2422 106.844V112H44.1406Z" fill="#8E8E8E"/>
<path d="M27.7266 157L24.7031 145.625H25.9531L28.1641 154.398L28.4453 155.75C28.8047 154.406 29.349 152.513 30.0781 150.07C30.8125 147.628 31.2552 146.146 31.4062 145.625H32.5703L35.1875 154.422L35.5312 155.68C35.8438 154.372 36.2943 152.5 36.8828 150.062C37.4714 147.62 37.8281 146.141 37.9531 145.625H39.1484L36.2266 157H34.8516L31.9844 147.156L29.0859 157H27.7266ZM44.7266 157.164C43.4609 157.164 42.4609 156.784 41.7266 156.023C40.9922 155.263 40.625 154.258 40.625 153.008C40.625 151.732 40.9922 150.708 41.7266 149.938C42.4661 149.167 43.4688 148.781 44.7344 148.781C46 148.781 46.9948 149.167 47.7188 149.938C48.4479 150.708 48.8125 151.732 48.8125 153.008C48.8125 154.258 48.4453 155.263 47.7109 156.023C46.9818 156.784 45.987 157.164 44.7266 157.164ZM44.7266 156.258C45.6589 156.258 46.3802 155.964 46.8906 155.375C47.4062 154.786 47.6641 153.997 47.6641 153.008C47.6641 151.992 47.4062 151.185 46.8906 150.586C46.3802 149.987 45.6589 149.688 44.7266 149.688C43.7891 149.688 43.0625 149.987 42.5469 150.586C42.0312 151.185 41.7734 151.992 41.7734 153.008C41.7734 153.997 42.0312 154.786 42.5469 155.375C43.0625 155.964 43.7891 156.258 44.7266 156.258ZM51.0625 157V150.664C51.0625 150.44 51.0573 150.19 51.0469 149.914C51.0365 149.633 51.026 149.406 51.0156 149.234L50.9922 148.984H52.0859L52.1328 150.422C52.3984 149.901 52.7943 149.497 53.3203 149.211C53.8516 148.924 54.4349 148.781 55.0703 148.781C57.0182 148.781 57.9922 149.958 57.9922 152.312V157H56.8828V152.312C56.8828 151.427 56.7318 150.768 56.4297 150.336C56.1276 149.904 55.6328 149.688 54.9453 149.688C54.2526 149.688 53.6458 149.888 53.125 150.289C52.6042 150.69 52.2839 151.208 52.1641 151.844V157H51.0625Z" fill="#8E8E8E"/>
<path d="M26.8359 195.883H29.2812C30.125 195.883 30.7604 195.703 31.1875 195.344C31.6198 194.984 31.8359 194.424 31.8359 193.664C31.8359 193.284 31.7865 192.964 31.6875 192.703C31.5938 192.438 31.4453 192.224 31.2422 192.062C31.0391 191.896 30.7865 191.776 30.4844 191.703C30.1875 191.63 29.8281 191.594 29.4062 191.594C29.3385 191.594 29.2682 191.594 29.1953 191.594H26.8359V195.883ZM25.6641 202V190.625H29.1797C29.8099 190.625 30.3516 190.674 30.8047 190.773C31.263 190.872 31.6615 191.036 32 191.266C32.3438 191.495 32.599 191.805 32.7656 192.195C32.9375 192.586 33.0234 193.06 33.0234 193.617C33.0234 194.372 32.8333 195 32.4531 195.5C32.0729 195.995 31.5052 196.297 30.75 196.406C30.974 196.458 31.1667 196.529 31.3281 196.617C31.4948 196.701 31.6354 196.794 31.75 196.898C31.8698 197.003 31.9818 197.148 32.0859 197.336C32.1953 197.523 32.2865 197.706 32.3594 197.883C32.4323 198.055 32.526 198.294 32.6406 198.602L33.8984 202H32.7109L31.5234 198.734C31.4245 198.458 31.3385 198.237 31.2656 198.07C31.1927 197.904 31.1094 197.742 31.0156 197.586C30.9219 197.43 30.8281 197.31 30.7344 197.227C30.6458 197.143 30.5339 197.07 30.3984 197.008C30.263 196.94 30.112 196.896 29.9453 196.875C29.7839 196.854 29.5885 196.844 29.3594 196.844H26.8281V202H25.6641ZM36.1094 191.719V190.625H37.2031V191.719H36.1094ZM36.1016 202V193.984H37.2031V202H36.1016ZM40.0703 205.32L39.6484 204.547C40.8932 204.177 41.7031 203.487 42.0781 202.477L42.2422 202.055L39.0469 193.984H40.2109L42.7812 200.82L45.3203 193.984H46.4219L43.1953 202.414C42.9245 203.143 42.5286 203.768 42.0078 204.289C41.4922 204.81 40.8464 205.154 40.0703 205.32ZM51.3125 201.258C52.1615 201.258 52.8151 200.958 53.2734 200.359C53.737 199.76 53.9688 198.948 53.9688 197.922C53.9688 196.948 53.7318 196.167 53.2578 195.578C52.7891 194.984 52.138 194.688 51.3047 194.688C50.4297 194.688 49.7474 194.984 49.2578 195.578C48.7682 196.172 48.5234 196.956 48.5234 197.93C48.5234 198.93 48.7682 199.734 49.2578 200.344C49.7526 200.953 50.4375 201.258 51.3125 201.258ZM51.1953 202.164C50.4193 202.164 49.7422 201.982 49.1641 201.617C48.5859 201.247 48.1484 200.747 47.8516 200.117C47.5547 199.482 47.4062 198.76 47.4062 197.953C47.4062 196.724 47.7526 195.721 48.4453 194.945C49.138 194.169 50.0599 193.781 51.2109 193.781C51.8307 193.781 52.3828 193.932 52.8672 194.234C53.3516 194.536 53.7109 194.927 53.9453 195.406V193.984H55.0391V202H53.9375V200.477C53.6979 200.997 53.3411 201.409 52.8672 201.711C52.3932 202.013 51.8359 202.164 51.1953 202.164ZM58.0078 202V190.273H59.1094V202H58.0078Z" fill="#8E8E8E"/>
<path d="M30.3828 247.172C29.5911 247.172 28.8568 247.042 28.1797 246.781C27.5078 246.521 26.9245 246.151 26.4297 245.672C25.9349 245.193 25.5469 244.594 25.2656 243.875C24.9844 243.151 24.8438 242.346 24.8438 241.461C24.8438 240.258 25.0781 239.198 25.5469 238.281C26.0208 237.365 26.6771 236.661 27.5156 236.172C28.3594 235.677 29.3229 235.43 30.4062 235.43C31.8021 235.43 32.9453 235.805 33.8359 236.555L33.3672 237.328C32.5443 236.703 31.5781 236.391 30.4688 236.391C29.5885 236.391 28.8125 236.607 28.1406 237.039C27.4688 237.466 26.9531 238.062 26.5938 238.828C26.2396 239.594 26.0625 240.471 26.0625 241.461C26.0625 242.909 26.4609 244.062 27.2578 244.922C28.0547 245.776 29.1094 246.203 30.4219 246.203C31.6094 246.203 32.7031 245.854 33.7031 245.156L34.0859 246.039C32.9922 246.794 31.7578 247.172 30.3828 247.172ZM39.5625 246.258C40.4115 246.258 41.0651 245.958 41.5234 245.359C41.987 244.76 42.2188 243.948 42.2188 242.922C42.2188 241.948 41.9818 241.167 41.5078 240.578C41.0391 239.984 40.388 239.688 39.5547 239.688C38.6797 239.688 37.9974 239.984 37.5078 240.578C37.0182 241.172 36.7734 241.956 36.7734 242.93C36.7734 243.93 37.0182 244.734 37.5078 245.344C38.0026 245.953 38.6875 246.258 39.5625 246.258ZM39.4453 247.164C38.6693 247.164 37.9922 246.982 37.4141 246.617C36.8359 246.247 36.3984 245.747 36.1016 245.117C35.8047 244.482 35.6562 243.76 35.6562 242.953C35.6562 241.724 36.0026 240.721 36.6953 239.945C37.388 239.169 38.3099 238.781 39.4609 238.781C40.0807 238.781 40.6328 238.932 41.1172 239.234C41.6016 239.536 41.9609 239.927 42.1953 240.406V238.984H43.2891V247H42.1875V245.477C41.9479 245.997 41.5911 246.409 41.1172 246.711C40.6432 247.013 40.0859 247.164 39.4453 247.164ZM46.25 247V240.664C46.25 240.44 46.2448 240.19 46.2344 239.914C46.224 239.633 46.2135 239.406 46.2031 239.234L46.1797 238.984H47.2734L47.3203 240.422C47.5859 239.901 47.9818 239.497 48.5078 239.211C49.0391 238.924 49.6224 238.781 50.2578 238.781C52.2057 238.781 53.1797 239.958 53.1797 242.312V247H52.0703V242.312C52.0703 241.427 51.9193 240.768 51.6172 240.336C51.3151 239.904 50.8203 239.688 50.1328 239.688C49.4401 239.688 48.8333 239.888 48.3125 240.289C47.7917 240.69 47.4714 241.208 47.3516 241.844V247H46.25ZM59.2188 246.258C60.0677 246.258 60.7214 245.958 61.1797 245.359C61.6432 244.76 61.875 243.948 61.875 242.922C61.875 241.948 61.638 241.167 61.1641 240.578C60.6953 239.984 60.0443 239.688 59.2109 239.688C58.3359 239.688 57.6536 239.984 57.1641 240.578C56.6745 241.172 56.4297 241.956 56.4297 242.93C56.4297 243.93 56.6745 244.734 57.1641 245.344C57.6589 245.953 58.3438 246.258 59.2188 246.258ZM59.1016 247.164C58.3255 247.164 57.6484 246.982 57.0703 246.617C56.4922 246.247 56.0547 245.747 55.7578 245.117C55.4609 244.482 55.3125 243.76 55.3125 242.953C55.3125 241.724 55.6589 240.721 56.3516 239.945C57.0443 239.169 57.9661 238.781 59.1172 238.781C59.737 238.781 60.2891 238.932 60.7734 239.234C61.2578 239.536 61.6172 239.927 61.8516 240.406V238.984H62.9453V247H61.8438V245.477C61.6042 245.997 61.2474 246.409 60.7734 246.711C60.2995 247.013 59.7422 247.164 59.1016 247.164ZM68.9375 246.258C69.8125 246.258 70.4974 245.958 70.9922 245.359C71.4922 244.755 71.7422 243.945 71.7422 242.93C71.7422 241.956 71.4922 241.172 70.9922 240.578C70.4922 239.984 69.8125 239.688 68.9531 239.688C68.125 239.688 67.4792 239.984 67.0156 240.578C66.5521 241.172 66.3203 241.966 66.3203 242.961C66.3203 243.966 66.5469 244.768 67 245.367C67.4583 245.961 68.1042 246.258 68.9375 246.258ZM68.8359 247.164C67.7474 247.164 66.8672 246.784 66.1953 246.023C65.5234 245.263 65.1875 244.247 65.1875 242.977C65.1875 241.716 65.5182 240.703 66.1797 239.938C66.8464 239.167 67.7448 238.781 68.875 238.781C69.5365 238.781 70.125 238.94 70.6406 239.258C71.1562 239.576 71.5182 239.982 71.7266 240.477V235.273H72.8281V244.914C72.8333 245.273 72.8516 245.969 72.8828 247H71.7656L71.7344 245.383C71.5417 245.904 71.1875 246.331 70.6719 246.664C70.1562 246.997 69.5443 247.164 68.8359 247.164ZM75.6875 236.719V235.625H76.7812V236.719H75.6875ZM75.6797 247V238.984H76.7812V247H75.6797ZM82.8906 246.258C83.7396 246.258 84.3932 245.958 84.8516 245.359C85.3151 244.76 85.5469 243.948 85.5469 242.922C85.5469 241.948 85.3099 241.167 84.8359 240.578C84.3672 239.984 83.7161 239.688 82.8828 239.688C82.0078 239.688 81.3255 239.984 80.8359 240.578C80.3464 241.172 80.1016 241.956 80.1016 242.93C80.1016 243.93 80.3464 244.734 80.8359 245.344C81.3307 245.953 82.0156 246.258 82.8906 246.258ZM82.7734 247.164C81.9974 247.164 81.3203 246.982 80.7422 246.617C80.1641 246.247 79.7266 245.747 79.4297 245.117C79.1328 244.482 78.9844 243.76 78.9844 242.953C78.9844 241.724 79.3307 240.721 80.0234 239.945C80.7161 239.169 81.638 238.781 82.7891 238.781C83.4089 238.781 83.9609 238.932 84.4453 239.234C84.9297 239.536 85.2891 239.927 85.5234 240.406V238.984H86.6172V247H85.5156V245.477C85.276 245.997 84.9193 246.409 84.4453 246.711C83.9714 247.013 83.4141 247.164 82.7734 247.164ZM89.5781 247V240.664C89.5781 240.44 89.5729 240.19 89.5625 239.914C89.5521 239.633 89.5417 239.406 89.5312 239.234L89.5078 238.984H90.6016L90.6484 240.422C90.9141 239.901 91.3099 239.497 91.8359 239.211C92.3672 238.924 92.9505 238.781 93.5859 238.781C95.5339 238.781 96.5078 239.958 96.5078 242.312V247H95.3984V242.312C95.3984 241.427 95.2474 240.768 94.9453 240.336C94.6432 239.904 94.1484 239.688 93.4609 239.688C92.7682 239.688 92.1615 239.888 91.6406 240.289C91.1198 240.69 90.7995 241.208 90.6797 241.844V247H89.5781ZM104.227 247V235.625H107.086C109.19 235.625 110.794 236.107 111.898 237.07C113.003 238.029 113.555 239.466 113.555 241.383C113.555 243.201 113.031 244.591 111.984 245.555C110.938 246.518 109.417 247 107.422 247H104.227ZM105.391 246.031H107.469C109.068 246.031 110.279 245.633 111.102 244.836C111.924 244.039 112.336 242.888 112.336 241.383C112.336 238.19 110.609 236.594 107.156 236.594H105.391V246.031ZM119.398 247.164C118.133 247.164 117.133 246.784 116.398 246.023C115.664 245.263 115.297 244.258 115.297 243.008C115.297 241.732 115.664 240.708 116.398 239.938C117.138 239.167 118.141 238.781 119.406 238.781C120.672 238.781 121.667 239.167 122.391 239.938C123.12 240.708 123.484 241.732 123.484 243.008C123.484 244.258 123.117 245.263 122.383 246.023C121.654 246.784 120.659 247.164 119.398 247.164ZM119.398 246.258C120.331 246.258 121.052 245.964 121.562 245.375C122.078 244.786 122.336 243.997 122.336 243.008C122.336 241.992 122.078 241.185 121.562 240.586C121.052 239.987 120.331 239.688 119.398 239.688C118.461 239.688 117.734 239.987 117.219 240.586C116.703 241.185 116.445 241.992 116.445 243.008C116.445 243.997 116.703 244.786 117.219 245.375C117.734 245.964 118.461 246.258 119.398 246.258ZM125.742 247V235.273H126.844V247H125.742ZM129.789 247V235.273H130.891V247H129.789ZM137.016 246.258C137.865 246.258 138.518 245.958 138.977 245.359C139.44 244.76 139.672 243.948 139.672 242.922C139.672 241.948 139.435 241.167 138.961 240.578C138.492 239.984 137.841 239.688 137.008 239.688C136.133 239.688 135.451 239.984 134.961 240.578C134.471 241.172 134.227 241.956 134.227 242.93C134.227 243.93 134.471 244.734 134.961 245.344C135.456 245.953 136.141 246.258 137.016 246.258ZM136.898 247.164C136.122 247.164 135.445 246.982 134.867 246.617C134.289 246.247 133.852 245.747 133.555 245.117C133.258 244.482 133.109 243.76 133.109 242.953C133.109 241.724 133.456 240.721 134.148 239.945C134.841 239.169 135.763 238.781 136.914 238.781C137.534 238.781 138.086 238.932 138.57 239.234C139.055 239.536 139.414 239.927 139.648 240.406V238.984H140.742V247H139.641V245.477C139.401 245.997 139.044 246.409 138.57 246.711C138.096 247.013 137.539 247.164 136.898 247.164ZM143.719 247V240.945C143.719 240.706 143.711 240.424 143.695 240.102C143.68 239.773 143.667 239.505 143.656 239.297L143.633 238.984H144.781L144.828 240.352C145.031 239.831 145.328 239.443 145.719 239.188C146.115 238.932 146.568 238.805 147.078 238.805C147.359 238.805 147.628 238.831 147.883 238.883L147.859 239.875C147.573 239.812 147.302 239.781 147.047 239.781C146.37 239.781 145.831 240.013 145.43 240.477C145.029 240.94 144.828 241.643 144.828 242.586V247H143.719Z" fill="#8E8E8E"/>
<path d="M27.1172 288.023H31.5391C30.8047 285.919 30.0651 283.831 29.3203 281.758C29.0339 282.576 28.6198 283.755 28.0781 285.297C27.5365 286.839 27.2161 287.747 27.1172 288.023ZM24.3906 292L28.6641 280.625H29.9844L34.2734 292H33.0156L31.875 288.922H26.8047L25.6719 292H24.3906ZM39.1094 292.188C38.0938 292.188 37.3307 291.898 36.8203 291.32C36.3099 290.737 36.0547 289.917 36.0547 288.859V283.984H37.1562V288.875C37.1562 289.672 37.3307 290.273 37.6797 290.68C38.0286 291.081 38.5443 291.281 39.2266 291.281C39.638 291.281 40.0156 291.211 40.3594 291.07C40.7031 290.93 40.9792 290.75 41.1875 290.531C41.401 290.307 41.5651 290.068 41.6797 289.812C41.7995 289.552 41.8594 289.294 41.8594 289.039V283.984H42.9688V290.133C42.9688 290.82 42.987 291.443 43.0234 292H41.9375L41.8828 290.609C41.6016 291.089 41.2292 291.471 40.7656 291.758C40.3021 292.044 39.75 292.188 39.1094 292.188ZM48.3828 292.164C48.0182 292.164 47.6667 292.128 47.3281 292.055C46.9896 291.987 46.6953 291.898 46.4453 291.789C46.2005 291.674 46.0026 291.573 45.8516 291.484C45.7057 291.396 45.5781 291.31 45.4688 291.227L45.8125 290.391C46.6146 290.958 47.4479 291.242 48.3125 291.242C49.5521 291.242 50.1719 290.792 50.1719 289.891C50.1719 289.51 50.0547 289.227 49.8203 289.039C49.5911 288.846 49.1745 288.651 48.5703 288.453L47.4141 288.094C46.7578 287.875 46.2682 287.612 45.9453 287.305C45.6224 286.992 45.4609 286.539 45.4609 285.945C45.4609 285.576 45.5339 285.25 45.6797 284.969C45.8307 284.682 46.0391 284.456 46.3047 284.289C46.5755 284.117 46.8828 283.99 47.2266 283.906C47.5703 283.823 47.9505 283.781 48.3672 283.781C49.3776 283.781 50.2214 283.997 50.8984 284.43L50.5781 285.227C49.9115 284.867 49.2031 284.688 48.4531 284.688C47.8229 284.688 47.349 284.792 47.0312 285C46.7135 285.208 46.5547 285.508 46.5547 285.898C46.5547 286.247 46.6432 286.503 46.8203 286.664C47.0026 286.826 47.3542 286.992 47.875 287.164C47.8958 287.174 47.9974 287.208 48.1797 287.266C48.362 287.323 48.5495 287.383 48.7422 287.445C48.9401 287.508 49.0469 287.542 49.0625 287.547C49.4323 287.672 49.7344 287.792 49.9688 287.906C50.2083 288.021 50.4297 288.164 50.6328 288.336C50.8359 288.508 50.9844 288.714 51.0781 288.953C51.1719 289.188 51.2188 289.466 51.2188 289.789C51.2188 290.201 51.1406 290.565 50.9844 290.883C50.8333 291.195 50.6224 291.443 50.3516 291.625C50.0859 291.807 49.7865 291.943 49.4531 292.031C49.125 292.12 48.7682 292.164 48.3828 292.164ZM57.0469 292.008C57.0208 292.008 56.9323 292.005 56.7812 292C56.6354 292 56.5521 292 56.5312 292C56.1458 291.99 55.8099 291.958 55.5234 291.906C55.2422 291.854 55.0052 291.773 54.8125 291.664C54.625 291.555 54.4714 291.435 54.3516 291.305C54.237 291.169 54.1484 290.995 54.0859 290.781C54.0234 290.568 53.9818 290.354 53.9609 290.141C53.9401 289.927 53.9297 289.661 53.9297 289.344V284.719H52.375V283.984H53.9453V281.805L55.0312 281.484V283.984H57.0234V284.719H55.0312V289.391C55.0312 289.656 55.0365 289.87 55.0469 290.031C55.0625 290.193 55.0964 290.346 55.1484 290.492C55.2057 290.633 55.2734 290.74 55.3516 290.812C55.4349 290.88 55.5573 290.94 55.7188 290.992C55.8802 291.044 56.0625 291.078 56.2656 291.094C56.4688 291.109 56.7292 291.117 57.0469 291.117V292.008ZM59.3125 292V285.945C59.3125 285.706 59.3047 285.424 59.2891 285.102C59.2734 284.773 59.2604 284.505 59.25 284.297L59.2266 283.984H60.375L60.4219 285.352C60.625 284.831 60.9219 284.443 61.3125 284.188C61.7083 283.932 62.1615 283.805 62.6719 283.805C62.9531 283.805 63.2214 283.831 63.4766 283.883L63.4531 284.875C63.1667 284.812 62.8958 284.781 62.6406 284.781C61.9635 284.781 61.4245 285.013 61.0234 285.477C60.6224 285.94 60.4219 286.643 60.4219 287.586V292H59.3125ZM68.625 291.258C69.474 291.258 70.1276 290.958 70.5859 290.359C71.0495 289.76 71.2812 288.948 71.2812 287.922C71.2812 286.948 71.0443 286.167 70.5703 285.578C70.1016 284.984 69.4505 284.688 68.6172 284.688C67.7422 284.688 67.0599 284.984 66.5703 285.578C66.0807 286.172 65.8359 286.956 65.8359 287.93C65.8359 288.93 66.0807 289.734 66.5703 290.344C67.0651 290.953 67.75 291.258 68.625 291.258ZM68.5078 292.164C67.7318 292.164 67.0547 291.982 66.4766 291.617C65.8984 291.247 65.4609 290.747 65.1641 290.117C64.8672 289.482 64.7188 288.76 64.7188 287.953C64.7188 286.724 65.0651 285.721 65.7578 284.945C66.4505 284.169 67.3724 283.781 68.5234 283.781C69.1432 283.781 69.6953 283.932 70.1797 284.234C70.6641 284.536 71.0234 284.927 71.2578 285.406V283.984H72.3516V292H71.25V290.477C71.0104 290.997 70.6536 291.409 70.1797 291.711C69.7057 292.013 69.1484 292.164 68.5078 292.164ZM75.3203 292V280.273H76.4219V292H75.3203ZM79.2969 281.719V280.625H80.3906V281.719H79.2969ZM79.2891 292V283.984H80.3906V292H79.2891ZM86.5 291.258C87.349 291.258 88.0026 290.958 88.4609 290.359C88.9245 289.76 89.1562 288.948 89.1562 287.922C89.1562 286.948 88.9193 286.167 88.4453 285.578C87.9766 284.984 87.3255 284.688 86.4922 284.688C85.6172 284.688 84.9349 284.984 84.4453 285.578C83.9557 286.172 83.7109 286.956 83.7109 287.93C83.7109 288.93 83.9557 289.734 84.4453 290.344C84.9401 290.953 85.625 291.258 86.5 291.258ZM86.3828 292.164C85.6068 292.164 84.9297 291.982 84.3516 291.617C83.7734 291.247 83.3359 290.747 83.0391 290.117C82.7422 289.482 82.5938 288.76 82.5938 287.953C82.5938 286.724 82.9401 285.721 83.6328 284.945C84.3255 284.169 85.2474 283.781 86.3984 283.781C87.0182 283.781 87.5703 283.932 88.0547 284.234C88.5391 284.536 88.8984 284.927 89.1328 285.406V283.984H90.2266V292H89.125V290.477C88.8854 290.997 88.5286 291.409 88.0547 291.711C87.5807 292.013 87.0234 292.164 86.3828 292.164ZM93.1875 292V285.664C93.1875 285.44 93.1823 285.19 93.1719 284.914C93.1615 284.633 93.151 284.406 93.1406 284.234L93.1172 283.984H94.2109L94.2578 285.422C94.5234 284.901 94.9193 284.497 95.4453 284.211C95.9766 283.924 96.5599 283.781 97.1953 283.781C99.1432 283.781 100.117 284.958 100.117 287.312V292H99.0078V287.312C99.0078 286.427 98.8568 285.768 98.5547 285.336C98.2526 284.904 97.7578 284.688 97.0703 284.688C96.3776 284.688 95.7708 284.888 95.25 285.289C94.7292 285.69 94.4089 286.208 94.2891 286.844V292H93.1875ZM107.836 292V280.625H110.695C112.799 280.625 114.404 281.107 115.508 282.07C116.612 283.029 117.164 284.466 117.164 286.383C117.164 288.201 116.641 289.591 115.594 290.555C114.547 291.518 113.026 292 111.031 292H107.836ZM109 291.031H111.078C112.677 291.031 113.888 290.633 114.711 289.836C115.534 289.039 115.945 287.888 115.945 286.383C115.945 283.19 114.219 281.594 110.766 281.594H109V291.031ZM123.008 292.164C121.742 292.164 120.742 291.784 120.008 291.023C119.273 290.263 118.906 289.258 118.906 288.008C118.906 286.732 119.273 285.708 120.008 284.938C120.747 284.167 121.75 283.781 123.016 283.781C124.281 283.781 125.276 284.167 126 284.938C126.729 285.708 127.094 286.732 127.094 288.008C127.094 289.258 126.727 290.263 125.992 291.023C125.263 291.784 124.268 292.164 123.008 292.164ZM123.008 291.258C123.94 291.258 124.661 290.964 125.172 290.375C125.688 289.786 125.945 288.997 125.945 288.008C125.945 286.992 125.688 286.185 125.172 285.586C124.661 284.987 123.94 284.688 123.008 284.688C122.07 284.688 121.344 284.987 120.828 285.586C120.312 286.185 120.055 286.992 120.055 288.008C120.055 288.997 120.312 289.786 120.828 290.375C121.344 290.964 122.07 291.258 123.008 291.258ZM129.352 292V280.273H130.453V292H129.352ZM133.398 292V280.273H134.5V292H133.398ZM140.625 291.258C141.474 291.258 142.128 290.958 142.586 290.359C143.049 289.76 143.281 288.948 143.281 287.922C143.281 286.948 143.044 286.167 142.57 285.578C142.102 284.984 141.451 284.688 140.617 284.688C139.742 284.688 139.06 284.984 138.57 285.578C138.081 286.172 137.836 286.956 137.836 287.93C137.836 288.93 138.081 289.734 138.57 290.344C139.065 290.953 139.75 291.258 140.625 291.258ZM140.508 292.164C139.732 292.164 139.055 291.982 138.477 291.617C137.898 291.247 137.461 290.747 137.164 290.117C136.867 289.482 136.719 288.76 136.719 287.953C136.719 286.724 137.065 285.721 137.758 284.945C138.451 284.169 139.372 283.781 140.523 283.781C141.143 283.781 141.695 283.932 142.18 284.234C142.664 284.536 143.023 284.927 143.258 285.406V283.984H144.352V292H143.25V290.477C143.01 290.997 142.654 291.409 142.18 291.711C141.706 292.013 141.148 292.164 140.508 292.164ZM147.328 292V285.945C147.328 285.706 147.32 285.424 147.305 285.102C147.289 284.773 147.276 284.505 147.266 284.297L147.242 283.984H148.391L148.438 285.352C148.641 284.831 148.938 284.443 149.328 284.188C149.724 283.932 150.177 283.805 150.688 283.805C150.969 283.805 151.237 283.831 151.492 283.883L151.469 284.875C151.182 284.812 150.911 284.781 150.656 284.781C149.979 284.781 149.44 285.013 149.039 285.477C148.638 285.94 148.438 286.643 148.438 287.586V292H147.328Z" fill="#8E8E8E"/>
<path d="M27.1172 333.023H31.5391C30.8047 330.919 30.0651 328.831 29.3203 326.758C29.0339 327.576 28.6198 328.755 28.0781 330.297C27.5365 331.839 27.2161 332.747 27.1172 333.023ZM24.3906 337L28.6641 325.625H29.9844L34.2734 337H33.0156L31.875 333.922H26.8047L25.6719 337H24.3906ZM36.1406 337V330.602C36.1406 330.148 36.1198 329.609 36.0781 328.984H37.1719L37.2188 330.438C37.4635 329.906 37.8307 329.497 38.3203 329.211C38.8099 328.924 39.3698 328.781 40 328.781C40.6354 328.781 41.1667 328.943 41.5938 329.266C42.026 329.589 42.3307 330.06 42.5078 330.68C42.7891 330.07 43.1927 329.602 43.7188 329.273C44.2448 328.945 44.8359 328.781 45.4922 328.781C46.3932 328.781 47.0755 329.07 47.5391 329.648C48.0078 330.221 48.2422 331.044 48.2422 332.117V337H47.1406V332.172C47.1406 331.375 46.9974 330.763 46.7109 330.336C46.4297 329.904 46.0026 329.688 45.4297 329.688C44.7005 329.688 44.0964 329.919 43.6172 330.383C43.138 330.846 42.8516 331.471 42.7578 332.258V337H41.6484V332.109C41.6484 331.344 41.5026 330.75 41.2109 330.328C40.9245 329.901 40.4844 329.688 39.8906 329.688C39.1927 329.688 38.6094 329.891 38.1406 330.297C37.6719 330.698 37.375 331.234 37.25 331.906V337H36.1406ZM51.5547 332.344H56.8281C56.776 331.51 56.5234 330.857 56.0703 330.383C55.6224 329.909 55.0365 329.672 54.3125 329.672C53.5573 329.672 52.9297 329.911 52.4297 330.391C51.9349 330.87 51.6432 331.521 51.5547 332.344ZM54.4922 337.164C53.237 337.164 52.237 336.789 51.4922 336.039C50.7474 335.284 50.375 334.279 50.375 333.023C50.375 331.758 50.7318 330.734 51.4453 329.953C52.1589 329.172 53.1068 328.781 54.2891 328.781C55.388 328.781 56.2474 329.138 56.8672 329.852C57.4922 330.565 57.8047 331.513 57.8047 332.695C57.8047 332.924 57.8021 333.065 57.7969 333.117H51.5156C51.5156 334.096 51.7891 334.865 52.3359 335.422C52.8828 335.979 53.6146 336.258 54.5312 336.258C55.526 336.258 56.401 335.961 57.1562 335.367L57.5156 336.164C57.1198 336.482 56.6562 336.729 56.125 336.906C55.599 337.078 55.0547 337.164 54.4922 337.164ZM60.0938 337V330.945C60.0938 330.706 60.0859 330.424 60.0703 330.102C60.0547 329.773 60.0417 329.505 60.0312 329.297L60.0078 328.984H61.1562L61.2031 330.352C61.4062 329.831 61.7031 329.443 62.0938 329.188C62.4896 328.932 62.9427 328.805 63.4531 328.805C63.7344 328.805 64.0026 328.831 64.2578 328.883L64.2344 329.875C63.9479 329.812 63.6771 329.781 63.4219 329.781C62.7448 329.781 62.2057 330.013 61.8047 330.477C61.4036 330.94 61.2031 331.643 61.2031 332.586V337H60.0938ZM66.1562 326.719V325.625H67.25V326.719H66.1562ZM66.1484 337V328.984H67.25V337H66.1484ZM73.5156 337.164C72.2812 337.164 71.2943 336.786 70.5547 336.031C69.8203 335.276 69.4531 334.286 69.4531 333.062C69.4531 331.776 69.8281 330.742 70.5781 329.961C71.3281 329.174 72.3255 328.781 73.5703 328.781C74.0755 328.781 74.5521 328.859 75 329.016C75.4479 329.167 75.8177 329.378 76.1094 329.648L75.7266 330.406C75.1693 329.927 74.4688 329.688 73.625 329.688C72.7083 329.688 71.974 329.987 71.4219 330.586C70.8698 331.185 70.5938 332.008 70.5938 333.055C70.5938 334.034 70.862 334.812 71.3984 335.391C71.9349 335.969 72.6589 336.258 73.5703 336.258C74.4453 336.258 75.224 335.997 75.9062 335.477L76.2656 336.25C75.9323 336.542 75.526 336.768 75.0469 336.93C74.5729 337.086 74.0625 337.164 73.5156 337.164ZM81.5156 336.258C82.3646 336.258 83.0182 335.958 83.4766 335.359C83.9401 334.76 84.1719 333.948 84.1719 332.922C84.1719 331.948 83.9349 331.167 83.4609 330.578C82.9922 329.984 82.3411 329.688 81.5078 329.688C80.6328 329.688 79.9505 329.984 79.4609 330.578C78.9714 331.172 78.7266 331.956 78.7266 332.93C78.7266 333.93 78.9714 334.734 79.4609 335.344C79.9557 335.953 80.6406 336.258 81.5156 336.258ZM81.3984 337.164C80.6224 337.164 79.9453 336.982 79.3672 336.617C78.7891 336.247 78.3516 335.747 78.0547 335.117C77.7578 334.482 77.6094 333.76 77.6094 332.953C77.6094 331.724 77.9557 330.721 78.6484 329.945C79.3411 329.169 80.263 328.781 81.4141 328.781C82.0339 328.781 82.5859 328.932 83.0703 329.234C83.5547 329.536 83.9141 329.927 84.1484 330.406V328.984H85.2422V337H84.1406V335.477C83.901 335.997 83.5443 336.409 83.0703 336.711C82.5964 337.013 82.0391 337.164 81.3984 337.164ZM88.2031 337V330.664C88.2031 330.44 88.1979 330.19 88.1875 329.914C88.1771 329.633 88.1667 329.406 88.1562 329.234L88.1328 328.984H89.2266L89.2734 330.422C89.5391 329.901 89.9349 329.497 90.4609 329.211C90.9922 328.924 91.5755 328.781 92.2109 328.781C94.1589 328.781 95.1328 329.958 95.1328 332.312V337H94.0234V332.312C94.0234 331.427 93.8724 330.768 93.5703 330.336C93.2682 329.904 92.7734 329.688 92.0859 329.688C91.3932 329.688 90.7865 329.888 90.2656 330.289C89.7448 330.69 89.4245 331.208 89.3047 331.844V337H88.2031ZM102.852 337V325.625H105.711C107.815 325.625 109.419 326.107 110.523 327.07C111.628 328.029 112.18 329.466 112.18 331.383C112.18 333.201 111.656 334.591 110.609 335.555C109.562 336.518 108.042 337 106.047 337H102.852ZM104.016 336.031H106.094C107.693 336.031 108.904 335.633 109.727 334.836C110.549 334.039 110.961 332.888 110.961 331.383C110.961 328.19 109.234 326.594 105.781 326.594H104.016V336.031ZM118.023 337.164C116.758 337.164 115.758 336.784 115.023 336.023C114.289 335.263 113.922 334.258 113.922 333.008C113.922 331.732 114.289 330.708 115.023 329.938C115.763 329.167 116.766 328.781 118.031 328.781C119.297 328.781 120.292 329.167 121.016 329.938C121.745 330.708 122.109 331.732 122.109 333.008C122.109 334.258 121.742 335.263 121.008 336.023C120.279 336.784 119.284 337.164 118.023 337.164ZM118.023 336.258C118.956 336.258 119.677 335.964 120.188 335.375C120.703 334.786 120.961 333.997 120.961 333.008C120.961 331.992 120.703 331.185 120.188 330.586C119.677 329.987 118.956 329.688 118.023 329.688C117.086 329.688 116.359 329.987 115.844 330.586C115.328 331.185 115.07 331.992 115.07 333.008C115.07 333.997 115.328 334.786 115.844 335.375C116.359 335.964 117.086 336.258 118.023 336.258ZM124.367 337V325.273H125.469V337H124.367ZM128.414 337V325.273H129.516V337H128.414ZM135.641 336.258C136.49 336.258 137.143 335.958 137.602 335.359C138.065 334.76 138.297 333.948 138.297 332.922C138.297 331.948 138.06 331.167 137.586 330.578C137.117 329.984 136.466 329.688 135.633 329.688C134.758 329.688 134.076 329.984 133.586 330.578C133.096 331.172 132.852 331.956 132.852 332.93C132.852 333.93 133.096 334.734 133.586 335.344C134.081 335.953 134.766 336.258 135.641 336.258ZM135.523 337.164C134.747 337.164 134.07 336.982 133.492 336.617C132.914 336.247 132.477 335.747 132.18 335.117C131.883 334.482 131.734 333.76 131.734 332.953C131.734 331.724 132.081 330.721 132.773 329.945C133.466 329.169 134.388 328.781 135.539 328.781C136.159 328.781 136.711 328.932 137.195 329.234C137.68 329.536 138.039 329.927 138.273 330.406V328.984H139.367V337H138.266V335.477C138.026 335.997 137.669 336.409 137.195 336.711C136.721 337.013 136.164 337.164 135.523 337.164ZM142.344 337V330.945C142.344 330.706 142.336 330.424 142.32 330.102C142.305 329.773 142.292 329.505 142.281 329.297L142.258 328.984H143.406L143.453 330.352C143.656 329.831 143.953 329.443 144.344 329.188C144.74 328.932 145.193 328.805 145.703 328.805C145.984 328.805 146.253 328.831 146.508 328.883L146.484 329.875C146.198 329.812 145.927 329.781 145.672 329.781C144.995 329.781 144.456 330.013 144.055 330.477C143.654 330.94 143.453 331.643 143.453 332.586V337H142.344Z" fill="#8E8E8E"/>
<path d="M25.6641 382V370.625H32.2344V371.594H26.8281V375.656H31.9297V376.625H26.8281V381.031H32.4688V382H25.6641ZM37.9219 382.188C36.9062 382.188 36.1432 381.898 35.6328 381.32C35.1224 380.737 34.8672 379.917 34.8672 378.859V373.984H35.9688V378.875C35.9688 379.672 36.1432 380.273 36.4922 380.68C36.8411 381.081 37.3568 381.281 38.0391 381.281C38.4505 381.281 38.8281 381.211 39.1719 381.07C39.5156 380.93 39.7917 380.75 40 380.531C40.2135 380.307 40.3776 380.068 40.4922 379.812C40.612 379.552 40.6719 379.294 40.6719 379.039V373.984H41.7812V380.133C41.7812 380.82 41.7995 381.443 41.8359 382H40.75L40.6953 380.609C40.4141 381.089 40.0417 381.471 39.5781 381.758C39.1146 382.044 38.5625 382.188 37.9219 382.188ZM44.8125 382V375.945C44.8125 375.706 44.8047 375.424 44.7891 375.102C44.7734 374.773 44.7604 374.505 44.75 374.297L44.7266 373.984H45.875L45.9219 375.352C46.125 374.831 46.4219 374.443 46.8125 374.188C47.2083 373.932 47.6615 373.805 48.1719 373.805C48.4531 373.805 48.7214 373.831 48.9766 373.883L48.9531 374.875C48.6667 374.812 48.3958 374.781 48.1406 374.781C47.4635 374.781 46.9245 375.013 46.5234 375.477C46.1224 375.94 45.9219 376.643 45.9219 377.586V382H44.8125ZM54.3203 382.164C53.0547 382.164 52.0547 381.784 51.3203 381.023C50.5859 380.263 50.2188 379.258 50.2188 378.008C50.2188 376.732 50.5859 375.708 51.3203 374.938C52.0599 374.167 53.0625 373.781 54.3281 373.781C55.5938 373.781 56.5885 374.167 57.3125 374.938C58.0417 375.708 58.4062 376.732 58.4062 378.008C58.4062 379.258 58.0391 380.263 57.3047 381.023C56.5755 381.784 55.5807 382.164 54.3203 382.164ZM54.3203 381.258C55.2526 381.258 55.974 380.964 56.4844 380.375C57 379.786 57.2578 378.997 57.2578 378.008C57.2578 376.992 57 376.185 56.4844 375.586C55.974 374.987 55.2526 374.688 54.3203 374.688C53.3828 374.688 52.6562 374.987 52.1406 375.586C51.625 376.185 51.3672 376.992 51.3672 378.008C51.3672 378.997 51.625 379.786 52.1406 380.375C52.6562 380.964 53.3828 381.258 54.3203 381.258Z" fill="#8E8E8E"/>
<path d="M307.148 65V64.0703H309.391V54.9609C309.219 55.0599 309.018 55.1641 308.789 55.2734C308.565 55.3828 308.388 55.4661 308.258 55.5234C308.133 55.5755 307.911 55.6667 307.594 55.7969C307.281 55.9271 307.096 56.0026 307.039 56.0234V54.9688C307.424 54.8281 307.888 54.625 308.43 54.3594C308.977 54.0938 309.427 53.849 309.781 53.625H310.562V64.0703H312.648V65H307.148ZM319.164 65.1797C317.935 65.1797 316.995 64.6693 316.344 63.6484C315.698 62.6224 315.375 61.1797 315.375 59.3203C315.375 57.4141 315.698 55.9531 316.344 54.9375C316.99 53.9219 317.932 53.4141 319.172 53.4141C320.38 53.4141 321.294 53.9245 321.914 54.9453C322.534 55.9609 322.844 57.4193 322.844 59.3203C322.844 61.1849 322.531 62.6276 321.906 63.6484C321.286 64.6693 320.372 65.1797 319.164 65.1797ZM319.172 64.2109C320.005 64.2109 320.625 63.7891 321.031 62.9453C321.438 62.0964 321.641 60.888 321.641 59.3203C321.641 57.7526 321.435 56.5391 321.023 55.6797C320.617 54.8151 320 54.3828 319.172 54.3828C318.302 54.3828 317.651 54.8151 317.219 55.6797C316.786 56.5443 316.57 57.7578 316.57 59.3203C316.57 60.8828 316.786 62.0885 317.219 62.9375C317.651 63.7865 318.302 64.2109 319.172 64.2109Z" fill="#8E8E8E"/>
<path d="M309.625 98.4141C310.208 98.4141 310.727 98.5026 311.18 98.6797C311.638 98.8516 312.005 99.0911 312.281 99.3984C312.562 99.7005 312.773 100.047 312.914 100.438C313.055 100.823 313.125 101.24 313.125 101.688C313.125 102.057 313.078 102.411 312.984 102.75C312.891 103.083 312.742 103.419 312.539 103.758C312.341 104.091 312.125 104.406 311.891 104.703C311.656 104.995 311.357 105.339 310.992 105.734L307.992 109.047H313.086V110H306.672V109.062L310.32 105.039C310.94 104.357 311.375 103.779 311.625 103.305C311.88 102.831 312.008 102.326 312.008 101.789C312.008 101.44 311.961 101.125 311.867 100.844C311.773 100.557 311.63 100.305 311.438 100.086C311.25 99.8672 310.997 99.6979 310.68 99.5781C310.367 99.4583 310.003 99.3984 309.586 99.3984C308.732 99.3984 307.786 99.6875 306.75 100.266L306.359 99.375C307.448 98.7344 308.536 98.4141 309.625 98.4141ZM319.336 110.18C318.107 110.18 317.167 109.669 316.516 108.648C315.87 107.622 315.547 106.18 315.547 104.32C315.547 102.414 315.87 100.953 316.516 99.9375C317.161 98.9219 318.104 98.4141 319.344 98.4141C320.552 98.4141 321.466 98.9245 322.086 99.9453C322.706 100.961 323.016 102.419 323.016 104.32C323.016 106.185 322.703 107.628 322.078 108.648C321.458 109.669 320.544 110.18 319.336 110.18ZM319.344 109.211C320.177 109.211 320.797 108.789 321.203 107.945C321.609 107.096 321.812 105.888 321.812 104.32C321.812 102.753 321.607 101.539 321.195 100.68C320.789 99.8151 320.172 99.3828 319.344 99.3828C318.474 99.3828 317.823 99.8151 317.391 100.68C316.958 101.544 316.742 102.758 316.742 104.32C316.742 105.883 316.958 107.089 317.391 107.938C317.823 108.786 318.474 109.211 319.344 109.211Z" fill="#8E8E8E"/>
<path d="M309.625 143.414C310.208 143.414 310.727 143.503 311.18 143.68C311.638 143.852 312.005 144.091 312.281 144.398C312.562 144.701 312.773 145.047 312.914 145.438C313.055 145.823 313.125 146.24 313.125 146.688C313.125 147.057 313.078 147.411 312.984 147.75C312.891 148.083 312.742 148.419 312.539 148.758C312.341 149.091 312.125 149.406 311.891 149.703C311.656 149.995 311.357 150.339 310.992 150.734L307.992 154.047H313.086V155H306.672V154.062L310.32 150.039C310.94 149.357 311.375 148.779 311.625 148.305C311.88 147.831 312.008 147.326 312.008 146.789C312.008 146.44 311.961 146.125 311.867 145.844C311.773 145.557 311.63 145.305 311.438 145.086C311.25 144.867 310.997 144.698 310.68 144.578C310.367 144.458 310.003 144.398 309.586 144.398C308.732 144.398 307.786 144.688 306.75 145.266L306.359 144.375C307.448 143.734 308.536 143.414 309.625 143.414ZM319.094 149.82C319.505 149.82 319.883 149.755 320.227 149.625C320.576 149.49 320.859 149.318 321.078 149.109C321.302 148.896 321.477 148.659 321.602 148.398C321.727 148.138 321.789 147.875 321.789 147.609C321.789 147.188 321.742 146.792 321.648 146.422C321.555 146.052 321.411 145.711 321.219 145.398C321.026 145.086 320.758 144.839 320.414 144.656C320.076 144.474 319.677 144.383 319.219 144.383C318.453 144.383 317.852 144.641 317.414 145.156C316.982 145.667 316.766 146.328 316.766 147.141C316.766 147.938 316.958 148.583 317.344 149.078C317.729 149.573 318.312 149.82 319.094 149.82ZM318.836 155.18C317.961 155.18 317.104 154.927 316.266 154.422L316.688 153.531C317.339 153.984 318.039 154.211 318.789 154.211C319.242 154.211 319.648 154.12 320.008 153.938C320.367 153.755 320.659 153.518 320.883 153.227C321.112 152.935 321.302 152.594 321.453 152.203C321.604 151.807 321.711 151.411 321.773 151.016C321.836 150.62 321.87 150.211 321.875 149.789C321.88 149.706 321.883 149.552 321.883 149.328C321.674 149.724 321.312 150.065 320.797 150.352C320.286 150.633 319.693 150.773 319.016 150.773C318.005 150.773 317.18 150.443 316.539 149.781C315.898 149.115 315.578 148.24 315.578 147.156C315.578 146.448 315.721 145.812 316.008 145.25C316.299 144.688 316.721 144.242 317.273 143.914C317.831 143.581 318.477 143.414 319.211 143.414C320.076 143.414 320.797 143.643 321.375 144.102C321.958 144.555 322.383 145.19 322.648 146.008C322.919 146.826 323.055 147.812 323.055 148.969C323.055 150.203 322.898 151.281 322.586 152.203C322.279 153.125 321.805 153.852 321.164 154.383C320.523 154.914 319.747 155.18 318.836 155.18Z" fill="#8E8E8E"/>
<path d="M309.375 200.18C308.771 200.18 308.206 200.104 307.68 199.953C307.154 199.797 306.747 199.635 306.461 199.469L306.75 198.578C307.089 198.75 307.495 198.898 307.969 199.023C308.443 199.148 308.891 199.211 309.312 199.211C310.146 199.211 310.812 199 311.312 198.578C311.812 198.156 312.062 197.586 312.062 196.867C312.062 196.112 311.807 195.531 311.297 195.125C310.792 194.714 310.065 194.505 309.117 194.5H308.406L308.391 193.5H309.102C310.909 193.5 311.812 192.771 311.812 191.312C311.812 190.719 311.583 190.25 311.125 189.906C310.667 189.557 310.078 189.383 309.359 189.383C308.776 189.383 308.232 189.492 307.727 189.711C307.227 189.924 306.826 190.214 306.523 190.578L305.961 189.844C306.331 189.385 306.812 189.034 307.406 188.789C308 188.539 308.677 188.414 309.438 188.414C310.453 188.414 311.289 188.674 311.945 189.195C312.602 189.711 312.93 190.411 312.93 191.297C312.93 191.932 312.74 192.505 312.359 193.016C311.984 193.521 311.456 193.844 310.773 193.984C311.523 194.115 312.12 194.448 312.562 194.984C313.005 195.521 313.227 196.156 313.227 196.891C313.227 197.891 312.87 198.69 312.156 199.289C311.443 199.883 310.516 200.18 309.375 200.18ZM319.031 188.414C319.615 188.414 320.133 188.503 320.586 188.68C321.044 188.852 321.411 189.091 321.688 189.398C321.969 189.701 322.18 190.047 322.32 190.438C322.461 190.823 322.531 191.24 322.531 191.688C322.531 192.057 322.484 192.411 322.391 192.75C322.297 193.083 322.148 193.419 321.945 193.758C321.747 194.091 321.531 194.406 321.297 194.703C321.062 194.995 320.763 195.339 320.398 195.734L317.398 199.047H322.492V200H316.078V199.062L319.727 195.039C320.346 194.357 320.781 193.779 321.031 193.305C321.286 192.831 321.414 192.326 321.414 191.789C321.414 191.44 321.367 191.125 321.273 190.844C321.18 190.557 321.036 190.305 320.844 190.086C320.656 189.867 320.404 189.698 320.086 189.578C319.773 189.458 319.409 189.398 318.992 189.398C318.138 189.398 317.193 189.688 316.156 190.266L315.766 189.375C316.854 188.734 317.943 188.414 319.031 188.414Z" fill="#8E8E8E"/>
<path d="M309.969 244.211C310.734 244.211 311.333 243.951 311.766 243.43C312.198 242.909 312.414 242.24 312.414 241.422C312.414 241.036 312.367 240.682 312.273 240.359C312.18 240.036 312.039 239.753 311.852 239.508C311.664 239.258 311.417 239.062 311.109 238.922C310.807 238.781 310.458 238.711 310.062 238.711C309.651 238.711 309.268 238.779 308.914 238.914C308.565 239.049 308.279 239.224 308.055 239.438C307.836 239.646 307.664 239.878 307.539 240.133C307.414 240.383 307.352 240.63 307.352 240.875C307.352 241.328 307.401 241.753 307.5 242.148C307.604 242.539 307.758 242.891 307.961 243.203C308.164 243.516 308.438 243.763 308.781 243.945C309.125 244.122 309.521 244.211 309.969 244.211ZM309.969 245.18C309.297 245.18 308.706 245.047 308.195 244.781C307.69 244.51 307.279 244.125 306.961 243.625C306.648 243.125 306.414 242.539 306.258 241.867C306.107 241.195 306.031 240.44 306.031 239.602C306.031 238.914 306.086 238.266 306.195 237.656C306.305 237.047 306.474 236.482 306.703 235.961C306.932 235.44 307.214 234.992 307.547 234.617C307.885 234.242 308.292 233.948 308.766 233.734C309.245 233.521 309.773 233.414 310.352 233.414C310.867 233.414 311.344 233.495 311.781 233.656C312.219 233.812 312.589 234.013 312.891 234.258L312.461 235.102C312.206 234.893 311.893 234.721 311.523 234.586C311.159 234.451 310.771 234.383 310.359 234.383C309.974 234.383 309.622 234.448 309.305 234.578C308.992 234.708 308.727 234.891 308.508 235.125C308.294 235.359 308.107 235.617 307.945 235.898C307.789 236.18 307.664 236.492 307.57 236.836C307.477 237.174 307.404 237.497 307.352 237.805C307.305 238.107 307.273 238.417 307.258 238.734C307.247 238.865 307.242 239.039 307.242 239.258C307.471 238.862 307.841 238.516 308.352 238.219C308.867 237.917 309.469 237.766 310.156 237.766C311.161 237.766 311.987 238.099 312.633 238.766C313.284 239.427 313.609 240.31 313.609 241.414C313.609 242.503 313.279 243.404 312.617 244.117C311.956 244.826 311.073 245.18 309.969 245.18ZM316.461 241.047H320.328V234.617C319.948 235.268 319.552 235.938 319.141 236.625C318.729 237.307 318.237 238.12 317.664 239.062C317.091 240.005 316.69 240.667 316.461 241.047ZM320.336 245V241.969H315.211V241.141L319.883 233.625H321.508V241.047H323.141V241.969H321.484V245H320.336Z" fill="#8E8E8E"/>
<path d="M307.914 290L312.086 279.641H306.406V278.625H313.383V279.5L309.195 290H307.914ZM318.922 284.82C319.333 284.82 319.711 284.755 320.055 284.625C320.404 284.49 320.688 284.318 320.906 284.109C321.13 283.896 321.305 283.659 321.43 283.398C321.555 283.138 321.617 282.875 321.617 282.609C321.617 282.188 321.57 281.792 321.477 281.422C321.383 281.052 321.24 280.711 321.047 280.398C320.854 280.086 320.586 279.839 320.242 279.656C319.904 279.474 319.505 279.383 319.047 279.383C318.281 279.383 317.68 279.641 317.242 280.156C316.81 280.667 316.594 281.328 316.594 282.141C316.594 282.938 316.786 283.583 317.172 284.078C317.557 284.573 318.141 284.82 318.922 284.82ZM318.664 290.18C317.789 290.18 316.932 289.927 316.094 289.422L316.516 288.531C317.167 288.984 317.867 289.211 318.617 289.211C319.07 289.211 319.477 289.12 319.836 288.938C320.195 288.755 320.487 288.518 320.711 288.227C320.94 287.935 321.13 287.594 321.281 287.203C321.432 286.807 321.539 286.411 321.602 286.016C321.664 285.62 321.698 285.211 321.703 284.789C321.708 284.706 321.711 284.552 321.711 284.328C321.503 284.724 321.141 285.065 320.625 285.352C320.115 285.633 319.521 285.773 318.844 285.773C317.833 285.773 317.008 285.443 316.367 284.781C315.727 284.115 315.406 283.24 315.406 282.156C315.406 281.448 315.549 280.812 315.836 280.25C316.128 279.688 316.549 279.242 317.102 278.914C317.659 278.581 318.305 278.414 319.039 278.414C319.904 278.414 320.625 278.643 321.203 279.102C321.786 279.555 322.211 280.19 322.477 281.008C322.747 281.826 322.883 282.812 322.883 283.969C322.883 285.203 322.727 286.281 322.414 287.203C322.107 288.125 321.633 288.852 320.992 289.383C320.352 289.914 319.576 290.18 318.664 290.18Z" fill="#8E8E8E"/>
<path d="M307.148 335V334.07H309.391V324.961C309.219 325.06 309.018 325.164 308.789 325.273C308.565 325.383 308.388 325.466 308.258 325.523C308.133 325.576 307.911 325.667 307.594 325.797C307.281 325.927 307.096 326.003 307.039 326.023V324.969C307.424 324.828 307.888 324.625 308.43 324.359C308.977 324.094 309.427 323.849 309.781 323.625H310.562V334.07H312.648V335H307.148ZM319.164 335.18C317.935 335.18 316.995 334.669 316.344 333.648C315.698 332.622 315.375 331.18 315.375 329.32C315.375 327.414 315.698 325.953 316.344 324.938C316.99 323.922 317.932 323.414 319.172 323.414C320.38 323.414 321.294 323.924 321.914 324.945C322.534 325.961 322.844 327.419 322.844 329.32C322.844 331.185 322.531 332.628 321.906 333.648C321.286 334.669 320.372 335.18 319.164 335.18ZM319.172 334.211C320.005 334.211 320.625 333.789 321.031 332.945C321.438 332.096 321.641 330.888 321.641 329.32C321.641 327.753 321.435 326.539 321.023 325.68C320.617 324.815 320 324.383 319.172 324.383C318.302 324.383 317.651 324.815 317.219 325.68C316.786 326.544 316.57 327.758 316.57 329.32C316.57 330.883 316.786 332.089 317.219 332.938C317.651 333.786 318.302 334.211 319.172 334.211ZM328.438 323.414C329.021 323.414 329.539 323.503 329.992 323.68C330.451 323.852 330.818 324.091 331.094 324.398C331.375 324.701 331.586 325.047 331.727 325.438C331.867 325.823 331.938 326.24 331.938 326.688C331.938 327.057 331.891 327.411 331.797 327.75C331.703 328.083 331.555 328.419 331.352 328.758C331.154 329.091 330.938 329.406 330.703 329.703C330.469 329.995 330.169 330.339 329.805 330.734L326.805 334.047H331.898V335H325.484V334.062L329.133 330.039C329.753 329.357 330.188 328.779 330.438 328.305C330.693 327.831 330.82 327.326 330.82 326.789C330.82 326.44 330.773 326.125 330.68 325.844C330.586 325.557 330.443 325.305 330.25 325.086C330.062 324.867 329.81 324.698 329.492 324.578C329.18 324.458 328.815 324.398 328.398 324.398C327.544 324.398 326.599 324.688 325.562 325.266L325.172 324.375C326.26 323.734 327.349 323.414 328.438 323.414Z" fill="#8E8E8E"/>
<path d="M307.148 380V379.07H309.391V369.961C309.219 370.06 309.018 370.164 308.789 370.273C308.565 370.383 308.388 370.466 308.258 370.523C308.133 370.576 307.911 370.667 307.594 370.797C307.281 370.927 307.096 371.003 307.039 371.023V369.969C307.424 369.828 307.888 369.625 308.43 369.359C308.977 369.094 309.427 368.849 309.781 368.625H310.562V379.07H312.648V380H307.148ZM318.781 380.18C318.177 380.18 317.612 380.104 317.086 379.953C316.56 379.797 316.154 379.635 315.867 379.469L316.156 378.578C316.495 378.75 316.901 378.898 317.375 379.023C317.849 379.148 318.297 379.211 318.719 379.211C319.552 379.211 320.219 379 320.719 378.578C321.219 378.156 321.469 377.586 321.469 376.867C321.469 376.112 321.214 375.531 320.703 375.125C320.198 374.714 319.471 374.505 318.523 374.5H317.812L317.797 373.5H318.508C320.315 373.5 321.219 372.771 321.219 371.312C321.219 370.719 320.99 370.25 320.531 369.906C320.073 369.557 319.484 369.383 318.766 369.383C318.182 369.383 317.638 369.492 317.133 369.711C316.633 369.924 316.232 370.214 315.93 370.578L315.367 369.844C315.737 369.385 316.219 369.034 316.812 368.789C317.406 368.539 318.083 368.414 318.844 368.414C319.859 368.414 320.695 368.674 321.352 369.195C322.008 369.711 322.336 370.411 322.336 371.297C322.336 371.932 322.146 372.505 321.766 373.016C321.391 373.521 320.862 373.844 320.18 373.984C320.93 374.115 321.526 374.448 321.969 374.984C322.411 375.521 322.633 376.156 322.633 376.891C322.633 377.891 322.276 378.69 321.562 379.289C320.849 379.883 319.922 380.18 318.781 380.18ZM325.867 376.047H329.734V369.617C329.354 370.268 328.958 370.938 328.547 371.625C328.135 372.307 327.643 373.12 327.07 374.062C326.497 375.005 326.096 375.667 325.867 376.047ZM329.742 380V376.969H324.617V376.141L329.289 368.625H330.914V376.047H332.547V376.969H330.891V380H329.742Z" fill="#8E8E8E"/>
<path d="M217.148 65V64.0703H219.391V54.9609C219.219 55.0599 219.018 55.1641 218.789 55.2734C218.565 55.3828 218.388 55.4661 218.258 55.5234C218.133 55.5755 217.911 55.6667 217.594 55.7969C217.281 55.9271 217.096 56.0026 217.039 56.0234V54.9688C217.424 54.8281 217.888 54.625 218.43 54.3594C218.977 54.0938 219.427 53.849 219.781 53.625H220.562V64.0703H222.648V65H217.148ZM229.164 65.1797C227.935 65.1797 226.995 64.6693 226.344 63.6484C225.698 62.6224 225.375 61.1797 225.375 59.3203C225.375 57.4141 225.698 55.9531 226.344 54.9375C226.99 53.9219 227.932 53.4141 229.172 53.4141C230.38 53.4141 231.294 53.9245 231.914 54.9453C232.534 55.9609 232.844 57.4193 232.844 59.3203C232.844 61.1849 232.531 62.6276 231.906 63.6484C231.286 64.6693 230.372 65.1797 229.164 65.1797ZM229.172 64.2109C230.005 64.2109 230.625 63.7891 231.031 62.9453C231.438 62.0964 231.641 60.888 231.641 59.3203C231.641 57.7526 231.435 56.5391 231.023 55.6797C230.617 54.8151 230 54.3828 229.172 54.3828C228.302 54.3828 227.651 54.8151 227.219 55.6797C226.786 56.5443 226.57 57.7578 226.57 59.3203C226.57 60.8828 226.786 62.0885 227.219 62.9375C227.651 63.7865 228.302 64.2109 229.172 64.2109Z" fill="#8E8E8E"/>
<path d="M219.625 98.4141C220.208 98.4141 220.727 98.5026 221.18 98.6797C221.638 98.8516 222.005 99.0911 222.281 99.3984C222.562 99.7005 222.773 100.047 222.914 100.438C223.055 100.823 223.125 101.24 223.125 101.688C223.125 102.057 223.078 102.411 222.984 102.75C222.891 103.083 222.742 103.419 222.539 103.758C222.341 104.091 222.125 104.406 221.891 104.703C221.656 104.995 221.357 105.339 220.992 105.734L217.992 109.047H223.086V110H216.672V109.062L220.32 105.039C220.94 104.357 221.375 103.779 221.625 103.305C221.88 102.831 222.008 102.326 222.008 101.789C222.008 101.44 221.961 101.125 221.867 100.844C221.773 100.557 221.63 100.305 221.438 100.086C221.25 99.8672 220.997 99.6979 220.68 99.5781C220.367 99.4583 220.003 99.3984 219.586 99.3984C218.732 99.3984 217.786 99.6875 216.75 100.266L216.359 99.375C217.448 98.7344 218.536 98.4141 219.625 98.4141ZM229.336 110.18C228.107 110.18 227.167 109.669 226.516 108.648C225.87 107.622 225.547 106.18 225.547 104.32C225.547 102.414 225.87 100.953 226.516 99.9375C227.161 98.9219 228.104 98.4141 229.344 98.4141C230.552 98.4141 231.466 98.9245 232.086 99.9453C232.706 100.961 233.016 102.419 233.016 104.32C233.016 106.185 232.703 107.628 232.078 108.648C231.458 109.669 230.544 110.18 229.336 110.18ZM229.344 109.211C230.177 109.211 230.797 108.789 231.203 107.945C231.609 107.096 231.812 105.888 231.812 104.32C231.812 102.753 231.607 101.539 231.195 100.68C230.789 99.8151 230.172 99.3828 229.344 99.3828C228.474 99.3828 227.823 99.8151 227.391 100.68C226.958 101.544 226.742 102.758 226.742 104.32C226.742 105.883 226.958 107.089 227.391 107.938C227.823 108.786 228.474 109.211 229.344 109.211Z" fill="#8E8E8E"/>
<path d="M219.625 143.414C220.208 143.414 220.727 143.503 221.18 143.68C221.638 143.852 222.005 144.091 222.281 144.398C222.562 144.701 222.773 145.047 222.914 145.438C223.055 145.823 223.125 146.24 223.125 146.688C223.125 147.057 223.078 147.411 222.984 147.75C222.891 148.083 222.742 148.419 222.539 148.758C222.341 149.091 222.125 149.406 221.891 149.703C221.656 149.995 221.357 150.339 220.992 150.734L217.992 154.047H223.086V155H216.672V154.062L220.32 150.039C220.94 149.357 221.375 148.779 221.625 148.305C221.88 147.831 222.008 147.326 222.008 146.789C222.008 146.44 221.961 146.125 221.867 145.844C221.773 145.557 221.63 145.305 221.438 145.086C221.25 144.867 220.997 144.698 220.68 144.578C220.367 144.458 220.003 144.398 219.586 144.398C218.732 144.398 217.786 144.688 216.75 145.266L216.359 144.375C217.448 143.734 218.536 143.414 219.625 143.414ZM229.094 149.82C229.505 149.82 229.883 149.755 230.227 149.625C230.576 149.49 230.859 149.318 231.078 149.109C231.302 148.896 231.477 148.659 231.602 148.398C231.727 148.138 231.789 147.875 231.789 147.609C231.789 147.188 231.742 146.792 231.648 146.422C231.555 146.052 231.411 145.711 231.219 145.398C231.026 145.086 230.758 144.839 230.414 144.656C230.076 144.474 229.677 144.383 229.219 144.383C228.453 144.383 227.852 144.641 227.414 145.156C226.982 145.667 226.766 146.328 226.766 147.141C226.766 147.938 226.958 148.583 227.344 149.078C227.729 149.573 228.312 149.82 229.094 149.82ZM228.836 155.18C227.961 155.18 227.104 154.927 226.266 154.422L226.688 153.531C227.339 153.984 228.039 154.211 228.789 154.211C229.242 154.211 229.648 154.12 230.008 153.938C230.367 153.755 230.659 153.518 230.883 153.227C231.112 152.935 231.302 152.594 231.453 152.203C231.604 151.807 231.711 151.411 231.773 151.016C231.836 150.62 231.87 150.211 231.875 149.789C231.88 149.706 231.883 149.552 231.883 149.328C231.674 149.724 231.312 150.065 230.797 150.352C230.286 150.633 229.693 150.773 229.016 150.773C228.005 150.773 227.18 150.443 226.539 149.781C225.898 149.115 225.578 148.24 225.578 147.156C225.578 146.448 225.721 145.812 226.008 145.25C226.299 144.688 226.721 144.242 227.273 143.914C227.831 143.581 228.477 143.414 229.211 143.414C230.076 143.414 230.797 143.643 231.375 144.102C231.958 144.555 232.383 145.19 232.648 146.008C232.919 146.826 233.055 147.812 233.055 148.969C233.055 150.203 232.898 151.281 232.586 152.203C232.279 153.125 231.805 153.852 231.164 154.383C230.523 154.914 229.747 155.18 228.836 155.18Z" fill="#8E8E8E"/>
<path d="M219.375 200.18C218.771 200.18 218.206 200.104 217.68 199.953C217.154 199.797 216.747 199.635 216.461 199.469L216.75 198.578C217.089 198.75 217.495 198.898 217.969 199.023C218.443 199.148 218.891 199.211 219.312 199.211C220.146 199.211 220.812 199 221.312 198.578C221.812 198.156 222.062 197.586 222.062 196.867C222.062 196.112 221.807 195.531 221.297 195.125C220.792 194.714 220.065 194.505 219.117 194.5H218.406L218.391 193.5H219.102C220.909 193.5 221.812 192.771 221.812 191.312C221.812 190.719 221.583 190.25 221.125 189.906C220.667 189.557 220.078 189.383 219.359 189.383C218.776 189.383 218.232 189.492 217.727 189.711C217.227 189.924 216.826 190.214 216.523 190.578L215.961 189.844C216.331 189.385 216.812 189.034 217.406 188.789C218 188.539 218.677 188.414 219.438 188.414C220.453 188.414 221.289 188.674 221.945 189.195C222.602 189.711 222.93 190.411 222.93 191.297C222.93 191.932 222.74 192.505 222.359 193.016C221.984 193.521 221.456 193.844 220.773 193.984C221.523 194.115 222.12 194.448 222.562 194.984C223.005 195.521 223.227 196.156 223.227 196.891C223.227 197.891 222.87 198.69 222.156 199.289C221.443 199.883 220.516 200.18 219.375 200.18ZM229.031 188.414C229.615 188.414 230.133 188.503 230.586 188.68C231.044 188.852 231.411 189.091 231.688 189.398C231.969 189.701 232.18 190.047 232.32 190.438C232.461 190.823 232.531 191.24 232.531 191.688C232.531 192.057 232.484 192.411 232.391 192.75C232.297 193.083 232.148 193.419 231.945 193.758C231.747 194.091 231.531 194.406 231.297 194.703C231.062 194.995 230.763 195.339 230.398 195.734L227.398 199.047H232.492V200H226.078V199.062L229.727 195.039C230.346 194.357 230.781 193.779 231.031 193.305C231.286 192.831 231.414 192.326 231.414 191.789C231.414 191.44 231.367 191.125 231.273 190.844C231.18 190.557 231.036 190.305 230.844 190.086C230.656 189.867 230.404 189.698 230.086 189.578C229.773 189.458 229.409 189.398 228.992 189.398C228.138 189.398 227.193 189.688 226.156 190.266L225.766 189.375C226.854 188.734 227.943 188.414 229.031 188.414Z" fill="#8E8E8E"/>
<path d="M219.969 244.211C220.734 244.211 221.333 243.951 221.766 243.43C222.198 242.909 222.414 242.24 222.414 241.422C222.414 241.036 222.367 240.682 222.273 240.359C222.18 240.036 222.039 239.753 221.852 239.508C221.664 239.258 221.417 239.062 221.109 238.922C220.807 238.781 220.458 238.711 220.062 238.711C219.651 238.711 219.268 238.779 218.914 238.914C218.565 239.049 218.279 239.224 218.055 239.438C217.836 239.646 217.664 239.878 217.539 240.133C217.414 240.383 217.352 240.63 217.352 240.875C217.352 241.328 217.401 241.753 217.5 242.148C217.604 242.539 217.758 242.891 217.961 243.203C218.164 243.516 218.438 243.763 218.781 243.945C219.125 244.122 219.521 244.211 219.969 244.211ZM219.969 245.18C219.297 245.18 218.706 245.047 218.195 244.781C217.69 244.51 217.279 244.125 216.961 243.625C216.648 243.125 216.414 242.539 216.258 241.867C216.107 241.195 216.031 240.44 216.031 239.602C216.031 238.914 216.086 238.266 216.195 237.656C216.305 237.047 216.474 236.482 216.703 235.961C216.932 235.44 217.214 234.992 217.547 234.617C217.885 234.242 218.292 233.948 218.766 233.734C219.245 233.521 219.773 233.414 220.352 233.414C220.867 233.414 221.344 233.495 221.781 233.656C222.219 233.812 222.589 234.013 222.891 234.258L222.461 235.102C222.206 234.893 221.893 234.721 221.523 234.586C221.159 234.451 220.771 234.383 220.359 234.383C219.974 234.383 219.622 234.448 219.305 234.578C218.992 234.708 218.727 234.891 218.508 235.125C218.294 235.359 218.107 235.617 217.945 235.898C217.789 236.18 217.664 236.492 217.57 236.836C217.477 237.174 217.404 237.497 217.352 237.805C217.305 238.107 217.273 238.417 217.258 238.734C217.247 238.865 217.242 239.039 217.242 239.258C217.471 238.862 217.841 238.516 218.352 238.219C218.867 237.917 219.469 237.766 220.156 237.766C221.161 237.766 221.987 238.099 222.633 238.766C223.284 239.427 223.609 240.31 223.609 241.414C223.609 242.503 223.279 243.404 222.617 244.117C221.956 244.826 221.073 245.18 219.969 245.18ZM226.461 241.047H230.328V234.617C229.948 235.268 229.552 235.938 229.141 236.625C228.729 237.307 228.237 238.12 227.664 239.062C227.091 240.005 226.69 240.667 226.461 241.047ZM230.336 245V241.969H225.211V241.141L229.883 233.625H231.508V241.047H233.141V241.969H231.484V245H230.336Z" fill="#8E8E8E"/>
<path d="M217.914 290L222.086 279.641H216.406V278.625H223.383V279.5L219.195 290H217.914ZM228.922 284.82C229.333 284.82 229.711 284.755 230.055 284.625C230.404 284.49 230.688 284.318 230.906 284.109C231.13 283.896 231.305 283.659 231.43 283.398C231.555 283.138 231.617 282.875 231.617 282.609C231.617 282.188 231.57 281.792 231.477 281.422C231.383 281.052 231.24 280.711 231.047 280.398C230.854 280.086 230.586 279.839 230.242 279.656C229.904 279.474 229.505 279.383 229.047 279.383C228.281 279.383 227.68 279.641 227.242 280.156C226.81 280.667 226.594 281.328 226.594 282.141C226.594 282.938 226.786 283.583 227.172 284.078C227.557 284.573 228.141 284.82 228.922 284.82ZM228.664 290.18C227.789 290.18 226.932 289.927 226.094 289.422L226.516 288.531C227.167 288.984 227.867 289.211 228.617 289.211C229.07 289.211 229.477 289.12 229.836 288.938C230.195 288.755 230.487 288.518 230.711 288.227C230.94 287.935 231.13 287.594 231.281 287.203C231.432 286.807 231.539 286.411 231.602 286.016C231.664 285.62 231.698 285.211 231.703 284.789C231.708 284.706 231.711 284.552 231.711 284.328C231.503 284.724 231.141 285.065 230.625 285.352C230.115 285.633 229.521 285.773 228.844 285.773C227.833 285.773 227.008 285.443 226.367 284.781C225.727 284.115 225.406 283.24 225.406 282.156C225.406 281.448 225.549 280.812 225.836 280.25C226.128 279.688 226.549 279.242 227.102 278.914C227.659 278.581 228.305 278.414 229.039 278.414C229.904 278.414 230.625 278.643 231.203 279.102C231.786 279.555 232.211 280.19 232.477 281.008C232.747 281.826 232.883 282.812 232.883 283.969C232.883 285.203 232.727 286.281 232.414 287.203C232.107 288.125 231.633 288.852 230.992 289.383C230.352 289.914 229.576 290.18 228.664 290.18Z" fill="#8E8E8E"/>
<path d="M217.148 335V334.07H219.391V324.961C219.219 325.06 219.018 325.164 218.789 325.273C218.565 325.383 218.388 325.466 218.258 325.523C218.133 325.576 217.911 325.667 217.594 325.797C217.281 325.927 217.096 326.003 217.039 326.023V324.969C217.424 324.828 217.888 324.625 218.43 324.359C218.977 324.094 219.427 323.849 219.781 323.625H220.562V334.07H222.648V335H217.148ZM229.164 335.18C227.935 335.18 226.995 334.669 226.344 333.648C225.698 332.622 225.375 331.18 225.375 329.32C225.375 327.414 225.698 325.953 226.344 324.938C226.99 323.922 227.932 323.414 229.172 323.414C230.38 323.414 231.294 323.924 231.914 324.945C232.534 325.961 232.844 327.419 232.844 329.32C232.844 331.185 232.531 332.628 231.906 333.648C231.286 334.669 230.372 335.18 229.164 335.18ZM229.172 334.211C230.005 334.211 230.625 333.789 231.031 332.945C231.438 332.096 231.641 330.888 231.641 329.32C231.641 327.753 231.435 326.539 231.023 325.68C230.617 324.815 230 324.383 229.172 324.383C228.302 324.383 227.651 324.815 227.219 325.68C226.786 326.544 226.57 327.758 226.57 329.32C226.57 330.883 226.786 332.089 227.219 332.938C227.651 333.786 228.302 334.211 229.172 334.211ZM238.438 323.414C239.021 323.414 239.539 323.503 239.992 323.68C240.451 323.852 240.818 324.091 241.094 324.398C241.375 324.701 241.586 325.047 241.727 325.438C241.867 325.823 241.938 326.24 241.938 326.688C241.938 327.057 241.891 327.411 241.797 327.75C241.703 328.083 241.555 328.419 241.352 328.758C241.154 329.091 240.938 329.406 240.703 329.703C240.469 329.995 240.169 330.339 239.805 330.734L236.805 334.047H241.898V335H235.484V334.062L239.133 330.039C239.753 329.357 240.188 328.779 240.438 328.305C240.693 327.831 240.82 327.326 240.82 326.789C240.82 326.44 240.773 326.125 240.68 325.844C240.586 325.557 240.443 325.305 240.25 325.086C240.062 324.867 239.81 324.698 239.492 324.578C239.18 324.458 238.815 324.398 238.398 324.398C237.544 324.398 236.599 324.688 235.562 325.266L235.172 324.375C236.26 323.734 237.349 323.414 238.438 323.414Z" fill="#8E8E8E"/>
<path d="M217.148 380V379.07H219.391V369.961C219.219 370.06 219.018 370.164 218.789 370.273C218.565 370.383 218.388 370.466 218.258 370.523C218.133 370.576 217.911 370.667 217.594 370.797C217.281 370.927 217.096 371.003 217.039 371.023V369.969C217.424 369.828 217.888 369.625 218.43 369.359C218.977 369.094 219.427 368.849 219.781 368.625H220.562V379.07H222.648V380H217.148ZM228.781 380.18C228.177 380.18 227.612 380.104 227.086 379.953C226.56 379.797 226.154 379.635 225.867 379.469L226.156 378.578C226.495 378.75 226.901 378.898 227.375 379.023C227.849 379.148 228.297 379.211 228.719 379.211C229.552 379.211 230.219 379 230.719 378.578C231.219 378.156 231.469 377.586 231.469 376.867C231.469 376.112 231.214 375.531 230.703 375.125C230.198 374.714 229.471 374.505 228.523 374.5H227.812L227.797 373.5H228.508C230.315 373.5 231.219 372.771 231.219 371.312C231.219 370.719 230.99 370.25 230.531 369.906C230.073 369.557 229.484 369.383 228.766 369.383C228.182 369.383 227.638 369.492 227.133 369.711C226.633 369.924 226.232 370.214 225.93 370.578L225.367 369.844C225.737 369.385 226.219 369.034 226.812 368.789C227.406 368.539 228.083 368.414 228.844 368.414C229.859 368.414 230.695 368.674 231.352 369.195C232.008 369.711 232.336 370.411 232.336 371.297C232.336 371.932 232.146 372.505 231.766 373.016C231.391 373.521 230.862 373.844 230.18 373.984C230.93 374.115 231.526 374.448 231.969 374.984C232.411 375.521 232.633 376.156 232.633 376.891C232.633 377.891 232.276 378.69 231.562 379.289C230.849 379.883 229.922 380.18 228.781 380.18ZM235.867 376.047H239.734V369.617C239.354 370.268 238.958 370.938 238.547 371.625C238.135 372.307 237.643 373.12 237.07 374.062C236.497 375.005 236.096 375.667 235.867 376.047ZM239.742 380V376.969H234.617V376.141L239.289 368.625H240.914V376.047H242.547V376.969H240.891V380H239.742Z" fill="#8E8E8E"/>
</svg>
