<svg width="350" height="383" viewBox="0 0 350 383" fill="none" xmlns="http://www.w3.org/2000/svg">
<path d="M28.8 13.108C27.936 13.108 27.2 12.932 26.592 12.58C25.984 12.228 25.516 11.728 25.188 11.08C24.868 10.424 24.708 9.652 24.708 8.764C24.708 7.876 24.868 7.108 25.188 6.46C25.516 5.812 25.984 5.312 26.592 4.96C27.2 4.608 27.936 4.432 28.8 4.432C29.4 4.432 29.936 4.52 30.408 4.696C30.88 4.872 31.292 5.128 31.644 5.464L31.212 6.46C30.828 6.132 30.452 5.896 30.084 5.752C29.724 5.608 29.304 5.536 28.824 5.536C27.912 5.536 27.216 5.816 26.736 6.376C26.256 6.936 26.016 7.732 26.016 8.764C26.016 9.796 26.256 10.596 26.736 11.164C27.216 11.724 27.912 12.004 28.824 12.004C29.304 12.004 29.724 11.932 30.084 11.788C30.452 11.644 30.828 11.404 31.212 11.068L31.644 12.064C31.292 12.4 30.88 12.66 30.408 12.844C29.936 13.02 29.4 13.108 28.8 13.108ZM35.1102 13.108C34.3822 13.108 33.8342 12.912 33.4662 12.52C33.1062 12.12 32.9262 11.508 32.9262 10.684V6.952H34.1382V10.66C34.1382 11.164 34.2422 11.536 34.4502 11.776C34.6582 12.016 34.9742 12.136 35.3982 12.136C35.8782 12.136 36.2662 11.976 36.5622 11.656C36.8582 11.336 37.0062 10.912 37.0062 10.384V6.952H38.2182V13H37.0422V11.704H37.1982C37.0302 12.152 36.7622 12.5 36.3942 12.748C36.0262 12.988 35.5982 13.108 35.1102 13.108ZM39.9695 13V8.452C39.9695 8.204 39.9615 7.956 39.9455 7.708C39.9375 7.452 39.9215 7.2 39.8975 6.952H41.0735L41.2055 8.512H41.0135C41.0935 8.136 41.2295 7.824 41.4215 7.576C41.6135 7.328 41.8455 7.144 42.1175 7.024C42.3975 6.904 42.6895 6.844 42.9935 6.844C43.1215 6.844 43.2295 6.852 43.3175 6.868C43.4055 6.876 43.4935 6.892 43.5815 6.916L43.5695 7.996C43.4335 7.94 43.3135 7.908 43.2095 7.9C43.1135 7.884 42.9935 7.876 42.8495 7.876C42.4975 7.876 42.1975 7.956 41.9495 8.116C41.7015 8.268 41.5135 8.476 41.3855 8.74C41.2575 9.004 41.1935 9.288 41.1935 9.592V13H39.9695ZM44.4929 13V8.452C44.4929 8.204 44.4849 7.956 44.4689 7.708C44.4609 7.452 44.4449 7.2 44.4209 6.952H45.5969L45.7289 8.512H45.5369C45.6169 8.136 45.7529 7.824 45.9449 7.576C46.1369 7.328 46.3689 7.144 46.6409 7.024C46.9209 6.904 47.2129 6.844 47.5169 6.844C47.6449 6.844 47.7529 6.852 47.8409 6.868C47.9289 6.876 48.0169 6.892 48.1049 6.916L48.0929 7.996C47.9569 7.94 47.8369 7.908 47.7329 7.9C47.6369 7.884 47.5169 7.876 47.3729 7.876C47.0209 7.876 46.7209 7.956 46.4729 8.116C46.2249 8.268 46.0369 8.476 45.9089 8.74C45.7809 9.004 45.7169 9.288 45.7169 9.592V13H44.4929ZM51.7543 13.108C50.7783 13.108 50.0103 12.832 49.4503 12.28C48.8903 11.728 48.6103 10.964 48.6103 9.988C48.6103 9.356 48.7303 8.804 48.9703 8.332C49.2183 7.86 49.5583 7.496 49.9903 7.24C50.4303 6.976 50.9383 6.844 51.5143 6.844C52.0823 6.844 52.5583 6.964 52.9423 7.204C53.3263 7.444 53.6183 7.784 53.8183 8.224C54.0183 8.656 54.1183 9.168 54.1183 9.76V10.144H49.5583V9.448H53.2903L53.0863 9.604C53.0863 9.004 52.9503 8.54 52.6783 8.212C52.4143 7.876 52.0303 7.708 51.5263 7.708C50.9663 7.708 50.5343 7.904 50.2303 8.296C49.9263 8.68 49.7743 9.212 49.7743 9.892V10.012C49.7743 10.724 49.9463 11.26 50.2903 11.62C50.6423 11.98 51.1383 12.16 51.7783 12.16C52.1303 12.16 52.4583 12.112 52.7623 12.016C53.0743 11.912 53.3703 11.744 53.6503 11.512L54.0463 12.34C53.7663 12.588 53.4263 12.78 53.0263 12.916C52.6263 13.044 52.2023 13.108 51.7543 13.108ZM55.5091 13V8.404C55.5091 8.172 55.4971 7.936 55.4731 7.696C55.4571 7.448 55.4371 7.2 55.4131 6.952H56.5891L56.6971 8.224H56.5531C56.7371 7.776 57.0211 7.436 57.4051 7.204C57.7891 6.964 58.2331 6.844 58.7371 6.844C59.4491 6.844 59.9851 7.04 60.3451 7.432C60.7131 7.824 60.8971 8.432 60.8971 9.256V13H59.6851V9.328C59.6851 8.792 59.5771 8.408 59.3611 8.176C59.1531 7.936 58.8331 7.816 58.4011 7.816C57.8891 7.816 57.4811 7.976 57.1771 8.296C56.8731 8.608 56.7211 9.032 56.7211 9.568V13H55.5091ZM65.2744 13.108C64.6664 13.108 64.1344 12.984 63.6784 12.736C63.2304 12.48 62.8824 12.116 62.6344 11.644C62.3944 11.164 62.2744 10.596 62.2744 9.94C62.2744 9.292 62.3984 8.736 62.6464 8.272C62.8944 7.808 63.2424 7.456 63.6904 7.216C64.1384 6.968 64.6664 6.844 65.2744 6.844C65.6664 6.844 66.0464 6.912 66.4144 7.048C66.7824 7.176 67.0864 7.36 67.3264 7.6L66.9304 8.452C66.7064 8.236 66.4544 8.076 66.1744 7.972C65.8944 7.86 65.6224 7.804 65.3584 7.804C64.7824 7.804 64.3304 7.988 64.0024 8.356C63.6744 8.724 63.5104 9.256 63.5104 9.952C63.5104 10.656 63.6744 11.196 64.0024 11.572C64.3304 11.948 64.7824 12.136 65.3584 12.136C65.6144 12.136 65.8824 12.088 66.1624 11.992C66.4424 11.888 66.6984 11.724 66.9304 11.5L67.3264 12.352C67.0784 12.592 66.7664 12.78 66.3904 12.916C66.0224 13.044 65.6504 13.108 65.2744 13.108ZM68.501 15.724L68.213 14.74C68.589 14.66 68.901 14.564 69.149 14.452C69.405 14.34 69.617 14.192 69.785 14.008C69.953 13.832 70.097 13.604 70.217 13.324L70.517 12.616L70.493 13.108L67.865 6.952H69.161L71.201 11.992H70.877L72.917 6.952H74.165L71.393 13.432C71.217 13.832 71.029 14.168 70.829 14.44C70.629 14.712 70.413 14.932 70.181 15.1C69.949 15.268 69.693 15.4 69.413 15.496C69.133 15.592 68.829 15.668 68.501 15.724Z" fill="#8E8E8E"/>
<path d="M215.996 9V0.539999H219.524C220.436 0.539999 221.136 0.732 221.624 1.116C222.12 1.5 222.368 2.04 222.368 2.736C222.368 3.256 222.212 3.692 221.9 4.044C221.588 4.396 221.16 4.632 220.616 4.752V4.572C221.24 4.652 221.724 4.872 222.068 5.232C222.412 5.592 222.584 6.068 222.584 6.66C222.584 7.412 222.328 7.992 221.816 8.4C221.312 8.8 220.6 9 219.68 9H215.996ZM217.208 8.028H219.548C220.116 8.028 220.56 7.92 220.88 7.704C221.208 7.488 221.372 7.124 221.372 6.612C221.372 6.1 221.208 5.736 220.88 5.52C220.56 5.304 220.116 5.196 219.548 5.196H217.208V8.028ZM217.208 4.236H219.332C219.94 4.236 220.396 4.12 220.7 3.888C221.004 3.656 221.156 3.316 221.156 2.868C221.156 2.42 221.004 2.08 220.7 1.848C220.396 1.616 219.94 1.5 219.332 1.5H217.208V4.236ZM226.251 9.108C225.523 9.108 224.975 8.912 224.607 8.52C224.247 8.12 224.067 7.508 224.067 6.684V2.952H225.279V6.66C225.279 7.164 225.383 7.536 225.591 7.776C225.799 8.016 226.115 8.136 226.539 8.136C227.019 8.136 227.407 7.976 227.703 7.656C227.999 7.336 228.147 6.912 228.147 6.384V2.952H229.359V9H228.183V7.704H228.339C228.171 8.152 227.903 8.5 227.535 8.748C227.167 8.988 226.739 9.108 226.251 9.108ZM230.954 11.724L230.666 10.74C231.042 10.66 231.354 10.564 231.602 10.452C231.858 10.34 232.07 10.192 232.238 10.008C232.406 9.832 232.55 9.604 232.67 9.324L232.97 8.616L232.946 9.108L230.318 2.952H231.614L233.654 7.992H233.33L235.37 2.952H236.618L233.846 9.432C233.67 9.832 233.482 10.168 233.282 10.44C233.082 10.712 232.866 10.932 232.634 11.1C232.402 11.268 232.146 11.4 231.866 11.496C231.586 11.592 231.282 11.668 230.954 11.724Z" fill="#8E8E8E"/>
<path d="M305.852 9.108C305.172 9.108 304.556 9.024 304.004 8.856C303.452 8.68 302.972 8.432 302.564 8.112L302.984 7.128C303.256 7.336 303.536 7.508 303.824 7.644C304.12 7.78 304.432 7.884 304.76 7.956C305.096 8.02 305.46 8.052 305.852 8.052C306.524 8.052 307.016 7.932 307.328 7.692C307.648 7.452 307.808 7.136 307.808 6.744C307.808 6.408 307.696 6.148 307.472 5.964C307.256 5.78 306.872 5.632 306.32 5.52L305.012 5.256C304.236 5.096 303.656 4.836 303.272 4.476C302.896 4.108 302.708 3.608 302.708 2.976C302.708 2.464 302.844 2.016 303.116 1.632C303.388 1.248 303.764 0.951999 304.244 0.744C304.732 0.536 305.3 0.431999 305.948 0.431999C306.548 0.431999 307.1 0.52 307.604 0.696C308.108 0.864 308.532 1.116 308.876 1.452L308.468 2.4C308.108 2.088 307.724 1.86 307.316 1.716C306.908 1.564 306.444 1.488 305.924 1.488C305.308 1.488 304.824 1.616 304.472 1.872C304.128 2.128 303.956 2.476 303.956 2.916C303.956 3.268 304.064 3.544 304.28 3.744C304.504 3.944 304.872 4.096 305.384 4.2L306.692 4.452C307.5 4.62 308.096 4.88 308.48 5.232C308.864 5.576 309.056 6.052 309.056 6.66C309.056 7.148 308.924 7.576 308.66 7.944C308.404 8.312 308.036 8.6 307.556 8.808C307.076 9.008 306.508 9.108 305.852 9.108ZM313.278 9.108C312.302 9.108 311.534 8.832 310.974 8.28C310.414 7.728 310.134 6.964 310.134 5.988C310.134 5.356 310.254 4.804 310.494 4.332C310.742 3.86 311.082 3.496 311.514 3.24C311.954 2.976 312.462 2.844 313.038 2.844C313.606 2.844 314.082 2.964 314.466 3.204C314.85 3.444 315.142 3.784 315.342 4.224C315.542 4.656 315.642 5.168 315.642 5.76V6.144H311.082V5.448H314.814L314.61 5.604C314.61 5.004 314.474 4.54 314.202 4.212C313.938 3.876 313.554 3.708 313.05 3.708C312.49 3.708 312.058 3.904 311.754 4.296C311.45 4.68 311.298 5.212 311.298 5.892V6.012C311.298 6.724 311.47 7.26 311.814 7.62C312.166 7.98 312.662 8.16 313.302 8.16C313.654 8.16 313.982 8.112 314.286 8.016C314.598 7.912 314.894 7.744 315.174 7.512L315.57 8.34C315.29 8.588 314.95 8.78 314.55 8.916C314.15 9.044 313.726 9.108 313.278 9.108ZM317.033 9V0.167999H318.245V9H317.033ZM320.021 9V0.167999H321.233V9H320.021Z" fill="#8E8E8E"/>
<path d="M25.488 52V40.72H26.48V52H25.488ZM29.2811 52V45.776C29.2811 45.488 29.2705 45.1947 29.2491 44.896C29.2278 44.5973 29.1958 44.2933 29.1531 43.984H30.1131L30.2571 45.824H30.0651C30.2998 45.184 30.6785 44.6933 31.2011 44.352C31.7238 44.0107 32.3318 43.84 33.0251 43.84C33.9745 43.84 34.6891 44.0907 35.1691 44.592C35.6598 45.0933 35.9051 45.8773 35.9051 46.944V52H34.9291V47.024C34.9291 46.2027 34.7638 45.6107 34.4331 45.248C34.1025 44.8747 33.5905 44.688 32.8971 44.688C32.0865 44.688 31.4411 44.9333 30.9611 45.424C30.4918 45.9147 30.2571 46.576 30.2571 47.408V52H29.2811ZM41.5551 52.128C40.8405 52.128 40.2165 51.9627 39.6831 51.632C39.1498 51.3013 38.7391 50.8267 38.4511 50.208C38.1631 49.5893 38.0191 48.848 38.0191 47.984C38.0191 47.12 38.1631 46.384 38.4511 45.776C38.7391 45.1573 39.1498 44.6827 39.6831 44.352C40.2165 44.0107 40.8405 43.84 41.5551 43.84C42.2911 43.84 42.9258 44.032 43.4591 44.416C44.0031 44.7893 44.3658 45.3067 44.5471 45.968H44.3551V40.224H45.3311V52H44.3711V49.984H44.5471C44.3658 50.656 44.0031 51.184 43.4591 51.568C42.9258 51.9413 42.2911 52.128 41.5551 52.128ZM41.6831 51.296C42.4938 51.296 43.1445 51.0133 43.6351 50.448C44.1365 49.8827 44.3871 49.0613 44.3871 47.984C44.3871 46.9067 44.1365 46.0853 43.6351 45.52C43.1445 44.9547 42.4938 44.672 41.6831 44.672C40.8725 44.672 40.2218 44.9547 39.7311 45.52C39.2511 46.0853 39.0111 46.9067 39.0111 47.984C39.0111 49.0613 39.2511 49.8827 39.7311 50.448C40.2218 51.0133 40.8725 51.296 41.6831 51.296ZM47.9843 52V43.984H48.9603V52H47.9843ZM47.8243 42.016V40.8H49.1363V42.016H47.8243ZM54.6649 52.128C53.9395 52.128 53.3102 51.9627 52.7769 51.632C52.2435 51.3013 51.8329 50.8267 51.5449 50.208C51.2569 49.5893 51.1129 48.848 51.1129 47.984C51.1129 47.12 51.2569 46.384 51.5449 45.776C51.8435 45.1573 52.2595 44.6827 52.7929 44.352C53.3262 44.0107 53.9502 43.84 54.6649 43.84C55.4009 43.84 56.0355 44.032 56.5689 44.416C57.1129 44.8 57.4702 45.3227 57.6409 45.984H57.4489L57.6089 43.984H58.5529C58.5209 44.2933 58.4889 44.5973 58.4569 44.896C58.4355 45.1947 58.4249 45.488 58.4249 45.776V52H57.4489V50H57.6249C57.4542 50.6613 57.0969 51.184 56.5529 51.568C56.0195 51.9413 55.3902 52.128 54.6649 52.128ZM54.7929 51.296C55.6142 51.296 56.2649 51.0133 56.7449 50.448C57.2249 49.8827 57.4649 49.0613 57.4649 47.984C57.4649 46.9067 57.2249 46.0853 56.7449 45.52C56.2649 44.9547 55.6142 44.672 54.7929 44.672C53.9715 44.672 53.3155 44.9547 52.8249 45.52C52.3449 46.0853 52.1049 46.9067 52.1049 47.984C52.1049 49.0613 52.3449 49.8827 52.8249 50.448C53.3155 51.0133 53.9715 51.296 54.7929 51.296ZM61.078 52V45.776C61.078 45.488 61.0673 45.1947 61.046 44.896C61.0247 44.5973 60.9927 44.2933 60.95 43.984H61.91L62.054 45.824H61.862C62.0967 45.184 62.4753 44.6933 62.998 44.352C63.5207 44.0107 64.1287 43.84 64.822 43.84C65.7713 43.84 66.486 44.0907 66.966 44.592C67.4567 45.0933 67.702 45.8773 67.702 46.944V52H66.726V47.024C66.726 46.2027 66.5607 45.6107 66.23 45.248C65.8993 44.8747 65.3873 44.688 64.694 44.688C63.8833 44.688 63.238 44.9333 62.758 45.424C62.2887 45.9147 62.054 46.576 62.054 47.408V52H61.078ZM74.5661 52V40.72H79.0141C80.1768 40.72 81.0781 40.992 81.7181 41.536C82.3581 42.08 82.6781 42.848 82.6781 43.84C82.6781 44.48 82.5341 45.0293 82.2461 45.488C81.9581 45.936 81.5581 46.2827 81.0461 46.528C80.5341 46.7627 79.9421 46.88 79.2701 46.88L79.5741 46.704H79.7981C80.2355 46.704 80.6248 46.8107 80.9661 47.024C81.3075 47.2267 81.5795 47.5787 81.7821 48.08L83.3501 52H82.2621L80.7901 48.256C80.5875 47.712 80.2941 47.3653 79.9101 47.216C79.5261 47.056 79.0355 46.976 78.4381 46.976H75.5581V52H74.5661ZM75.5581 46.144H78.8861C79.7928 46.144 80.4808 45.9467 80.9501 45.552C81.4301 45.1573 81.6701 44.592 81.6701 43.856C81.6701 43.1093 81.4301 42.544 80.9501 42.16C80.4808 41.7653 79.7928 41.568 78.8861 41.568H75.5581V46.144ZM88.2378 52.128C87.2991 52.128 86.5844 51.8773 86.0938 51.376C85.6138 50.864 85.3738 50.08 85.3738 49.024V43.984H86.3498V48.96C86.3498 49.7707 86.5151 50.3627 86.8458 50.736C87.1764 51.1093 87.6831 51.296 88.3658 51.296C89.1231 51.296 89.7311 51.0507 90.1898 50.56C90.6591 50.0587 90.8938 49.3973 90.8938 48.576V43.984H91.8698V52H90.9098V50.112H91.1178C90.8938 50.7627 90.5258 51.264 90.0138 51.616C89.5124 51.9573 88.9204 52.128 88.2378 52.128ZM94.5311 55.456V45.776C94.5311 45.488 94.5205 45.1947 94.4991 44.896C94.4778 44.5973 94.4458 44.2933 94.4031 43.984H95.3631L95.5231 45.984H95.3311C95.5125 45.3227 95.8645 44.8 96.3871 44.416C96.9098 44.032 97.5445 43.84 98.2911 43.84C99.0165 43.84 99.6405 44.0107 100.163 44.352C100.696 44.6827 101.112 45.1573 101.411 45.776C101.71 46.384 101.859 47.12 101.859 47.984C101.859 48.848 101.71 49.5893 101.411 50.208C101.123 50.8267 100.712 51.3013 100.179 51.632C99.6458 51.9627 99.0165 52.128 98.2911 52.128C97.5551 52.128 96.9205 51.9413 96.3871 51.568C95.8645 51.184 95.5125 50.6613 95.3311 50H95.5071V55.456H94.5311ZM98.1631 51.296C98.9845 51.296 99.6405 51.0133 100.131 50.448C100.622 49.8827 100.867 49.0613 100.867 47.984C100.867 46.9067 100.622 46.0853 100.131 45.52C99.6405 44.9547 98.9845 44.672 98.1631 44.672C97.3525 44.672 96.7018 44.9547 96.2111 45.52C95.7311 46.0853 95.4911 46.9067 95.4911 47.984C95.4911 49.0613 95.7311 49.8827 96.2111 50.448C96.7018 51.0133 97.3525 51.296 98.1631 51.296ZM107.424 52.128C106.208 52.128 105.243 51.7653 104.528 51.04C103.824 50.3147 103.472 49.3067 103.472 48.016C103.472 47.1627 103.627 46.4267 103.936 45.808C104.256 45.1893 104.699 44.7093 105.264 44.368C105.83 44.016 106.486 43.84 107.232 43.84C107.947 43.84 108.55 43.9947 109.04 44.304C109.531 44.6027 109.91 45.0347 110.176 45.6C110.443 46.1547 110.576 46.816 110.576 47.584V48.032H104.176V47.328H109.968L109.696 47.536C109.696 46.6293 109.488 45.92 109.072 45.408C108.656 44.8853 108.038 44.624 107.216 44.624C106.342 44.624 105.659 44.928 105.168 45.536C104.678 46.1333 104.432 46.928 104.432 47.92V48.032C104.432 49.0987 104.694 49.9093 105.216 50.464C105.75 51.0187 106.491 51.296 107.44 51.296C107.931 51.296 108.39 51.2213 108.816 51.072C109.243 50.9227 109.654 50.6667 110.048 50.304L110.448 51.024C110.107 51.376 109.664 51.648 109.12 51.84C108.576 52.032 108.011 52.128 107.424 52.128ZM116.112 52.128C114.896 52.128 113.93 51.7653 113.216 51.04C112.512 50.3147 112.16 49.3067 112.16 48.016C112.16 47.1627 112.314 46.4267 112.624 45.808C112.944 45.1893 113.386 44.7093 113.952 44.368C114.517 44.016 115.173 43.84 115.92 43.84C116.634 43.84 117.237 43.9947 117.728 44.304C118.218 44.6027 118.597 45.0347 118.864 45.6C119.13 46.1547 119.264 46.816 119.264 47.584V48.032H112.864V47.328H118.656L118.384 47.536C118.384 46.6293 118.176 45.92 117.76 45.408C117.344 44.8853 116.725 44.624 115.904 44.624C115.029 44.624 114.346 44.928 113.856 45.536C113.365 46.1333 113.12 46.928 113.12 47.92V48.032C113.12 49.0987 113.381 49.9093 113.904 50.464C114.437 51.0187 115.178 51.296 116.128 51.296C116.618 51.296 117.077 51.2213 117.504 51.072C117.93 50.9227 118.341 50.6667 118.736 50.304L119.136 51.024C118.794 51.376 118.352 51.648 117.808 51.84C117.264 52.032 116.698 52.128 116.112 52.128ZM123.951 52.128C123.333 52.128 122.751 52.0373 122.207 51.856C121.674 51.6747 121.231 51.424 120.879 51.104L121.263 50.384C121.658 50.704 122.085 50.944 122.543 51.104C123.002 51.2533 123.482 51.328 123.983 51.328C124.666 51.328 125.183 51.2 125.535 50.944C125.887 50.688 126.063 50.3413 126.063 49.904C126.063 49.5627 125.951 49.2853 125.727 49.072C125.503 48.8587 125.13 48.6987 124.607 48.592L123.167 48.288C122.485 48.128 121.973 47.872 121.631 47.52C121.301 47.168 121.135 46.7253 121.135 46.192C121.135 45.7333 121.253 45.328 121.487 44.976C121.733 44.624 122.079 44.3467 122.527 44.144C122.975 43.9413 123.503 43.84 124.111 43.84C124.687 43.84 125.215 43.936 125.695 44.128C126.186 44.3093 126.586 44.5707 126.895 44.912L126.479 45.616C126.159 45.296 125.797 45.056 125.391 44.896C124.997 44.736 124.575 44.656 124.127 44.656C123.466 44.656 122.965 44.7947 122.623 45.072C122.282 45.3387 122.111 45.696 122.111 46.144C122.111 46.4853 122.218 46.768 122.431 46.992C122.645 47.2053 122.981 47.3653 123.439 47.472L124.879 47.792C125.605 47.952 126.143 48.1973 126.495 48.528C126.847 48.8587 127.023 49.296 127.023 49.84C127.023 50.3093 126.895 50.72 126.639 51.072C126.383 51.4133 126.026 51.6747 125.567 51.856C125.109 52.0373 124.57 52.128 123.951 52.128Z" fill="#8E8E8E"/>
<path d="M28.272 97V91.752L28.512 92.504L23.92 85.72H25.072L28.944 91.56H28.656L32.528 85.72H33.632L29.04 92.504L29.264 91.752V97H28.272ZM37.0805 97.128C35.8645 97.128 34.8992 96.7653 34.1845 96.04C33.4805 95.3147 33.1285 94.3067 33.1285 93.016C33.1285 92.1627 33.2832 91.4267 33.5925 90.808C33.9125 90.1893 34.3552 89.7093 34.9205 89.368C35.4858 89.016 36.1418 88.84 36.8885 88.84C37.6032 88.84 38.2058 88.9947 38.6965 89.304C39.1872 89.6027 39.5658 90.0347 39.8325 90.6C40.0992 91.1547 40.2325 91.816 40.2325 92.584V93.032H33.8325V92.328H39.6245L39.3525 92.536C39.3525 91.6293 39.1445 90.92 38.7285 90.408C38.3125 89.8853 37.6938 89.624 36.8725 89.624C35.9978 89.624 35.3152 89.928 34.8245 90.536C34.3338 91.1333 34.0885 91.928 34.0885 92.92V93.032C34.0885 94.0987 34.3498 94.9093 34.8725 95.464C35.4058 96.0187 36.1472 96.296 37.0965 96.296C37.5872 96.296 38.0458 96.2213 38.4725 96.072C38.8992 95.9227 39.3098 95.6667 39.7045 95.304L40.1045 96.024C39.7632 96.376 39.3205 96.648 38.7765 96.84C38.2325 97.032 37.6672 97.128 37.0805 97.128ZM42.328 97V90.776C42.328 90.488 42.3173 90.1947 42.296 89.896C42.2747 89.5973 42.2427 89.2933 42.2 88.984H43.16L43.304 90.824H43.112C43.3467 90.184 43.7253 89.6933 44.248 89.352C44.7707 89.0107 45.3787 88.84 46.072 88.84C47.0213 88.84 47.736 89.0907 48.216 89.592C48.7067 90.0933 48.952 90.8773 48.952 91.944V97H47.976V92.024C47.976 91.2027 47.8107 90.6107 47.48 90.248C47.1493 89.8747 46.6373 89.688 45.944 89.688C45.1333 89.688 44.488 89.9333 44.008 90.424C43.5387 90.9147 43.304 91.576 43.304 92.408V97H42.328Z" fill="#8E8E8E"/>
<path d="M28.512 142L24.608 130.72H25.648L29.264 141.296H28.736L32.496 130.72H33.328L36.912 141.296H36.432L40.128 130.72H41.12L37.168 142H36.224L32.752 131.728H33.072L29.424 142H28.512ZM45.3241 142.128C44.5668 142.128 43.9108 141.963 43.3561 141.632C42.8121 141.301 42.3908 140.827 42.0921 140.208C41.7935 139.589 41.6441 138.848 41.6441 137.984C41.6441 137.131 41.7935 136.395 42.0921 135.776C42.3908 135.157 42.8121 134.683 43.3561 134.352C43.9108 134.011 44.5668 133.84 45.3241 133.84C46.0708 133.84 46.7161 134.011 47.2601 134.352C47.8148 134.683 48.2415 135.157 48.5401 135.776C48.8495 136.395 49.0041 137.131 49.0041 137.984C49.0041 138.848 48.8495 139.589 48.5401 140.208C48.2415 140.827 47.8148 141.301 47.2601 141.632C46.7161 141.963 46.0708 142.128 45.3241 142.128ZM45.3241 141.296C46.1348 141.296 46.7855 141.013 47.2761 140.448C47.7668 139.883 48.0121 139.061 48.0121 137.984C48.0121 136.907 47.7668 136.085 47.2761 135.52C46.7855 134.955 46.1348 134.672 45.3241 134.672C44.5028 134.672 43.8468 134.955 43.3561 135.52C42.8761 136.085 42.6361 136.907 42.6361 137.984C42.6361 139.061 42.8761 139.883 43.3561 140.448C43.8468 141.013 44.5028 141.296 45.3241 141.296ZM51.1405 142V135.776C51.1405 135.488 51.1298 135.195 51.1085 134.896C51.0872 134.597 51.0552 134.293 51.0125 133.984H51.9725L52.1165 135.824H51.9245C52.1592 135.184 52.5378 134.693 53.0605 134.352C53.5832 134.011 54.1912 133.84 54.8845 133.84C55.8338 133.84 56.5485 134.091 57.0285 134.592C57.5192 135.093 57.7645 135.877 57.7645 136.944V142H56.7885V137.024C56.7885 136.203 56.6232 135.611 56.2925 135.248C55.9618 134.875 55.4498 134.688 54.7565 134.688C53.9458 134.688 53.3005 134.933 52.8205 135.424C52.3512 135.915 52.1165 136.576 52.1165 137.408V142H51.1405Z" fill="#8E8E8E"/>
<path d="M25.488 187V175.72H29.936C31.0987 175.72 32 175.992 32.64 176.536C33.28 177.08 33.6 177.848 33.6 178.84C33.6 179.48 33.456 180.029 33.168 180.488C32.88 180.936 32.48 181.283 31.968 181.528C31.456 181.763 30.864 181.88 30.192 181.88L30.496 181.704H30.72C31.1573 181.704 31.5467 181.811 31.888 182.024C32.2293 182.227 32.5013 182.579 32.704 183.08L34.272 187H33.184L31.712 183.256C31.5093 182.712 31.216 182.365 30.832 182.216C30.448 182.056 29.9573 181.976 29.36 181.976H26.48V187H25.488ZM26.48 181.144H29.808C30.7147 181.144 31.4027 180.947 31.872 180.552C32.352 180.157 32.592 179.592 32.592 178.856C32.592 178.109 32.352 177.544 31.872 177.16C31.4027 176.765 30.7147 176.568 29.808 176.568H26.48V181.144ZM36.3436 187V178.984H37.3196V187H36.3436ZM36.1836 177.016V175.8H37.4956V177.016H36.1836ZM39.6163 190.632L39.3763 189.784C39.8776 189.667 40.2936 189.523 40.6243 189.352C40.9549 189.192 41.2323 188.979 41.4563 188.712C41.6803 188.445 41.8776 188.115 42.0483 187.72L42.4643 186.76L42.4483 187.192L38.9443 178.984H40.0323L43.0883 186.392H42.6883L45.7123 178.984H46.7683L43.0563 187.768C42.8536 188.259 42.6296 188.664 42.3843 188.984C42.1496 189.315 41.8936 189.587 41.6163 189.8C41.3389 190.024 41.0349 190.2 40.7043 190.328C40.3736 190.456 40.0109 190.557 39.6163 190.632ZM51.2743 187.128C50.5489 187.128 49.9196 186.963 49.3863 186.632C48.8529 186.301 48.4423 185.827 48.1543 185.208C47.8663 184.589 47.7223 183.848 47.7223 182.984C47.7223 182.12 47.8663 181.384 48.1543 180.776C48.4529 180.157 48.8689 179.683 49.4023 179.352C49.9356 179.011 50.5596 178.84 51.2743 178.84C52.0103 178.84 52.6449 179.032 53.1783 179.416C53.7223 179.8 54.0796 180.323 54.2503 180.984H54.0583L54.2183 178.984H55.1623C55.1303 179.293 55.0983 179.597 55.0663 179.896C55.0449 180.195 55.0343 180.488 55.0343 180.776V187H54.0583V185H54.2343C54.0636 185.661 53.7063 186.184 53.1623 186.568C52.6289 186.941 51.9996 187.128 51.2743 187.128ZM51.4023 186.296C52.2236 186.296 52.8743 186.013 53.3543 185.448C53.8343 184.883 54.0743 184.061 54.0743 182.984C54.0743 181.907 53.8343 181.085 53.3543 180.52C52.8743 179.955 52.2236 179.672 51.4023 179.672C50.5809 179.672 49.9249 179.955 49.4343 180.52C48.9543 181.085 48.7143 181.907 48.7143 182.984C48.7143 184.061 48.9543 184.883 49.4343 185.448C49.9249 186.013 50.5809 186.296 51.4023 186.296ZM57.6874 187V175.224H58.6634V187H57.6874Z" fill="#8E8E8E"/>
<path d="M30.24 232.128C29.1307 232.128 28.1867 231.899 27.408 231.44C26.64 230.971 26.0533 230.304 25.648 229.44C25.2427 228.576 25.04 227.547 25.04 226.352C25.04 225.157 25.2427 224.133 25.648 223.28C26.0533 222.416 26.64 221.755 27.408 221.296C28.1867 220.827 29.1307 220.592 30.24 220.592C31.0507 220.592 31.7707 220.72 32.4 220.976C33.0293 221.221 33.5787 221.589 34.048 222.08L33.632 222.88C33.1093 222.4 32.5867 222.053 32.064 221.84C31.5413 221.616 30.9333 221.504 30.24 221.504C28.8853 221.504 27.856 221.931 27.152 222.784C26.448 223.627 26.096 224.816 26.096 226.352C26.096 227.888 26.448 229.083 27.152 229.936C27.856 230.789 28.8853 231.216 30.24 231.216C30.9333 231.216 31.5413 231.109 32.064 230.896C32.5867 230.672 33.1093 230.32 33.632 229.84L34.048 230.64C33.5787 231.131 33.024 231.504 32.384 231.76C31.7547 232.005 31.04 232.128 30.24 232.128ZM39.0555 232.128C38.3302 232.128 37.7008 231.963 37.1675 231.632C36.6342 231.301 36.2235 230.827 35.9355 230.208C35.6475 229.589 35.5035 228.848 35.5035 227.984C35.5035 227.12 35.6475 226.384 35.9355 225.776C36.2342 225.157 36.6502 224.683 37.1835 224.352C37.7168 224.011 38.3408 223.84 39.0555 223.84C39.7915 223.84 40.4262 224.032 40.9595 224.416C41.5035 224.8 41.8608 225.323 42.0315 225.984H41.8395L41.9995 223.984H42.9435C42.9115 224.293 42.8795 224.597 42.8475 224.896C42.8262 225.195 42.8155 225.488 42.8155 225.776V232H41.8395V230H42.0155C41.8448 230.661 41.4875 231.184 40.9435 231.568C40.4102 231.941 39.7808 232.128 39.0555 232.128ZM39.1835 231.296C40.0048 231.296 40.6555 231.013 41.1355 230.448C41.6155 229.883 41.8555 229.061 41.8555 227.984C41.8555 226.907 41.6155 226.085 41.1355 225.52C40.6555 224.955 40.0048 224.672 39.1835 224.672C38.3622 224.672 37.7062 224.955 37.2155 225.52C36.7355 226.085 36.4955 226.907 36.4955 227.984C36.4955 229.061 36.7355 229.883 37.2155 230.448C37.7062 231.013 38.3622 231.296 39.1835 231.296ZM45.4686 232V225.776C45.4686 225.488 45.458 225.195 45.4366 224.896C45.4153 224.597 45.3833 224.293 45.3406 223.984H46.3006L46.4446 225.824H46.2526C46.4873 225.184 46.866 224.693 47.3886 224.352C47.9113 224.011 48.5193 223.84 49.2126 223.84C50.162 223.84 50.8766 224.091 51.3566 224.592C51.8473 225.093 52.0926 225.877 52.0926 226.944V232H51.1166V227.024C51.1166 226.203 50.9513 225.611 50.6206 225.248C50.29 224.875 49.778 224.688 49.0846 224.688C48.274 224.688 47.6286 224.933 47.1486 225.424C46.6793 225.915 46.4446 226.576 46.4446 227.408V232H45.4686ZM57.7586 232.128C57.0333 232.128 56.404 231.963 55.8706 231.632C55.3373 231.301 54.9266 230.827 54.6386 230.208C54.3506 229.589 54.2066 228.848 54.2066 227.984C54.2066 227.12 54.3506 226.384 54.6386 225.776C54.9373 225.157 55.3533 224.683 55.8866 224.352C56.42 224.011 57.044 223.84 57.7586 223.84C58.4946 223.84 59.1293 224.032 59.6626 224.416C60.2066 224.8 60.564 225.323 60.7346 225.984H60.5426L60.7026 223.984H61.6466C61.6146 224.293 61.5826 224.597 61.5506 224.896C61.5293 225.195 61.5186 225.488 61.5186 225.776V232H60.5426V230H60.7186C60.548 230.661 60.1906 231.184 59.6466 231.568C59.1133 231.941 58.484 232.128 57.7586 232.128ZM57.8866 231.296C58.708 231.296 59.3586 231.013 59.8386 230.448C60.3186 229.883 60.5586 229.061 60.5586 227.984C60.5586 226.907 60.3186 226.085 59.8386 225.52C59.3586 224.955 58.708 224.672 57.8866 224.672C57.0653 224.672 56.4093 224.955 55.9186 225.52C55.4386 226.085 55.1986 226.907 55.1986 227.984C55.1986 229.061 55.4386 229.883 55.9186 230.448C56.4093 231.013 57.0653 231.296 57.8866 231.296ZM67.1958 232.128C66.4811 232.128 65.8571 231.963 65.3238 231.632C64.7904 231.301 64.3798 230.827 64.0918 230.208C63.8038 229.589 63.6598 228.848 63.6598 227.984C63.6598 227.12 63.8038 226.384 64.0918 225.776C64.3798 225.157 64.7904 224.683 65.3238 224.352C65.8571 224.011 66.4811 223.84 67.1958 223.84C67.9318 223.84 68.5664 224.032 69.0998 224.416C69.6438 224.789 70.0064 225.307 70.1878 225.968H69.9958V220.224H70.9718V232H70.0118V229.984H70.1878C70.0064 230.656 69.6438 231.184 69.0998 231.568C68.5664 231.941 67.9318 232.128 67.1958 232.128ZM67.3238 231.296C68.1344 231.296 68.7851 231.013 69.2758 230.448C69.7771 229.883 70.0278 229.061 70.0278 227.984C70.0278 226.907 69.7771 226.085 69.2758 225.52C68.7851 224.955 68.1344 224.672 67.3238 224.672C66.5131 224.672 65.8624 224.955 65.3718 225.52C64.8918 226.085 64.6518 226.907 64.6518 227.984C64.6518 229.061 64.8918 229.883 65.3718 230.448C65.8624 231.013 66.5131 231.296 67.3238 231.296ZM73.6249 232V223.984H74.6009V232H73.6249ZM73.4649 222.016V220.8H74.7769V222.016H73.4649ZM80.3055 232.128C79.5802 232.128 78.9508 231.963 78.4175 231.632C77.8842 231.301 77.4735 230.827 77.1855 230.208C76.8975 229.589 76.7535 228.848 76.7535 227.984C76.7535 227.12 76.8975 226.384 77.1855 225.776C77.4842 225.157 77.9002 224.683 78.4335 224.352C78.9668 224.011 79.5908 223.84 80.3055 223.84C81.0415 223.84 81.6762 224.032 82.2095 224.416C82.7535 224.8 83.1108 225.323 83.2815 225.984H83.0895L83.2495 223.984H84.1935C84.1615 224.293 84.1295 224.597 84.0975 224.896C84.0762 225.195 84.0655 225.488 84.0655 225.776V232H83.0895V230H83.2655C83.0948 230.661 82.7375 231.184 82.1935 231.568C81.6602 231.941 81.0308 232.128 80.3055 232.128ZM80.4335 231.296C81.2548 231.296 81.9055 231.013 82.3855 230.448C82.8655 229.883 83.1055 229.061 83.1055 227.984C83.1055 226.907 82.8655 226.085 82.3855 225.52C81.9055 224.955 81.2548 224.672 80.4335 224.672C79.6122 224.672 78.9562 224.955 78.4655 225.52C77.9855 226.085 77.7455 226.907 77.7455 227.984C77.7455 229.061 77.9855 229.883 78.4655 230.448C78.9562 231.013 79.6122 231.296 80.4335 231.296ZM86.7186 232V225.776C86.7186 225.488 86.708 225.195 86.6866 224.896C86.6653 224.597 86.6333 224.293 86.5906 223.984H87.5506L87.6946 225.824H87.5026C87.7373 225.184 88.116 224.693 88.6386 224.352C89.1613 224.011 89.7693 223.84 90.4626 223.84C91.412 223.84 92.1266 224.091 92.6066 224.592C93.0973 225.093 93.3426 225.877 93.3426 226.944V232H92.3666V227.024C92.3666 226.203 92.2013 225.611 91.8706 225.248C91.54 224.875 91.028 224.688 90.3346 224.688C89.524 224.688 88.8786 224.933 88.3986 225.424C87.9293 225.915 87.6946 226.576 87.6946 227.408V232H86.7186ZM100.207 232V220.72H103.775C105.012 220.72 106.057 220.939 106.911 221.376C107.764 221.803 108.409 222.437 108.847 223.28C109.295 224.112 109.519 225.136 109.519 226.352C109.519 227.568 109.295 228.597 108.847 229.44C108.409 230.283 107.764 230.923 106.911 231.36C106.057 231.787 105.012 232 103.775 232H100.207ZM101.199 231.12H103.695C105.305 231.12 106.505 230.725 107.295 229.936C108.084 229.136 108.479 227.941 108.479 226.352C108.479 224.752 108.084 223.557 107.295 222.768C106.505 221.979 105.305 221.584 103.695 221.584H101.199V231.12ZM115.059 232.128C114.301 232.128 113.645 231.963 113.091 231.632C112.547 231.301 112.125 230.827 111.827 230.208C111.528 229.589 111.379 228.848 111.379 227.984C111.379 227.131 111.528 226.395 111.827 225.776C112.125 225.157 112.547 224.683 113.091 224.352C113.645 224.011 114.301 223.84 115.059 223.84C115.805 223.84 116.451 224.011 116.995 224.352C117.549 224.683 117.976 225.157 118.275 225.776C118.584 226.395 118.739 227.131 118.739 227.984C118.739 228.848 118.584 229.589 118.275 230.208C117.976 230.827 117.549 231.301 116.995 231.632C116.451 231.963 115.805 232.128 115.059 232.128ZM115.059 231.296C115.869 231.296 116.52 231.013 117.011 230.448C117.501 229.883 117.747 229.061 117.747 227.984C117.747 226.907 117.501 226.085 117.011 225.52C116.52 224.955 115.869 224.672 115.059 224.672C114.237 224.672 113.581 224.955 113.091 225.52C112.611 226.085 112.371 226.907 112.371 227.984C112.371 229.061 112.611 229.883 113.091 230.448C113.581 231.013 114.237 231.296 115.059 231.296ZM120.875 232V220.224H121.851V232H120.875ZM124.516 232V220.224H125.492V232H124.516ZM131.196 232.128C130.471 232.128 129.841 231.963 129.308 231.632C128.775 231.301 128.364 230.827 128.076 230.208C127.788 229.589 127.644 228.848 127.644 227.984C127.644 227.12 127.788 226.384 128.076 225.776C128.375 225.157 128.791 224.683 129.324 224.352C129.857 224.011 130.481 223.84 131.196 223.84C131.932 223.84 132.567 224.032 133.1 224.416C133.644 224.8 134.001 225.323 134.172 225.984H133.98L134.14 223.984H135.084C135.052 224.293 135.02 224.597 134.988 224.896C134.967 225.195 134.956 225.488 134.956 225.776V232H133.98V230H134.156C133.985 230.661 133.628 231.184 133.084 231.568C132.551 231.941 131.921 232.128 131.196 232.128ZM131.324 231.296C132.145 231.296 132.796 231.013 133.276 230.448C133.756 229.883 133.996 229.061 133.996 227.984C133.996 226.907 133.756 226.085 133.276 225.52C132.796 224.955 132.145 224.672 131.324 224.672C130.503 224.672 129.847 224.955 129.356 225.52C128.876 226.085 128.636 226.907 128.636 227.984C128.636 229.061 128.876 229.883 129.356 230.448C129.847 231.013 130.503 231.296 131.324 231.296ZM137.593 232V225.856C137.593 225.547 137.583 225.237 137.561 224.928C137.551 224.608 137.524 224.293 137.481 223.984H138.441L138.569 225.824L138.377 225.84C138.484 225.392 138.676 225.024 138.953 224.736C139.231 224.437 139.551 224.213 139.913 224.064C140.276 223.915 140.649 223.84 141.033 223.84C141.172 223.84 141.3 223.851 141.417 223.872C141.545 223.883 141.663 223.904 141.769 223.936L141.737 224.816C141.609 224.773 141.481 224.747 141.353 224.736C141.225 224.725 141.087 224.72 140.937 224.72C140.457 224.72 140.036 224.837 139.673 225.072C139.321 225.307 139.049 225.605 138.857 225.968C138.665 226.331 138.569 226.699 138.569 227.072V232H137.593Z" fill="#8E8E8E"/>
<path d="M24.416 277L29.328 265.72H30.224L35.216 277H34.176L32.768 273.752L33.232 273.992H26.288L26.832 273.752L25.456 277H24.416ZM29.76 266.92L27.024 273.336L26.656 273.144H32.864L32.592 273.336L29.792 266.92H29.76ZM39.7846 277.128C38.846 277.128 38.1313 276.877 37.6406 276.376C37.1606 275.864 36.9206 275.08 36.9206 274.024V268.984H37.8966V273.96C37.8966 274.771 38.062 275.363 38.3926 275.736C38.7233 276.109 39.23 276.296 39.9126 276.296C40.67 276.296 41.278 276.051 41.7366 275.56C42.206 275.059 42.4406 274.397 42.4406 273.576V268.984H43.4166V277H42.4566V275.112H42.6646C42.4406 275.763 42.0726 276.264 41.5606 276.616C41.0593 276.957 40.4673 277.128 39.7846 277.128ZM48.67 277.128C48.0513 277.128 47.47 277.037 46.926 276.856C46.3927 276.675 45.95 276.424 45.598 276.104L45.982 275.384C46.3767 275.704 46.8033 275.944 47.262 276.104C47.7207 276.253 48.2007 276.328 48.702 276.328C49.3847 276.328 49.902 276.2 50.254 275.944C50.606 275.688 50.782 275.341 50.782 274.904C50.782 274.563 50.67 274.285 50.446 274.072C50.222 273.859 49.8487 273.699 49.326 273.592L47.886 273.288C47.2033 273.128 46.6913 272.872 46.35 272.52C46.0193 272.168 45.854 271.725 45.854 271.192C45.854 270.733 45.9713 270.328 46.206 269.976C46.4513 269.624 46.798 269.347 47.246 269.144C47.694 268.941 48.222 268.84 48.83 268.84C49.406 268.84 49.934 268.936 50.414 269.128C50.9047 269.309 51.3047 269.571 51.614 269.912L51.198 270.616C50.878 270.296 50.5153 270.056 50.11 269.896C49.7153 269.736 49.294 269.656 48.846 269.656C48.1847 269.656 47.6833 269.795 47.342 270.072C47.0007 270.339 46.83 270.696 46.83 271.144C46.83 271.485 46.9367 271.768 47.15 271.992C47.3633 272.205 47.6993 272.365 48.158 272.472L49.598 272.792C50.3233 272.952 50.862 273.197 51.214 273.528C51.566 273.859 51.742 274.296 51.742 274.84C51.742 275.309 51.614 275.72 51.358 276.072C51.102 276.413 50.7447 276.675 50.286 276.856C49.8273 277.037 49.2887 277.128 48.67 277.128ZM56.4981 277.128C55.7835 277.128 55.2341 276.915 54.8501 276.488C54.4768 276.061 54.2901 275.405 54.2901 274.52V269.768H52.6901V268.984H54.2901V266.744L55.2661 266.424V268.984H57.6341V269.768H55.2661V274.376C55.2661 275.048 55.3728 275.533 55.5861 275.832C55.7995 276.131 56.1408 276.28 56.6101 276.28C56.8235 276.28 57.0101 276.259 57.1701 276.216C57.3408 276.173 57.4848 276.125 57.6021 276.072V276.936C57.4741 276.989 57.3088 277.032 57.1061 277.064C56.9035 277.107 56.7008 277.128 56.4981 277.128ZM59.2808 277V270.856C59.2808 270.547 59.2701 270.237 59.2488 269.928C59.2381 269.608 59.2114 269.293 59.1688 268.984H60.1288L60.2568 270.824L60.0648 270.84C60.1714 270.392 60.3634 270.024 60.6408 269.736C60.9181 269.437 61.2381 269.213 61.6008 269.064C61.9634 268.915 62.3368 268.84 62.7208 268.84C62.8594 268.84 62.9874 268.851 63.1048 268.872C63.2328 268.883 63.3501 268.904 63.4568 268.936L63.4248 269.816C63.2968 269.773 63.1688 269.747 63.0408 269.736C62.9128 269.725 62.7741 269.72 62.6248 269.72C62.1448 269.72 61.7234 269.837 61.3608 270.072C61.0088 270.307 60.7368 270.605 60.5448 270.968C60.3528 271.331 60.2568 271.699 60.2568 272.072V277H59.2808ZM67.8368 277.128C67.1114 277.128 66.4821 276.963 65.9488 276.632C65.4154 276.301 65.0048 275.827 64.7168 275.208C64.4288 274.589 64.2848 273.848 64.2848 272.984C64.2848 272.12 64.4288 271.384 64.7168 270.776C65.0154 270.157 65.4314 269.683 65.9648 269.352C66.4981 269.011 67.1221 268.84 67.8368 268.84C68.5728 268.84 69.2074 269.032 69.7408 269.416C70.2848 269.8 70.6421 270.323 70.8128 270.984H70.6208L70.7808 268.984H71.7248C71.6928 269.293 71.6608 269.597 71.6288 269.896C71.6074 270.195 71.5968 270.488 71.5968 270.776V277H70.6208V275H70.7968C70.6261 275.661 70.2688 276.184 69.7248 276.568C69.1914 276.941 68.5621 277.128 67.8368 277.128ZM67.9648 276.296C68.7861 276.296 69.4368 276.013 69.9168 275.448C70.3968 274.883 70.6368 274.061 70.6368 272.984C70.6368 271.907 70.3968 271.085 69.9168 270.52C69.4368 269.955 68.7861 269.672 67.9648 269.672C67.1434 269.672 66.4874 269.955 65.9968 270.52C65.5168 271.085 65.2768 271.907 65.2768 272.984C65.2768 274.061 65.5168 274.883 65.9968 275.448C66.4874 276.013 67.1434 276.296 67.9648 276.296ZM74.2499 277V265.224H75.2259V277H74.2499ZM77.8905 277V268.984H78.8665V277H77.8905ZM77.7305 267.016V265.8H79.0425V267.016H77.7305ZM84.5711 277.128C83.8458 277.128 83.2165 276.963 82.6831 276.632C82.1498 276.301 81.7391 275.827 81.4511 275.208C81.1631 274.589 81.0191 273.848 81.0191 272.984C81.0191 272.12 81.1631 271.384 81.4511 270.776C81.7498 270.157 82.1658 269.683 82.6991 269.352C83.2325 269.011 83.8565 268.84 84.5711 268.84C85.3071 268.84 85.9418 269.032 86.4751 269.416C87.0191 269.8 87.3765 270.323 87.5471 270.984H87.3551L87.5151 268.984H88.4591C88.4271 269.293 88.3951 269.597 88.3631 269.896C88.3418 270.195 88.3311 270.488 88.3311 270.776V277H87.3551V275H87.5311C87.3605 275.661 87.0031 276.184 86.4591 276.568C85.9258 276.941 85.2965 277.128 84.5711 277.128ZM84.6991 276.296C85.5205 276.296 86.1711 276.013 86.6511 275.448C87.1311 274.883 87.3711 274.061 87.3711 272.984C87.3711 271.907 87.1311 271.085 86.6511 270.52C86.1711 269.955 85.5205 269.672 84.6991 269.672C83.8778 269.672 83.2218 269.955 82.7311 270.52C82.2511 271.085 82.0111 271.907 82.0111 272.984C82.0111 274.061 82.2511 274.883 82.7311 275.448C83.2218 276.013 83.8778 276.296 84.6991 276.296ZM90.9843 277V270.776C90.9843 270.488 90.9736 270.195 90.9523 269.896C90.9309 269.597 90.8989 269.293 90.8563 268.984H91.8163L91.9603 270.824H91.7682C92.0029 270.184 92.3816 269.693 92.9043 269.352C93.4269 269.011 94.0349 268.84 94.7283 268.84C95.6776 268.84 96.3923 269.091 96.8723 269.592C97.3629 270.093 97.6083 270.877 97.6083 271.944V277H96.6323V272.024C96.6323 271.203 96.4669 270.611 96.1363 270.248C95.8056 269.875 95.2936 269.688 94.6003 269.688C93.7896 269.688 93.1443 269.933 92.6643 270.424C92.1949 270.915 91.9603 271.576 91.9603 272.408V277H90.9843ZM104.472 277V265.72H108.04C109.278 265.72 110.323 265.939 111.176 266.376C112.03 266.803 112.675 267.437 113.112 268.28C113.56 269.112 113.784 270.136 113.784 271.352C113.784 272.568 113.56 273.597 113.112 274.44C112.675 275.283 112.03 275.923 111.176 276.36C110.323 276.787 109.278 277 108.04 277H104.472ZM105.464 276.12H107.96C109.571 276.12 110.771 275.725 111.56 274.936C112.35 274.136 112.744 272.941 112.744 271.352C112.744 269.752 112.35 268.557 111.56 267.768C110.771 266.979 109.571 266.584 107.96 266.584H105.464V276.12ZM119.324 277.128C118.567 277.128 117.911 276.963 117.356 276.632C116.812 276.301 116.391 275.827 116.092 275.208C115.793 274.589 115.644 273.848 115.644 272.984C115.644 272.131 115.793 271.395 116.092 270.776C116.391 270.157 116.812 269.683 117.356 269.352C117.911 269.011 118.567 268.84 119.324 268.84C120.071 268.84 120.716 269.011 121.26 269.352C121.815 269.683 122.241 270.157 122.54 270.776C122.849 271.395 123.004 272.131 123.004 272.984C123.004 273.848 122.849 274.589 122.54 275.208C122.241 275.827 121.815 276.301 121.26 276.632C120.716 276.963 120.071 277.128 119.324 277.128ZM119.324 276.296C120.135 276.296 120.785 276.013 121.276 275.448C121.767 274.883 122.012 274.061 122.012 272.984C122.012 271.907 121.767 271.085 121.276 270.52C120.785 269.955 120.135 269.672 119.324 269.672C118.503 269.672 117.847 269.955 117.356 270.52C116.876 271.085 116.636 271.907 116.636 272.984C116.636 274.061 116.876 274.883 117.356 275.448C117.847 276.013 118.503 276.296 119.324 276.296ZM125.141 277V265.224H126.117V277H125.141ZM128.781 277V265.224H129.757V277H128.781ZM135.462 277.128C134.736 277.128 134.107 276.963 133.574 276.632C133.04 276.301 132.63 275.827 132.342 275.208C132.054 274.589 131.91 273.848 131.91 272.984C131.91 272.12 132.054 271.384 132.342 270.776C132.64 270.157 133.056 269.683 133.59 269.352C134.123 269.011 134.747 268.84 135.462 268.84C136.198 268.84 136.832 269.032 137.366 269.416C137.91 269.8 138.267 270.323 138.438 270.984H138.246L138.406 268.984H139.35C139.318 269.293 139.286 269.597 139.254 269.896C139.232 270.195 139.222 270.488 139.222 270.776V277H138.246V275H138.422C138.251 275.661 137.894 276.184 137.35 276.568C136.816 276.941 136.187 277.128 135.462 277.128ZM135.59 276.296C136.411 276.296 137.062 276.013 137.542 275.448C138.022 274.883 138.262 274.061 138.262 272.984C138.262 271.907 138.022 271.085 137.542 270.52C137.062 269.955 136.411 269.672 135.59 269.672C134.768 269.672 134.112 269.955 133.622 270.52C133.142 271.085 132.902 271.907 132.902 272.984C132.902 274.061 133.142 274.883 133.622 275.448C134.112 276.013 134.768 276.296 135.59 276.296ZM141.859 277V270.856C141.859 270.547 141.848 270.237 141.827 269.928C141.816 269.608 141.79 269.293 141.747 268.984H142.707L142.835 270.824L142.643 270.84C142.75 270.392 142.942 270.024 143.219 269.736C143.496 269.437 143.816 269.213 144.179 269.064C144.542 268.915 144.915 268.84 145.299 268.84C145.438 268.84 145.566 268.851 145.683 268.872C145.811 268.883 145.928 268.904 146.035 268.936L146.003 269.816C145.875 269.773 145.747 269.747 145.619 269.736C145.491 269.725 145.352 269.72 145.203 269.72C144.723 269.72 144.302 269.837 143.939 270.072C143.587 270.307 143.315 270.605 143.123 270.968C142.931 271.331 142.835 271.699 142.835 272.072V277H141.859Z" fill="#8E8E8E"/>
<path d="M24.416 322L29.328 310.72H30.224L35.216 322H34.176L32.768 318.752L33.232 318.992H26.288L26.832 318.752L25.456 322H24.416ZM29.76 311.92L27.024 318.336L26.656 318.144H32.864L32.592 318.336L29.792 311.92H29.76ZM36.9686 322V315.776C36.9686 315.488 36.958 315.195 36.9366 314.896C36.9153 314.597 36.8833 314.293 36.8406 313.984H37.8006L37.9446 315.824H37.7526C37.9553 315.195 38.2913 314.709 38.7606 314.368C39.23 314.016 39.8006 313.84 40.4726 313.84C41.1553 313.84 41.71 314.005 42.1366 314.336C42.5633 314.667 42.846 315.179 42.9846 315.872H42.7446C42.9366 315.253 43.2886 314.763 43.8006 314.4C44.3126 314.027 44.9153 313.84 45.6086 313.84C46.4833 313.84 47.1446 314.091 47.5926 314.592C48.0406 315.093 48.2646 315.877 48.2646 316.944V322H47.2886V317.008C47.2886 316.197 47.1446 315.611 46.8566 315.248C46.5686 314.875 46.0993 314.688 45.4486 314.688C44.7233 314.688 44.1473 314.933 43.7206 315.424C43.3046 315.915 43.0966 316.576 43.0966 317.408V322H42.1206V317.008C42.1206 316.197 41.9766 315.611 41.6886 315.248C41.4006 314.875 40.9366 314.688 40.2966 314.688C39.5713 314.688 38.9953 314.933 38.5686 315.424C38.1526 315.915 37.9446 316.576 37.9446 317.408V322H36.9686ZM54.3149 322.128C53.0989 322.128 52.1335 321.765 51.4189 321.04C50.7149 320.315 50.3629 319.307 50.3629 318.016C50.3629 317.163 50.5175 316.427 50.8269 315.808C51.1469 315.189 51.5895 314.709 52.1549 314.368C52.7202 314.016 53.3762 313.84 54.1229 313.84C54.8375 313.84 55.4402 313.995 55.9309 314.304C56.4215 314.603 56.8002 315.035 57.0669 315.6C57.3335 316.155 57.4669 316.816 57.4669 317.584V318.032H51.0669V317.328H56.8589L56.5869 317.536C56.5869 316.629 56.3789 315.92 55.9629 315.408C55.5469 314.885 54.9282 314.624 54.1069 314.624C53.2322 314.624 52.5495 314.928 52.0589 315.536C51.5682 316.133 51.3229 316.928 51.3229 317.92V318.032C51.3229 319.099 51.5842 319.909 52.1069 320.464C52.6402 321.019 53.3815 321.296 54.3309 321.296C54.8215 321.296 55.2802 321.221 55.7069 321.072C56.1335 320.923 56.5442 320.667 56.9389 320.304L57.3389 321.024C56.9975 321.376 56.5549 321.648 56.0109 321.84C55.4669 322.032 54.9015 322.128 54.3149 322.128ZM59.5464 322V315.856C59.5464 315.547 59.5357 315.237 59.5144 314.928C59.5037 314.608 59.477 314.293 59.4344 313.984H60.3944L60.5224 315.824L60.3304 315.84C60.437 315.392 60.629 315.024 60.9064 314.736C61.1837 314.437 61.5037 314.213 61.8664 314.064C62.229 313.915 62.6024 313.84 62.9864 313.84C63.125 313.84 63.253 313.851 63.3704 313.872C63.4984 313.883 63.6157 313.904 63.7224 313.936L63.6904 314.816C63.5624 314.773 63.4344 314.747 63.3064 314.736C63.1784 314.725 63.0397 314.72 62.8904 314.72C62.4104 314.72 61.989 314.837 61.6264 315.072C61.2744 315.307 61.0024 315.605 60.8104 315.968C60.6184 316.331 60.5224 316.699 60.5224 317.072V322H59.5464ZM65.1405 322V313.984H66.1165V322H65.1405ZM64.9805 312.016V310.8H66.2925V312.016H64.9805ZM72.0131 322.128C71.2558 322.128 70.5945 321.963 70.0291 321.632C69.4638 321.291 69.0265 320.805 68.7171 320.176C68.4185 319.547 68.2691 318.8 68.2691 317.936C68.2691 317.072 68.4238 316.336 68.7331 315.728C69.0425 315.109 69.4745 314.64 70.0291 314.32C70.5945 314 71.2558 313.84 72.0131 313.84C72.5251 313.84 73.0158 313.936 73.4851 314.128C73.9651 314.32 74.3598 314.587 74.6691 314.928L74.2691 315.648C73.9385 315.317 73.5811 315.077 73.1971 314.928C72.8131 314.768 72.4291 314.688 72.0451 314.688C71.1705 314.688 70.4878 314.965 69.9971 315.52C69.5065 316.075 69.2611 316.885 69.2611 317.952C69.2611 319.019 69.5065 319.845 69.9971 320.432C70.4878 321.008 71.1705 321.296 72.0451 321.296C72.4078 321.296 72.7811 321.221 73.1651 321.072C73.5598 320.923 73.9278 320.677 74.2691 320.336L74.6691 321.056C74.3491 321.397 73.9438 321.664 73.4531 321.856C72.9731 322.037 72.4931 322.128 72.0131 322.128ZM79.6024 322.128C78.877 322.128 78.2477 321.963 77.7144 321.632C77.181 321.301 76.7704 320.827 76.4824 320.208C76.1944 319.589 76.0504 318.848 76.0504 317.984C76.0504 317.12 76.1944 316.384 76.4824 315.776C76.781 315.157 77.197 314.683 77.7304 314.352C78.2637 314.011 78.8877 313.84 79.6024 313.84C80.3384 313.84 80.973 314.032 81.5064 314.416C82.0504 314.8 82.4077 315.323 82.5784 315.984H82.3864L82.5464 313.984H83.4904C83.4584 314.293 83.4264 314.597 83.3944 314.896C83.373 315.195 83.3624 315.488 83.3624 315.776V322H82.3864V320H82.5624C82.3917 320.661 82.0344 321.184 81.4904 321.568C80.957 321.941 80.3277 322.128 79.6024 322.128ZM79.7304 321.296C80.5517 321.296 81.2024 321.013 81.6824 320.448C82.1624 319.883 82.4024 319.061 82.4024 317.984C82.4024 316.907 82.1624 316.085 81.6824 315.52C81.2024 314.955 80.5517 314.672 79.7304 314.672C78.909 314.672 78.253 314.955 77.7624 315.52C77.2824 316.085 77.0424 316.907 77.0424 317.984C77.0424 319.061 77.2824 319.883 77.7624 320.448C78.253 321.013 78.909 321.296 79.7304 321.296ZM86.0155 322V315.776C86.0155 315.488 86.0048 315.195 85.9835 314.896C85.9622 314.597 85.9302 314.293 85.8875 313.984H86.8475L86.9915 315.824H86.7995C87.0342 315.184 87.4128 314.693 87.9355 314.352C88.4582 314.011 89.0662 313.84 89.7595 313.84C90.7088 313.84 91.4235 314.091 91.9035 314.592C92.3942 315.093 92.6395 315.877 92.6395 316.944V322H91.6635V317.024C91.6635 316.203 91.4982 315.611 91.1675 315.248C90.8368 314.875 90.3248 314.688 89.6315 314.688C88.8208 314.688 88.1755 314.933 87.6955 315.424C87.2262 315.915 86.9915 316.576 86.9915 317.408V322H86.0155ZM99.5036 322V310.72H103.072C104.309 310.72 105.354 310.939 106.208 311.376C107.061 311.803 107.706 312.437 108.144 313.28C108.592 314.112 108.816 315.136 108.816 316.352C108.816 317.568 108.592 318.597 108.144 319.44C107.706 320.283 107.061 320.923 106.208 321.36C105.354 321.787 104.309 322 103.072 322H99.5036ZM100.496 321.12H102.992C104.602 321.12 105.802 320.725 106.592 319.936C107.381 319.136 107.776 317.941 107.776 316.352C107.776 314.752 107.381 313.557 106.592 312.768C105.802 311.979 104.602 311.584 102.992 311.584H100.496V321.12ZM114.355 322.128C113.598 322.128 112.942 321.963 112.387 321.632C111.843 321.301 111.422 320.827 111.123 320.208C110.825 319.589 110.675 318.848 110.675 317.984C110.675 317.131 110.825 316.395 111.123 315.776C111.422 315.157 111.843 314.683 112.387 314.352C112.942 314.011 113.598 313.84 114.355 313.84C115.102 313.84 115.747 314.011 116.291 314.352C116.846 314.683 117.273 315.157 117.571 315.776C117.881 316.395 118.035 317.131 118.035 317.984C118.035 318.848 117.881 319.589 117.571 320.208C117.273 320.827 116.846 321.301 116.291 321.632C115.747 321.963 115.102 322.128 114.355 322.128ZM114.355 321.296C115.166 321.296 115.817 321.013 116.307 320.448C116.798 319.883 117.043 319.061 117.043 317.984C117.043 316.907 116.798 316.085 116.307 315.52C115.817 314.955 115.166 314.672 114.355 314.672C113.534 314.672 112.878 314.955 112.387 315.52C111.907 316.085 111.667 316.907 111.667 317.984C111.667 319.061 111.907 319.883 112.387 320.448C112.878 321.013 113.534 321.296 114.355 321.296ZM120.172 322V310.224H121.148V322H120.172ZM123.812 322V310.224H124.788V322H123.812ZM130.493 322.128C129.768 322.128 129.138 321.963 128.605 321.632C128.072 321.301 127.661 320.827 127.373 320.208C127.085 319.589 126.941 318.848 126.941 317.984C126.941 317.12 127.085 316.384 127.373 315.776C127.672 315.157 128.088 314.683 128.621 314.352C129.154 314.011 129.778 313.84 130.493 313.84C131.229 313.84 131.864 314.032 132.397 314.416C132.941 314.8 133.298 315.323 133.469 315.984H133.277L133.437 313.984H134.381C134.349 314.293 134.317 314.597 134.285 314.896C134.264 315.195 134.253 315.488 134.253 315.776V322H133.277V320H133.453C133.282 320.661 132.925 321.184 132.381 321.568C131.848 321.941 131.218 322.128 130.493 322.128ZM130.621 321.296C131.442 321.296 132.093 321.013 132.573 320.448C133.053 319.883 133.293 319.061 133.293 317.984C133.293 316.907 133.053 316.085 132.573 315.52C132.093 314.955 131.442 314.672 130.621 314.672C129.8 314.672 129.144 314.955 128.653 315.52C128.173 316.085 127.933 316.907 127.933 317.984C127.933 319.061 128.173 319.883 128.653 320.448C129.144 321.013 129.8 321.296 130.621 321.296ZM136.89 322V315.856C136.89 315.547 136.879 315.237 136.858 314.928C136.847 314.608 136.821 314.293 136.778 313.984H137.738L137.866 315.824L137.674 315.84C137.781 315.392 137.973 315.024 138.25 314.736C138.527 314.437 138.847 314.213 139.21 314.064C139.573 313.915 139.946 313.84 140.33 313.84C140.469 313.84 140.597 313.851 140.714 313.872C140.842 313.883 140.959 313.904 141.066 313.936L141.034 314.816C140.906 314.773 140.778 314.747 140.65 314.736C140.522 314.725 140.383 314.72 140.234 314.72C139.754 314.72 139.333 314.837 138.97 315.072C138.618 315.307 138.346 315.605 138.154 315.968C137.962 316.331 137.866 316.699 137.866 317.072V322H136.89Z" fill="#8E8E8E"/>
<path d="M25.488 367V355.72H32.496V356.568H26.448V360.856H32.144V361.704H26.448V366.152H32.496V367H25.488ZM37.5034 367.128C36.5647 367.128 35.85 366.877 35.3594 366.376C34.8794 365.864 34.6394 365.08 34.6394 364.024V358.984H35.6154V363.96C35.6154 364.771 35.7807 365.363 36.1114 365.736C36.442 366.109 36.9487 366.296 37.6314 366.296C38.3887 366.296 38.9967 366.051 39.4554 365.56C39.9247 365.059 40.1594 364.397 40.1594 363.576V358.984H41.1354V367H40.1754V365.112H40.3834C40.1594 365.763 39.7914 366.264 39.2794 366.616C38.778 366.957 38.186 367.128 37.5034 367.128ZM43.7808 367V360.856C43.7808 360.547 43.7701 360.237 43.7488 359.928C43.7381 359.608 43.7114 359.293 43.6688 358.984H44.6288L44.7568 360.824L44.5648 360.84C44.6714 360.392 44.8634 360.024 45.1408 359.736C45.4181 359.437 45.7381 359.213 46.1008 359.064C46.4634 358.915 46.8368 358.84 47.2208 358.84C47.3594 358.84 47.4874 358.851 47.6048 358.872C47.7328 358.883 47.8501 358.904 47.9568 358.936L47.9248 359.816C47.7968 359.773 47.6688 359.747 47.5408 359.736C47.4128 359.725 47.2741 359.72 47.1248 359.72C46.6448 359.72 46.2234 359.837 45.8608 360.072C45.5088 360.307 45.2368 360.605 45.0448 360.968C44.8528 361.331 44.7568 361.699 44.7568 362.072V367H43.7808ZM52.4491 367.128C51.6918 367.128 51.0358 366.963 50.4811 366.632C49.9371 366.301 49.5158 365.827 49.2171 365.208C48.9185 364.589 48.7691 363.848 48.7691 362.984C48.7691 362.131 48.9185 361.395 49.2171 360.776C49.5158 360.157 49.9371 359.683 50.4811 359.352C51.0358 359.011 51.6918 358.84 52.4491 358.84C53.1958 358.84 53.8411 359.011 54.3851 359.352C54.9398 359.683 55.3665 360.157 55.6651 360.776C55.9745 361.395 56.1291 362.131 56.1291 362.984C56.1291 363.848 55.9745 364.589 55.6651 365.208C55.3665 365.827 54.9398 366.301 54.3851 366.632C53.8411 366.963 53.1958 367.128 52.4491 367.128ZM52.4491 366.296C53.2598 366.296 53.9105 366.013 54.4011 365.448C54.8918 364.883 55.1371 364.061 55.1371 362.984C55.1371 361.907 54.8918 361.085 54.4011 360.52C53.9105 359.955 53.2598 359.672 52.4491 359.672C51.6278 359.672 50.9718 359.955 50.4811 360.52C50.0011 361.085 49.7611 361.907 49.7611 362.984C49.7611 364.061 50.0011 364.883 50.4811 365.448C50.9718 366.013 51.6278 366.296 52.4491 366.296Z" fill="#8E8E8E"/>
<path d="M307.16 50V49.12H309.832V39.584H310.392L307.4 41.488V40.464L310.104 38.72H310.824V49.12H313.352V50H307.16ZM319.394 50.128C318.135 50.128 317.17 49.6373 316.498 48.656C315.826 47.664 315.49 46.2347 315.49 44.368C315.49 42.4693 315.826 41.0347 316.498 40.064C317.17 39.0827 318.135 38.592 319.394 38.592C320.663 38.592 321.628 39.0827 322.29 40.064C322.962 41.0347 323.298 42.464 323.298 44.352C323.298 46.2293 322.962 47.664 322.29 48.656C321.618 49.6373 320.652 50.128 319.394 50.128ZM319.394 49.248C320.364 49.248 321.09 48.848 321.57 48.048C322.05 47.248 322.29 46.016 322.29 44.352C322.29 42.6667 322.05 41.4347 321.57 40.656C321.09 39.8667 320.364 39.472 319.394 39.472C318.434 39.472 317.708 39.872 317.218 40.672C316.738 41.4613 316.498 42.6827 316.498 44.336C316.498 46.0107 316.738 47.248 317.218 48.048C317.708 48.848 318.434 49.248 319.394 49.248Z" fill="#8E8E8E"/>
<path d="M306.44 95V94.264L310.552 89.944C311.096 89.3787 311.507 88.8347 311.784 88.312C312.061 87.7787 312.2 87.2187 312.2 86.632C312.2 85.928 311.981 85.3947 311.544 85.032C311.117 84.6693 310.493 84.488 309.672 84.488C309.043 84.488 308.467 84.6 307.944 84.824C307.421 85.048 306.925 85.3893 306.456 85.848L306.056 85.048C306.472 84.6107 307.005 84.2587 307.656 83.992C308.307 83.7253 309 83.592 309.736 83.592C310.845 83.592 311.699 83.8533 312.296 84.376C312.904 84.888 313.208 85.624 313.208 86.584C313.208 87.288 313.032 87.9707 312.68 88.632C312.328 89.2827 311.827 89.944 311.176 90.616L307.448 94.424V94.12H313.704V95H306.44ZM319.394 95.128C318.135 95.128 317.17 94.6373 316.498 93.656C315.826 92.664 315.49 91.2347 315.49 89.368C315.49 87.4693 315.826 86.0347 316.498 85.064C317.17 84.0827 318.135 83.592 319.394 83.592C320.663 83.592 321.628 84.0827 322.29 85.064C322.962 86.0347 323.298 87.464 323.298 89.352C323.298 91.2293 322.962 92.664 322.29 93.656C321.618 94.6373 320.652 95.128 319.394 95.128ZM319.394 94.248C320.364 94.248 321.09 93.848 321.57 93.048C322.05 92.248 322.29 91.016 322.29 89.352C322.29 87.6667 322.05 86.4347 321.57 85.656C321.09 84.8667 320.364 84.472 319.394 84.472C318.434 84.472 317.708 84.872 317.218 85.672C316.738 86.4613 316.498 87.6827 316.498 89.336C316.498 91.0107 316.738 92.248 317.218 93.048C317.708 93.848 318.434 94.248 319.394 94.248Z" fill="#8E8E8E"/>
<path d="M306.44 140V139.264L310.552 134.944C311.096 134.379 311.507 133.835 311.784 133.312C312.061 132.779 312.2 132.219 312.2 131.632C312.2 130.928 311.981 130.395 311.544 130.032C311.117 129.669 310.493 129.488 309.672 129.488C309.043 129.488 308.467 129.6 307.944 129.824C307.421 130.048 306.925 130.389 306.456 130.848L306.056 130.048C306.472 129.611 307.005 129.259 307.656 128.992C308.307 128.725 309 128.592 309.736 128.592C310.845 128.592 311.699 128.853 312.296 129.376C312.904 129.888 313.208 130.624 313.208 131.584C313.208 132.288 313.032 132.971 312.68 133.632C312.328 134.283 311.827 134.944 311.176 135.616L307.448 139.424V139.12H313.704V140H306.44ZM318.69 140.128C318.114 140.128 317.527 140 316.93 139.744C316.332 139.488 315.842 139.152 315.458 138.736L315.874 137.936C316.279 138.373 316.722 138.699 317.202 138.912C317.692 139.125 318.194 139.232 318.706 139.232C319.836 139.232 320.711 138.816 321.33 137.984C321.948 137.141 322.258 135.893 322.258 134.24V132.624H322.386C322.332 133.253 322.146 133.803 321.826 134.272C321.516 134.741 321.116 135.104 320.626 135.36C320.135 135.605 319.586 135.728 318.978 135.728C318.284 135.728 317.671 135.579 317.138 135.28C316.604 134.981 316.183 134.565 315.874 134.032C315.575 133.488 315.426 132.875 315.426 132.192C315.426 131.488 315.58 130.864 315.89 130.32C316.199 129.776 316.626 129.355 317.17 129.056C317.714 128.747 318.338 128.592 319.042 128.592C320.396 128.592 321.436 129.072 322.162 130.032C322.887 130.981 323.25 132.32 323.25 134.048C323.25 135.349 323.068 136.453 322.706 137.36C322.343 138.267 321.82 138.955 321.138 139.424C320.455 139.893 319.639 140.128 318.69 140.128ZM319.138 134.848C319.671 134.848 320.14 134.736 320.546 134.512C320.962 134.277 321.282 133.957 321.506 133.552C321.73 133.147 321.842 132.683 321.842 132.16C321.842 131.627 321.73 131.157 321.506 130.752C321.282 130.347 320.962 130.032 320.546 129.808C320.14 129.573 319.671 129.456 319.138 129.456C318.604 129.456 318.13 129.573 317.714 129.808C317.308 130.032 316.988 130.347 316.754 130.752C316.53 131.157 316.418 131.627 316.418 132.16C316.418 132.683 316.53 133.147 316.754 133.552C316.988 133.957 317.308 134.277 317.714 134.512C318.13 134.736 318.604 134.848 319.138 134.848Z" fill="#8E8E8E"/>
<path d="M309.8 185.128C309.043 185.128 308.323 185.011 307.64 184.776C306.957 184.541 306.376 184.2 305.896 183.752L306.312 182.952C306.856 183.4 307.405 183.725 307.96 183.928C308.515 184.131 309.123 184.232 309.784 184.232C310.68 184.232 311.363 184.035 311.832 183.64C312.312 183.245 312.552 182.675 312.552 181.928C312.552 181.203 312.307 180.653 311.816 180.28C311.325 179.896 310.611 179.704 309.672 179.704H308.024V178.84H309.608C310.408 178.84 311.043 178.632 311.512 178.216C311.992 177.789 312.232 177.213 312.232 176.488C312.232 175.848 312.013 175.357 311.576 175.016C311.149 174.664 310.536 174.488 309.736 174.488C308.488 174.488 307.411 174.941 306.504 175.848L306.104 175.048C306.531 174.589 307.069 174.232 307.72 173.976C308.371 173.72 309.059 173.592 309.784 173.592C310.851 173.592 311.688 173.843 312.296 174.344C312.915 174.845 313.224 175.544 313.224 176.44C313.224 177.144 313.027 177.747 312.632 178.248C312.237 178.749 311.693 179.091 311 179.272V179.096C311.811 179.235 312.435 179.56 312.872 180.072C313.32 180.573 313.544 181.208 313.544 181.976C313.544 182.957 313.208 183.731 312.536 184.296C311.875 184.851 310.963 185.128 309.8 185.128ZM316.034 185V184.264L320.146 179.944C320.69 179.379 321.1 178.835 321.378 178.312C321.655 177.779 321.794 177.219 321.794 176.632C321.794 175.928 321.575 175.395 321.138 175.032C320.711 174.669 320.087 174.488 319.266 174.488C318.636 174.488 318.06 174.6 317.538 174.824C317.015 175.048 316.519 175.389 316.05 175.848L315.65 175.048C316.066 174.611 316.599 174.259 317.25 173.992C317.9 173.725 318.594 173.592 319.33 173.592C320.439 173.592 321.292 173.853 321.89 174.376C322.498 174.888 322.802 175.624 322.802 176.584C322.802 177.288 322.626 177.971 322.274 178.632C321.922 179.283 321.42 179.944 320.77 180.616L317.042 184.424V184.12H323.298V185H316.034Z" fill="#8E8E8E"/>
<path d="M310.152 230.128C308.808 230.128 307.773 229.648 307.048 228.688C306.323 227.728 305.96 226.389 305.96 224.672C305.96 223.36 306.141 222.256 306.504 221.36C306.867 220.453 307.389 219.765 308.072 219.296C308.755 218.827 309.571 218.592 310.52 218.592C311.096 218.592 311.683 218.72 312.28 218.976C312.877 219.221 313.363 219.557 313.736 219.984L313.336 220.784C312.931 220.347 312.483 220.021 311.992 219.808C311.512 219.595 311.016 219.488 310.504 219.488C309.363 219.488 308.483 219.909 307.864 220.752C307.245 221.584 306.936 222.827 306.936 224.48V226.096H306.824C306.888 225.456 307.069 224.907 307.368 224.448C307.677 223.979 308.077 223.621 308.568 223.376C309.069 223.12 309.624 222.992 310.232 222.992C310.925 222.992 311.539 223.141 312.072 223.44C312.605 223.739 313.021 224.155 313.32 224.688C313.619 225.221 313.768 225.835 313.768 226.528C313.768 227.221 313.613 227.845 313.304 228.4C312.995 228.944 312.568 229.371 312.024 229.68C311.48 229.979 310.856 230.128 310.152 230.128ZM310.072 229.248C310.605 229.248 311.075 229.136 311.48 228.912C311.896 228.688 312.216 228.373 312.44 227.968C312.675 227.563 312.792 227.093 312.792 226.56C312.792 226.027 312.675 225.563 312.44 225.168C312.216 224.763 311.896 224.448 311.48 224.224C311.075 223.989 310.605 223.872 310.072 223.872C309.539 223.872 309.064 223.989 308.648 224.224C308.243 224.448 307.928 224.763 307.704 225.168C307.48 225.563 307.368 226.027 307.368 226.56C307.368 227.093 307.48 227.563 307.704 227.968C307.928 228.373 308.243 228.688 308.648 228.912C309.064 229.136 309.539 229.248 310.072 229.248ZM320.994 230V227.44H315.458V226.704L321.154 218.72H321.97V226.608H323.762V227.44H321.97V230H320.994ZM320.994 226.608V219.888H321.33L316.354 226.864V226.608H320.994Z" fill="#8E8E8E"/>
<path d="M307 275L312.6 264.088V264.6H306.136V263.72H313.464V264.456L308.088 275H307ZM318.69 275.128C318.114 275.128 317.527 275 316.93 274.744C316.332 274.488 315.842 274.152 315.458 273.736L315.874 272.936C316.279 273.373 316.722 273.699 317.202 273.912C317.692 274.125 318.194 274.232 318.706 274.232C319.836 274.232 320.711 273.816 321.33 272.984C321.948 272.141 322.258 270.893 322.258 269.24V267.624H322.386C322.332 268.253 322.146 268.803 321.826 269.272C321.516 269.741 321.116 270.104 320.626 270.36C320.135 270.605 319.586 270.728 318.978 270.728C318.284 270.728 317.671 270.579 317.138 270.28C316.604 269.981 316.183 269.565 315.874 269.032C315.575 268.488 315.426 267.875 315.426 267.192C315.426 266.488 315.58 265.864 315.89 265.32C316.199 264.776 316.626 264.355 317.17 264.056C317.714 263.747 318.338 263.592 319.042 263.592C320.396 263.592 321.436 264.072 322.162 265.032C322.887 265.981 323.25 267.32 323.25 269.048C323.25 270.349 323.068 271.453 322.706 272.36C322.343 273.267 321.82 273.955 321.138 274.424C320.455 274.893 319.639 275.128 318.69 275.128ZM319.138 269.848C319.671 269.848 320.14 269.736 320.546 269.512C320.962 269.277 321.282 268.957 321.506 268.552C321.73 268.147 321.842 267.683 321.842 267.16C321.842 266.627 321.73 266.157 321.506 265.752C321.282 265.347 320.962 265.032 320.546 264.808C320.14 264.573 319.671 264.456 319.138 264.456C318.604 264.456 318.13 264.573 317.714 264.808C317.308 265.032 316.988 265.347 316.754 265.752C316.53 266.157 316.418 266.627 316.418 267.16C316.418 267.683 316.53 268.147 316.754 268.552C316.988 268.957 317.308 269.277 317.714 269.512C318.13 269.736 318.604 269.848 319.138 269.848Z" fill="#8E8E8E"/>
<path d="M307.16 320V319.12H309.832V309.584H310.392L307.4 311.488V310.464L310.104 308.72H310.824V319.12H313.352V320H307.16ZM319.394 320.128C318.135 320.128 317.17 319.637 316.498 318.656C315.826 317.664 315.49 316.235 315.49 314.368C315.49 312.469 315.826 311.035 316.498 310.064C317.17 309.083 318.135 308.592 319.394 308.592C320.663 308.592 321.628 309.083 322.29 310.064C322.962 311.035 323.298 312.464 323.298 314.352C323.298 316.229 322.962 317.664 322.29 318.656C321.618 319.637 320.652 320.128 319.394 320.128ZM319.394 319.248C320.364 319.248 321.09 318.848 321.57 318.048C322.05 317.248 322.29 316.016 322.29 314.352C322.29 312.667 322.05 311.435 321.57 310.656C321.09 309.867 320.364 309.472 319.394 309.472C318.434 309.472 317.708 309.872 317.218 310.672C316.738 311.461 316.498 312.683 316.498 314.336C316.498 316.011 316.738 317.248 317.218 318.048C317.708 318.848 318.434 319.248 319.394 319.248ZM325.628 320V319.264L329.74 314.944C330.284 314.379 330.694 313.835 330.972 313.312C331.249 312.779 331.388 312.219 331.388 311.632C331.388 310.928 331.169 310.395 330.732 310.032C330.305 309.669 329.681 309.488 328.86 309.488C328.23 309.488 327.654 309.6 327.132 309.824C326.609 310.048 326.113 310.389 325.644 310.848L325.243 310.048C325.66 309.611 326.193 309.259 326.844 308.992C327.494 308.725 328.188 308.592 328.924 308.592C330.033 308.592 330.886 308.853 331.484 309.376C332.092 309.888 332.396 310.624 332.396 311.584C332.396 312.288 332.22 312.971 331.868 313.632C331.516 314.283 331.014 314.944 330.364 315.616L326.636 319.424V319.12H332.892V320H325.628Z" fill="#8E8E8E"/>
<path d="M307.16 365V364.12H309.832V354.584H310.392L307.4 356.488V355.464L310.104 353.72H310.824V364.12H313.352V365H307.16ZM319.394 365.128C318.636 365.128 317.916 365.011 317.234 364.776C316.551 364.541 315.97 364.2 315.49 363.752L315.906 362.952C316.45 363.4 316.999 363.725 317.554 363.928C318.108 364.131 318.716 364.232 319.378 364.232C320.274 364.232 320.956 364.035 321.426 363.64C321.906 363.245 322.146 362.675 322.146 361.928C322.146 361.203 321.9 360.653 321.41 360.28C320.919 359.896 320.204 359.704 319.266 359.704H317.618V358.84H319.202C320.002 358.84 320.636 358.632 321.106 358.216C321.586 357.789 321.826 357.213 321.826 356.488C321.826 355.848 321.607 355.357 321.17 355.016C320.743 354.664 320.13 354.488 319.33 354.488C318.082 354.488 317.004 354.941 316.098 355.848L315.698 355.048C316.124 354.589 316.663 354.232 317.314 353.976C317.964 353.72 318.652 353.592 319.378 353.592C320.444 353.592 321.282 353.843 321.89 354.344C322.508 354.845 322.818 355.544 322.818 356.44C322.818 357.144 322.62 357.747 322.226 358.248C321.831 358.749 321.287 359.091 320.594 359.272V359.096C321.404 359.235 322.028 359.56 322.466 360.072C322.914 360.573 323.138 361.208 323.138 361.976C323.138 362.957 322.802 363.731 322.13 364.296C321.468 364.851 320.556 365.128 319.394 365.128ZM330.588 365V362.44H325.052V361.704L330.748 353.72H331.564V361.608H333.356V362.44H331.564V365H330.588ZM330.588 361.608V354.888H330.924L325.948 361.864V361.608H330.588Z" fill="#8E8E8E"/>
<path d="M217.16 50V49.12H219.832V39.584H220.392L217.4 41.488V40.464L220.104 38.72H220.824V49.12H223.352V50H217.16ZM229.394 50.128C228.135 50.128 227.17 49.6373 226.498 48.656C225.826 47.664 225.49 46.2347 225.49 44.368C225.49 42.4693 225.826 41.0347 226.498 40.064C227.17 39.0827 228.135 38.592 229.394 38.592C230.663 38.592 231.628 39.0827 232.29 40.064C232.962 41.0347 233.298 42.464 233.298 44.352C233.298 46.2293 232.962 47.664 232.29 48.656C231.618 49.6373 230.652 50.128 229.394 50.128ZM229.394 49.248C230.364 49.248 231.09 48.848 231.57 48.048C232.05 47.248 232.29 46.016 232.29 44.352C232.29 42.6667 232.05 41.4347 231.57 40.656C231.09 39.8667 230.364 39.472 229.394 39.472C228.434 39.472 227.708 39.872 227.218 40.672C226.738 41.4613 226.498 42.6827 226.498 44.336C226.498 46.0107 226.738 47.248 227.218 48.048C227.708 48.848 228.434 49.248 229.394 49.248Z" fill="#8E8E8E"/>
<path d="M216.44 95V94.264L220.552 89.944C221.096 89.3787 221.507 88.8347 221.784 88.312C222.061 87.7787 222.2 87.2187 222.2 86.632C222.2 85.928 221.981 85.3947 221.544 85.032C221.117 84.6693 220.493 84.488 219.672 84.488C219.043 84.488 218.467 84.6 217.944 84.824C217.421 85.048 216.925 85.3893 216.456 85.848L216.056 85.048C216.472 84.6107 217.005 84.2587 217.656 83.992C218.307 83.7253 219 83.592 219.736 83.592C220.845 83.592 221.699 83.8533 222.296 84.376C222.904 84.888 223.208 85.624 223.208 86.584C223.208 87.288 223.032 87.9707 222.68 88.632C222.328 89.2827 221.827 89.944 221.176 90.616L217.448 94.424V94.12H223.704V95H216.44ZM229.394 95.128C228.135 95.128 227.17 94.6373 226.498 93.656C225.826 92.664 225.49 91.2347 225.49 89.368C225.49 87.4693 225.826 86.0347 226.498 85.064C227.17 84.0827 228.135 83.592 229.394 83.592C230.663 83.592 231.628 84.0827 232.29 85.064C232.962 86.0347 233.298 87.464 233.298 89.352C233.298 91.2293 232.962 92.664 232.29 93.656C231.618 94.6373 230.652 95.128 229.394 95.128ZM229.394 94.248C230.364 94.248 231.09 93.848 231.57 93.048C232.05 92.248 232.29 91.016 232.29 89.352C232.29 87.6667 232.05 86.4347 231.57 85.656C231.09 84.8667 230.364 84.472 229.394 84.472C228.434 84.472 227.708 84.872 227.218 85.672C226.738 86.4613 226.498 87.6827 226.498 89.336C226.498 91.0107 226.738 92.248 227.218 93.048C227.708 93.848 228.434 94.248 229.394 94.248Z" fill="#8E8E8E"/>
<path d="M216.44 140V139.264L220.552 134.944C221.096 134.379 221.507 133.835 221.784 133.312C222.061 132.779 222.2 132.219 222.2 131.632C222.2 130.928 221.981 130.395 221.544 130.032C221.117 129.669 220.493 129.488 219.672 129.488C219.043 129.488 218.467 129.6 217.944 129.824C217.421 130.048 216.925 130.389 216.456 130.848L216.056 130.048C216.472 129.611 217.005 129.259 217.656 128.992C218.307 128.725 219 128.592 219.736 128.592C220.845 128.592 221.699 128.853 222.296 129.376C222.904 129.888 223.208 130.624 223.208 131.584C223.208 132.288 223.032 132.971 222.68 133.632C222.328 134.283 221.827 134.944 221.176 135.616L217.448 139.424V139.12H223.704V140H216.44ZM228.69 140.128C228.114 140.128 227.527 140 226.93 139.744C226.332 139.488 225.842 139.152 225.458 138.736L225.874 137.936C226.279 138.373 226.722 138.699 227.202 138.912C227.692 139.125 228.194 139.232 228.706 139.232C229.836 139.232 230.711 138.816 231.33 137.984C231.948 137.141 232.258 135.893 232.258 134.24V132.624H232.386C232.332 133.253 232.146 133.803 231.826 134.272C231.516 134.741 231.116 135.104 230.626 135.36C230.135 135.605 229.586 135.728 228.978 135.728C228.284 135.728 227.671 135.579 227.138 135.28C226.604 134.981 226.183 134.565 225.874 134.032C225.575 133.488 225.426 132.875 225.426 132.192C225.426 131.488 225.58 130.864 225.89 130.32C226.199 129.776 226.626 129.355 227.17 129.056C227.714 128.747 228.338 128.592 229.042 128.592C230.396 128.592 231.436 129.072 232.162 130.032C232.887 130.981 233.25 132.32 233.25 134.048C233.25 135.349 233.068 136.453 232.706 137.36C232.343 138.267 231.82 138.955 231.138 139.424C230.455 139.893 229.639 140.128 228.69 140.128ZM229.138 134.848C229.671 134.848 230.14 134.736 230.546 134.512C230.962 134.277 231.282 133.957 231.506 133.552C231.73 133.147 231.842 132.683 231.842 132.16C231.842 131.627 231.73 131.157 231.506 130.752C231.282 130.347 230.962 130.032 230.546 129.808C230.14 129.573 229.671 129.456 229.138 129.456C228.604 129.456 228.13 129.573 227.714 129.808C227.308 130.032 226.988 130.347 226.754 130.752C226.53 131.157 226.418 131.627 226.418 132.16C226.418 132.683 226.53 133.147 226.754 133.552C226.988 133.957 227.308 134.277 227.714 134.512C228.13 134.736 228.604 134.848 229.138 134.848Z" fill="#8E8E8E"/>
<path d="M219.8 185.128C219.043 185.128 218.323 185.011 217.64 184.776C216.957 184.541 216.376 184.2 215.896 183.752L216.312 182.952C216.856 183.4 217.405 183.725 217.96 183.928C218.515 184.131 219.123 184.232 219.784 184.232C220.68 184.232 221.363 184.035 221.832 183.64C222.312 183.245 222.552 182.675 222.552 181.928C222.552 181.203 222.307 180.653 221.816 180.28C221.325 179.896 220.611 179.704 219.672 179.704H218.024V178.84H219.608C220.408 178.84 221.043 178.632 221.512 178.216C221.992 177.789 222.232 177.213 222.232 176.488C222.232 175.848 222.013 175.357 221.576 175.016C221.149 174.664 220.536 174.488 219.736 174.488C218.488 174.488 217.411 174.941 216.504 175.848L216.104 175.048C216.531 174.589 217.069 174.232 217.72 173.976C218.371 173.72 219.059 173.592 219.784 173.592C220.851 173.592 221.688 173.843 222.296 174.344C222.915 174.845 223.224 175.544 223.224 176.44C223.224 177.144 223.027 177.747 222.632 178.248C222.237 178.749 221.693 179.091 221 179.272V179.096C221.811 179.235 222.435 179.56 222.872 180.072C223.32 180.573 223.544 181.208 223.544 181.976C223.544 182.957 223.208 183.731 222.536 184.296C221.875 184.851 220.963 185.128 219.8 185.128ZM226.034 185V184.264L230.146 179.944C230.69 179.379 231.1 178.835 231.378 178.312C231.655 177.779 231.794 177.219 231.794 176.632C231.794 175.928 231.575 175.395 231.138 175.032C230.711 174.669 230.087 174.488 229.266 174.488C228.636 174.488 228.06 174.6 227.538 174.824C227.015 175.048 226.519 175.389 226.05 175.848L225.65 175.048C226.066 174.611 226.599 174.259 227.25 173.992C227.9 173.725 228.594 173.592 229.33 173.592C230.439 173.592 231.292 173.853 231.89 174.376C232.498 174.888 232.802 175.624 232.802 176.584C232.802 177.288 232.626 177.971 232.274 178.632C231.922 179.283 231.42 179.944 230.77 180.616L227.042 184.424V184.12H233.298V185H226.034Z" fill="#8E8E8E"/>
<path d="M220.152 230.128C218.808 230.128 217.773 229.648 217.048 228.688C216.323 227.728 215.96 226.389 215.96 224.672C215.96 223.36 216.141 222.256 216.504 221.36C216.867 220.453 217.389 219.765 218.072 219.296C218.755 218.827 219.571 218.592 220.52 218.592C221.096 218.592 221.683 218.72 222.28 218.976C222.877 219.221 223.363 219.557 223.736 219.984L223.336 220.784C222.931 220.347 222.483 220.021 221.992 219.808C221.512 219.595 221.016 219.488 220.504 219.488C219.363 219.488 218.483 219.909 217.864 220.752C217.245 221.584 216.936 222.827 216.936 224.48V226.096H216.824C216.888 225.456 217.069 224.907 217.368 224.448C217.677 223.979 218.077 223.621 218.568 223.376C219.069 223.12 219.624 222.992 220.232 222.992C220.925 222.992 221.539 223.141 222.072 223.44C222.605 223.739 223.021 224.155 223.32 224.688C223.619 225.221 223.768 225.835 223.768 226.528C223.768 227.221 223.613 227.845 223.304 228.4C222.995 228.944 222.568 229.371 222.024 229.68C221.48 229.979 220.856 230.128 220.152 230.128ZM220.072 229.248C220.605 229.248 221.075 229.136 221.48 228.912C221.896 228.688 222.216 228.373 222.44 227.968C222.675 227.563 222.792 227.093 222.792 226.56C222.792 226.027 222.675 225.563 222.44 225.168C222.216 224.763 221.896 224.448 221.48 224.224C221.075 223.989 220.605 223.872 220.072 223.872C219.539 223.872 219.064 223.989 218.648 224.224C218.243 224.448 217.928 224.763 217.704 225.168C217.48 225.563 217.368 226.027 217.368 226.56C217.368 227.093 217.48 227.563 217.704 227.968C217.928 228.373 218.243 228.688 218.648 228.912C219.064 229.136 219.539 229.248 220.072 229.248ZM230.994 230V227.44H225.458V226.704L231.154 218.72H231.97V226.608H233.762V227.44H231.97V230H230.994ZM230.994 226.608V219.888H231.33L226.354 226.864V226.608H230.994Z" fill="#8E8E8E"/>
<path d="M217 275L222.6 264.088V264.6H216.136V263.72H223.464V264.456L218.088 275H217ZM228.69 275.128C228.114 275.128 227.527 275 226.93 274.744C226.332 274.488 225.842 274.152 225.458 273.736L225.874 272.936C226.279 273.373 226.722 273.699 227.202 273.912C227.692 274.125 228.194 274.232 228.706 274.232C229.836 274.232 230.711 273.816 231.33 272.984C231.948 272.141 232.258 270.893 232.258 269.24V267.624H232.386C232.332 268.253 232.146 268.803 231.826 269.272C231.516 269.741 231.116 270.104 230.626 270.36C230.135 270.605 229.586 270.728 228.978 270.728C228.284 270.728 227.671 270.579 227.138 270.28C226.604 269.981 226.183 269.565 225.874 269.032C225.575 268.488 225.426 267.875 225.426 267.192C225.426 266.488 225.58 265.864 225.89 265.32C226.199 264.776 226.626 264.355 227.17 264.056C227.714 263.747 228.338 263.592 229.042 263.592C230.396 263.592 231.436 264.072 232.162 265.032C232.887 265.981 233.25 267.32 233.25 269.048C233.25 270.349 233.068 271.453 232.706 272.36C232.343 273.267 231.82 273.955 231.138 274.424C230.455 274.893 229.639 275.128 228.69 275.128ZM229.138 269.848C229.671 269.848 230.14 269.736 230.546 269.512C230.962 269.277 231.282 268.957 231.506 268.552C231.73 268.147 231.842 267.683 231.842 267.16C231.842 266.627 231.73 266.157 231.506 265.752C231.282 265.347 230.962 265.032 230.546 264.808C230.14 264.573 229.671 264.456 229.138 264.456C228.604 264.456 228.13 264.573 227.714 264.808C227.308 265.032 226.988 265.347 226.754 265.752C226.53 266.157 226.418 266.627 226.418 267.16C226.418 267.683 226.53 268.147 226.754 268.552C226.988 268.957 227.308 269.277 227.714 269.512C228.13 269.736 228.604 269.848 229.138 269.848Z" fill="#8E8E8E"/>
<path d="M217.16 320V319.12H219.832V309.584H220.392L217.4 311.488V310.464L220.104 308.72H220.824V319.12H223.352V320H217.16ZM229.394 320.128C228.135 320.128 227.17 319.637 226.498 318.656C225.826 317.664 225.49 316.235 225.49 314.368C225.49 312.469 225.826 311.035 226.498 310.064C227.17 309.083 228.135 308.592 229.394 308.592C230.663 308.592 231.628 309.083 232.29 310.064C232.962 311.035 233.298 312.464 233.298 314.352C233.298 316.229 232.962 317.664 232.29 318.656C231.618 319.637 230.652 320.128 229.394 320.128ZM229.394 319.248C230.364 319.248 231.09 318.848 231.57 318.048C232.05 317.248 232.29 316.016 232.29 314.352C232.29 312.667 232.05 311.435 231.57 310.656C231.09 309.867 230.364 309.472 229.394 309.472C228.434 309.472 227.708 309.872 227.218 310.672C226.738 311.461 226.498 312.683 226.498 314.336C226.498 316.011 226.738 317.248 227.218 318.048C227.708 318.848 228.434 319.248 229.394 319.248ZM235.628 320V319.264L239.74 314.944C240.284 314.379 240.694 313.835 240.972 313.312C241.249 312.779 241.388 312.219 241.388 311.632C241.388 310.928 241.169 310.395 240.732 310.032C240.305 309.669 239.681 309.488 238.86 309.488C238.23 309.488 237.654 309.6 237.132 309.824C236.609 310.048 236.113 310.389 235.644 310.848L235.243 310.048C235.66 309.611 236.193 309.259 236.844 308.992C237.494 308.725 238.188 308.592 238.924 308.592C240.033 308.592 240.886 308.853 241.484 309.376C242.092 309.888 242.396 310.624 242.396 311.584C242.396 312.288 242.22 312.971 241.868 313.632C241.516 314.283 241.014 314.944 240.364 315.616L236.636 319.424V319.12H242.892V320H235.628Z" fill="#8E8E8E"/>
<path d="M217.16 365V364.12H219.832V354.584H220.392L217.4 356.488V355.464L220.104 353.72H220.824V364.12H223.352V365H217.16ZM229.394 365.128C228.636 365.128 227.916 365.011 227.234 364.776C226.551 364.541 225.97 364.2 225.49 363.752L225.906 362.952C226.45 363.4 226.999 363.725 227.554 363.928C228.108 364.131 228.716 364.232 229.378 364.232C230.274 364.232 230.956 364.035 231.426 363.64C231.906 363.245 232.146 362.675 232.146 361.928C232.146 361.203 231.9 360.653 231.41 360.28C230.919 359.896 230.204 359.704 229.266 359.704H227.618V358.84H229.202C230.002 358.84 230.636 358.632 231.106 358.216C231.586 357.789 231.826 357.213 231.826 356.488C231.826 355.848 231.607 355.357 231.17 355.016C230.743 354.664 230.13 354.488 229.33 354.488C228.082 354.488 227.004 354.941 226.098 355.848L225.698 355.048C226.124 354.589 226.663 354.232 227.314 353.976C227.964 353.72 228.652 353.592 229.378 353.592C230.444 353.592 231.282 353.843 231.89 354.344C232.508 354.845 232.818 355.544 232.818 356.44C232.818 357.144 232.62 357.747 232.226 358.248C231.831 358.749 231.287 359.091 230.594 359.272V359.096C231.404 359.235 232.028 359.56 232.466 360.072C232.914 360.573 233.138 361.208 233.138 361.976C233.138 362.957 232.802 363.731 232.13 364.296C231.468 364.851 230.556 365.128 229.394 365.128ZM240.588 365V362.44H235.052V361.704L240.748 353.72H241.564V361.608H243.356V362.44H241.564V365H240.588ZM240.588 361.608V354.888H240.924L235.948 361.864V361.608H240.588Z" fill="#8E8E8E"/>
</svg>
