<svg width="36" height="36" viewBox="0 0 36 36" fill="none" xmlns="http://www.w3.org/2000/svg">
<path d="M25.0313 31.7812L11.25 18H24.75L10.5188 3.76874H8.94378C6.54415 5.2869 4.56842 7.38846 3.20112 9.87714C1.83382 12.3658 1.11955 15.1604 1.12503 18C1.12503 27.3375 8.66253 34.875 18 34.875C20.475 34.875 22.8938 34.3125 25.0313 33.3562V31.7812Z" fill="#ED4C5C"/>
<path d="M18 1.125C15.525 1.125 13.1063 1.6875 10.9688 2.64375V5.34375L22.7812 17.1562H10.9688V18.9563L24.2437 32.2312H27.0562C31.7812 29.25 34.875 23.9625 34.875 18C34.875 8.6625 27.3375 1.125 18 1.125Z" fill="#EDEDED"/>
<path d="M10.9688 2.64374C10.2375 2.98124 9.56255 3.31874 8.88755 3.76874L22.05 16.875H8.55005L25.0313 33.3562C25.7625 33.0187 26.4375 32.6812 27.1125 32.2312L13.95 19.125H27.45L10.9688 2.64374Z" fill="#428BC1"/>
<path d="M11.025 12.2625C11.1938 11.9812 11.25 11.5875 11.25 11.25C11.25 10.0125 10.2375 9 9 9C7.7625 9 6.75 10.0125 6.75 11.25C6.75 11.6437 6.8625 11.9812 6.975 12.2625C5.90625 11.8125 5.0625 11.25 5.0625 11.25C5.0625 11.25 5.90625 14.625 9 14.625C12.15 14.625 12.9375 11.25 12.9375 11.25C12.9375 11.25 12.0938 11.8125 11.025 12.2625ZM9 22.275L9.9 21.375L10.2375 22.6125L11.475 22.275L11.1375 23.5125L12.375 23.85L11.475 24.75L12.375 25.65L11.1375 25.9875L11.475 27.225L10.2375 26.8875L9.9 28.125L9 27.225L8.1 28.125L7.7625 26.8875L6.525 27.225L6.8625 25.9875L5.625 25.65L6.525 24.75L5.625 23.85L6.8625 23.5125L6.525 22.275L7.7625 22.6125L8.1 21.375L9 22.275Z" fill="white"/>
</svg>
