<svg width="340" height="137" viewBox="0 0 340 137" fill="none" xmlns="http://www.w3.org/2000/svg">
<path d="M14.4198 11.292C14.1878 11.14 13.9478 10.944 13.6998 10.704C13.4518 10.464 13.2158 10.196 12.9918 9.9C12.7758 9.604 12.5878 9.308 12.4278 9.012L13.3038 8.688C13.5118 9.104 13.7798 9.48 14.1078 9.816C14.4358 10.16 14.7678 10.456 15.1038 10.704L14.4198 11.292ZM8.25181 4.764C8.25181 3.868 8.40381 3.1 8.70781 2.46C9.01981 1.812 9.46381 1.312 10.0398 0.96C10.6238 0.608 11.3238 0.431999 12.1398 0.431999C12.9318 0.431999 13.6198 0.608 14.2038 0.96C14.7878 1.312 15.2358 1.812 15.5478 2.46C15.8678 3.1 16.0278 3.864 16.0278 4.752C16.0278 5.648 15.8678 6.42 15.5478 7.068C15.2278 7.716 14.7758 8.22 14.1918 8.58C13.6158 8.932 12.9318 9.108 12.1398 9.108C11.3238 9.108 10.6278 8.932 10.0518 8.58C9.47581 8.22 9.03181 7.716 8.71981 7.068C8.40781 6.42 8.25181 5.652 8.25181 4.764ZM9.29581 4.764C9.29581 5.852 9.53581 6.704 10.0158 7.32C10.4958 7.928 11.2038 8.232 12.1398 8.232C13.0358 8.232 13.7318 7.928 14.2278 7.32C14.7318 6.704 14.9838 5.852 14.9838 4.764C14.9838 3.668 14.7358 2.82 14.2398 2.22C13.7438 1.612 13.0438 1.308 12.1398 1.308C11.2038 1.308 10.4958 1.612 10.0158 2.22C9.53581 2.82 9.29581 3.668 9.29581 4.764ZM20.0173 9.108C19.4813 9.108 19.0133 8.984 18.6133 8.736C18.2133 8.48 17.9013 8.12 17.6773 7.656C17.4613 7.192 17.3533 6.636 17.3533 5.988C17.3533 5.332 17.4613 4.772 17.6773 4.308C17.9013 3.844 18.2133 3.488 18.6133 3.24C19.0133 2.992 19.4813 2.868 20.0173 2.868C20.5613 2.868 21.0293 3.008 21.4213 3.288C21.8213 3.56 22.0853 3.932 22.2133 4.404H22.0693L22.2013 2.976H23.1373C23.1133 3.208 23.0893 3.444 23.0653 3.684C23.0493 3.916 23.0413 4.144 23.0413 4.368V9H22.0693V7.584H22.2013C22.0733 8.056 21.8093 8.428 21.4093 8.7C21.0093 8.972 20.5453 9.108 20.0173 9.108ZM20.2093 8.316C20.7853 8.316 21.2413 8.12 21.5773 7.728C21.9133 7.328 22.0813 6.748 22.0813 5.988C22.0813 5.22 21.9133 4.64 21.5773 4.248C21.2413 3.848 20.7853 3.648 20.2093 3.648C19.6413 3.648 19.1853 3.848 18.8413 4.248C18.5053 4.64 18.3373 5.22 18.3373 5.988C18.3373 6.748 18.5053 7.328 18.8413 7.728C19.1853 8.12 19.6413 8.316 20.2093 8.316ZM27.0567 9.108C26.4647 9.108 26.0127 8.94 25.7007 8.604C25.3887 8.26 25.2327 7.744 25.2327 7.056V3.732H24.0567V2.976H25.2327V1.332L26.2047 1.056V2.976H27.9327V3.732H26.2047V6.948C26.2047 7.428 26.2847 7.772 26.4447 7.98C26.6127 8.18 26.8607 8.28 27.1887 8.28C27.3407 8.28 27.4767 8.268 27.5967 8.244C27.7167 8.212 27.8247 8.176 27.9207 8.136V8.952C27.8087 9 27.6727 9.036 27.5127 9.06C27.3607 9.092 27.2087 9.108 27.0567 9.108ZM31.408 9.108C30.872 9.108 30.404 8.984 30.004 8.736C29.604 8.48 29.292 8.12 29.068 7.656C28.852 7.192 28.744 6.636 28.744 5.988C28.744 5.332 28.852 4.772 29.068 4.308C29.292 3.844 29.604 3.488 30.004 3.24C30.404 2.992 30.872 2.868 31.408 2.868C31.952 2.868 32.42 3.008 32.812 3.288C33.212 3.56 33.476 3.932 33.604 4.404H33.46L33.592 2.976H34.528C34.504 3.208 34.48 3.444 34.456 3.684C34.44 3.916 34.432 4.144 34.432 4.368V9H33.46V7.584H33.592C33.464 8.056 33.2 8.428 32.8 8.7C32.4 8.972 31.936 9.108 31.408 9.108ZM31.6 8.316C32.176 8.316 32.632 8.12 32.968 7.728C33.304 7.328 33.472 6.748 33.472 5.988C33.472 5.22 33.304 4.64 32.968 4.248C32.632 3.848 32.176 3.648 31.6 3.648C31.032 3.648 30.576 3.848 30.232 4.248C29.896 4.64 29.728 5.22 29.728 5.988C29.728 6.748 29.896 7.328 30.232 7.728C30.576 8.12 31.032 8.316 31.6 8.316ZM36.2873 9V4.428C36.2873 4.188 36.2793 3.944 36.2633 3.696C36.2553 3.448 36.2393 3.208 36.2153 2.976H37.1513L37.2713 4.44L37.1033 4.452C37.1833 4.092 37.3233 3.796 37.5233 3.564C37.7233 3.332 37.9593 3.16 38.2313 3.048C38.5033 2.928 38.7873 2.868 39.0833 2.868C39.2033 2.868 39.3073 2.872 39.3953 2.88C39.4913 2.888 39.5793 2.908 39.6593 2.94L39.6473 3.804C39.5273 3.764 39.4153 3.74 39.3113 3.732C39.2153 3.716 39.1033 3.708 38.9753 3.708C38.6233 3.708 38.3153 3.792 38.0513 3.96C37.7953 4.128 37.5993 4.344 37.4633 4.608C37.3353 4.872 37.2713 5.152 37.2713 5.448V9H36.2873ZM46.2116 9L43.2596 0.539999H44.3036L46.8836 8.16H46.4636L49.1756 0.539999H49.9676L52.5356 8.16H52.1516L54.8036 0.539999H55.7876L52.8116 9H51.9236L49.4276 1.668H49.6796L47.0756 9H46.2116ZM58.9161 9.108C58.3401 9.108 57.8361 8.984 57.4041 8.736C56.9801 8.48 56.6521 8.12 56.4201 7.656C56.1881 7.184 56.0721 6.628 56.0721 5.988C56.0721 5.34 56.1881 4.784 56.4201 4.32C56.6521 3.856 56.9801 3.5 57.4041 3.252C57.8361 2.996 58.3401 2.868 58.9161 2.868C59.5001 2.868 60.0041 2.996 60.4281 3.252C60.8601 3.5 61.1921 3.856 61.4241 4.32C61.6641 4.784 61.7841 5.34 61.7841 5.988C61.7841 6.628 61.6641 7.184 61.4241 7.656C61.1921 8.12 60.8601 8.48 60.4281 8.736C60.0041 8.984 59.5001 9.108 58.9161 9.108ZM58.9161 8.316C59.4921 8.316 59.9481 8.12 60.2841 7.728C60.6201 7.328 60.7881 6.748 60.7881 5.988C60.7881 5.22 60.6161 4.64 60.2721 4.248C59.9361 3.848 59.4841 3.648 58.9161 3.648C58.3481 3.648 57.8961 3.848 57.5601 4.248C57.2241 4.64 57.0561 5.22 57.0561 5.988C57.0561 6.748 57.2241 7.328 57.5601 7.728C57.8961 8.12 58.3481 8.316 58.9161 8.316ZM63.2756 9V4.428C63.2756 4.188 63.2676 3.944 63.2516 3.696C63.2436 3.448 63.2276 3.208 63.2036 2.976H64.1396L64.2596 4.44L64.0916 4.452C64.1716 4.092 64.3116 3.796 64.5116 3.564C64.7116 3.332 64.9476 3.16 65.2196 3.048C65.4916 2.928 65.7756 2.868 66.0716 2.868C66.1916 2.868 66.2956 2.872 66.3836 2.88C66.4796 2.888 66.5676 2.908 66.6476 2.94L66.6356 3.804C66.5156 3.764 66.4036 3.74 66.2996 3.732C66.2036 3.716 66.0916 3.708 65.9636 3.708C65.6116 3.708 65.3036 3.792 65.0396 3.96C64.7836 4.128 64.5876 4.344 64.4516 4.608C64.3236 4.872 64.2596 5.152 64.2596 5.448V9H63.2756ZM67.6589 9V0.167999H68.6309V9H67.6589ZM72.7983 9.108C72.2703 9.108 71.8063 8.984 71.4063 8.736C71.0063 8.48 70.6943 8.12 70.4703 7.656C70.2543 7.192 70.1463 6.636 70.1463 5.988C70.1463 5.332 70.2543 4.772 70.4703 4.308C70.6943 3.844 71.0063 3.488 71.4063 3.24C71.8063 2.992 72.2703 2.868 72.7983 2.868C73.3423 2.868 73.8103 3.004 74.2023 3.276C74.6023 3.548 74.8703 3.916 75.0063 4.38H74.8623V0.167999H75.8343V9H74.8743V7.56H75.0063C74.8783 8.04 74.6143 8.42 74.2143 8.7C73.8143 8.972 73.3423 9.108 72.7983 9.108ZM73.0023 8.316C73.5703 8.316 74.0263 8.12 74.3703 7.728C74.7143 7.328 74.8863 6.748 74.8863 5.988C74.8863 5.22 74.7143 4.64 74.3703 4.248C74.0263 3.848 73.5703 3.648 73.0023 3.648C72.4343 3.648 71.9783 3.848 71.6343 4.248C71.2983 4.64 71.1303 5.22 71.1303 5.988C71.1303 6.748 71.2983 7.328 71.6343 7.728C71.9783 8.12 72.4343 8.316 73.0023 8.316ZM84.6345 9.108C83.7865 9.108 83.0665 8.932 82.4745 8.58C81.8825 8.228 81.4265 7.728 81.1065 7.08C80.7945 6.432 80.6385 5.66 80.6385 4.764C80.6385 3.868 80.7945 3.1 81.1065 2.46C81.4265 1.812 81.8825 1.312 82.4745 0.96C83.0665 0.608 83.7865 0.431999 84.6345 0.431999C85.2345 0.431999 85.7705 0.523999 86.2425 0.707999C86.7145 0.891999 87.1265 1.16 87.4785 1.512L87.1065 2.304C86.7225 1.968 86.3425 1.724 85.9665 1.572C85.5905 1.412 85.1505 1.332 84.6465 1.332C83.6785 1.332 82.9425 1.632 82.4385 2.232C81.9345 2.832 81.6825 3.676 81.6825 4.764C81.6825 5.852 81.9345 6.7 82.4385 7.308C82.9425 7.908 83.6785 8.208 84.6465 8.208C85.1505 8.208 85.5905 8.132 85.9665 7.98C86.3425 7.82 86.7225 7.568 87.1065 7.224L87.4785 8.028C87.1265 8.372 86.7145 8.64 86.2425 8.832C85.7705 9.016 85.2345 9.108 84.6345 9.108ZM91.0408 9.108C90.3288 9.108 89.7888 8.912 89.4208 8.52C89.0608 8.128 88.8808 7.528 88.8808 6.72V2.976H89.8528V6.696C89.8528 7.248 89.9648 7.656 90.1888 7.92C90.4128 8.176 90.7608 8.304 91.2328 8.304C91.7608 8.304 92.1848 8.132 92.5048 7.788C92.8248 7.444 92.9848 6.984 92.9848 6.408V2.976H93.9568V9H93.0088V7.644H93.1648C92.9968 8.108 92.7248 8.468 92.3488 8.724C91.9808 8.98 91.5448 9.108 91.0408 9.108ZM95.8425 11.592V4.368C95.8425 4.144 95.8305 3.916 95.8065 3.684C95.7905 3.444 95.7705 3.208 95.7465 2.976H96.6825L96.8145 4.404H96.6705C96.7985 3.932 97.0585 3.56 97.4505 3.288C97.8425 3.008 98.3105 2.868 98.8545 2.868C99.3985 2.868 99.8665 2.992 100.259 3.24C100.659 3.488 100.971 3.844 101.195 4.308C101.419 4.772 101.531 5.332 101.531 5.988C101.531 6.636 101.419 7.192 101.195 7.656C100.979 8.12 100.671 8.48 100.271 8.736C99.8705 8.984 99.3985 9.108 98.8545 9.108C98.3185 9.108 97.8545 8.972 97.4625 8.7C97.0705 8.428 96.8105 8.056 96.6825 7.584H96.8145V11.592H95.8425ZM98.6625 8.316C99.2385 8.316 99.6945 8.12 100.031 7.728C100.375 7.328 100.547 6.748 100.547 5.988C100.547 5.22 100.375 4.64 100.031 4.248C99.6945 3.848 99.2385 3.648 98.6625 3.648C98.0945 3.648 97.6385 3.848 97.2945 4.248C96.9585 4.64 96.7905 5.22 96.7905 5.988C96.7905 6.748 96.9585 7.328 97.2945 7.728C97.6385 8.12 98.0945 8.316 98.6625 8.316ZM106.251 9V8.256L109.251 5.124C109.643 4.716 109.935 4.328 110.127 3.96C110.327 3.584 110.427 3.196 110.427 2.796C110.427 2.308 110.275 1.94 109.971 1.692C109.667 1.436 109.227 1.308 108.651 1.308C108.203 1.308 107.787 1.388 107.403 1.548C107.027 1.7 106.663 1.944 106.311 2.28L105.951 1.5C106.271 1.18 106.679 0.924 107.175 0.732C107.671 0.532 108.195 0.431999 108.747 0.431999C109.603 0.431999 110.263 0.631999 110.727 1.032C111.191 1.424 111.423 1.984 111.423 2.712C111.423 3.248 111.291 3.76 111.027 4.248C110.771 4.728 110.395 5.224 109.899 5.736L107.247 8.424V8.148H111.783V9H106.251ZM116.014 9.108C115.054 9.108 114.318 8.736 113.806 7.992C113.294 7.248 113.038 6.172 113.038 4.764C113.038 3.348 113.294 2.272 113.806 1.536C114.318 0.799999 115.054 0.431999 116.014 0.431999C116.982 0.431999 117.718 0.799999 118.222 1.536C118.734 2.272 118.99 3.344 118.99 4.752C118.99 6.168 118.734 7.248 118.222 7.992C117.71 8.736 116.974 9.108 116.014 9.108ZM116.014 8.244C116.686 8.244 117.186 7.96 117.514 7.392C117.842 6.824 118.006 5.944 118.006 4.752C118.006 3.552 117.842 2.676 117.514 2.124C117.186 1.564 116.686 1.284 116.014 1.284C115.35 1.284 114.85 1.564 114.514 2.124C114.186 2.684 114.022 3.56 114.022 4.752C114.022 5.944 114.186 6.824 114.514 7.392C114.85 7.96 115.35 8.244 116.014 8.244ZM120.641 9V8.256L123.641 5.124C124.033 4.716 124.325 4.328 124.517 3.96C124.717 3.584 124.817 3.196 124.817 2.796C124.817 2.308 124.665 1.94 124.361 1.692C124.057 1.436 123.617 1.308 123.041 1.308C122.593 1.308 122.177 1.388 121.793 1.548C121.417 1.7 121.053 1.944 120.701 2.28L120.341 1.5C120.661 1.18 121.069 0.924 121.565 0.732C122.061 0.532 122.585 0.431999 123.137 0.431999C123.993 0.431999 124.653 0.631999 125.117 1.032C125.581 1.424 125.813 1.984 125.813 2.712C125.813 3.248 125.681 3.76 125.417 4.248C125.161 4.728 124.785 5.224 124.289 5.736L121.637 8.424V8.148H126.173V9H120.641ZM127.837 9V8.256L130.837 5.124C131.229 4.716 131.521 4.328 131.713 3.96C131.913 3.584 132.013 3.196 132.013 2.796C132.013 2.308 131.861 1.94 131.557 1.692C131.253 1.436 130.813 1.308 130.237 1.308C129.789 1.308 129.373 1.388 128.989 1.548C128.613 1.7 128.249 1.944 127.897 2.28L127.537 1.5C127.857 1.18 128.265 0.924 128.761 0.732C129.257 0.532 129.781 0.431999 130.333 0.431999C131.189 0.431999 131.849 0.631999 132.313 1.032C132.777 1.424 133.009 1.984 133.009 2.712C133.009 3.248 132.877 3.76 132.613 4.248C132.357 4.728 131.981 5.224 131.485 5.736L128.833 8.424V8.148H133.369V9H127.837Z" fill="#8E8E8E"/>
<path d="M10.625 64.25V31.75C5 35 1.25 41.0625 1.25 48C1.25 54.9375 5 61 10.625 64.25Z" fill="#699635"/>
<path d="M20 29.25C16.5625 29.25 13.375 30.1875 10.625 31.75V64.25C13.375 65.875 16.5625 66.75 20 66.75C30.375 66.75 38.75 58.375 38.75 48C38.75 37.625 30.375 29.25 20 29.25Z" fill="#ED4C5C"/>
<path d="M10.625 40.5C6.5 40.5 3.125 43.875 3.125 48C3.125 52.125 6.5 55.5 10.625 55.5C14.75 55.5 18.125 52.125 18.125 48C18.125 43.875 14.75 40.5 10.625 40.5ZM10.625 54.5625C7 54.5625 4.0625 51.625 4.0625 48C4.0625 44.375 7 41.4375 10.625 41.4375C14.25 41.4375 17.1875 44.375 17.1875 48C17.1875 51.625 14.25 54.5625 10.625 54.5625Z" fill="#FFE62E"/>
<path d="M13.1875 55.3125C13.0625 55.4375 12.875 55.4375 12.75 55.3125L4.1875 44C4.0625 43.875 4.0625 43.6875 4.1875 43.5625L4.375 43.375C4.5 43.25 4.6875 43.25 4.8125 43.375L13.375 54.6875C13.5 54.8125 13.5 55 13.375 55.125L13.1875 55.3125" fill="#FFE62E"/>
<path d="M10.75 40.1875C10.9375 40.1875 11.0625 40.3125 11.0625 40.5V55.5C11.0625 55.6875 10.9375 55.8125 10.75 55.8125H10.4375C10.25 55.8125 10.125 55.6875 10.125 55.5V40.5C10.125 40.3125 10.25 40.1875 10.4375 40.1875H10.75Z" fill="#FFE62E"/>
<path d="M18.0625 48.8125L10.625 47.5V48.4375L17.9375 49.75C18.125 49.75 18.25 49.6875 18.3125 49.5L18.375 49.1875C18.375 49.0625 18.25 48.875 18.0625 48.8125M10.625 47.4375L4.75002 43.3125C4.62502 43.1875 4.43752 43.25 4.31252 43.375L4.12502 43.625C4.00002 43.75 4.06252 43.9375 4.18752 44.0625L10.625 48.5625V47.4375" fill="#FFE62E"/>
<path d="M10.375 46.75L4.50002 52.625C4.37502 52.75 4.37502 52.9375 4.50002 53.0625L4.75002 53.3125C4.87502 53.4375 5.06252 53.4375 5.18752 53.3125L10.375 48.125V46.75ZM10.625 43.9375L2.81252 47.625C2.68752 47.6875 2.56252 47.875 2.68752 48.0625L2.81252 48.375C2.87502 48.5 3.06252 48.625 3.25002 48.5L10.625 45V43.9375Z" fill="#FFE62E"/>
<path d="M17.5625 45L10.125 43.6875V44.625L17.4375 45.9375C17.625 45.9375 17.75 45.875 17.8125 45.6875L17.875 45.375C17.8125 45.1875 17.6875 45 17.5625 45M10.5625 52.3125C10.4375 52.375 10.3125 52.5625 10.4375 52.75L10.5625 53.0625C10.625 53.1875 10.8125 53.3125 11 53.1875L17.25 50.3125L17.5625 49.125L10.5625 52.3125M10.5625 50.1875L3.5625 47.625V48.625L10.5625 51.1875V50.1875Z" fill="#FFE62E"/>
<path d="M5.6875 52.25V53.1875L14.9375 53.8125C15.3125 53.5625 15.625 53.25 15.9375 52.9375L5.6875 52.25Z" fill="#FFE62E"/>
<path d="M7.5 44.875V49.25C7.5 51 8.875 52.375 10.625 52.375C12.375 52.375 13.75 51 13.75 49.25V44.875H7.5Z" fill="#262728"/>
<path d="M10.625 53.625C8.1875 53.625 6.25 51.6875 6.25 49.25V43.625H15V49.25C15 51.6875 13.0625 53.625 10.625 53.625ZM8.75 46.125V49.25C8.75 50.3125 9.5625 51.125 10.625 51.125C11.6875 51.125 12.5 50.3125 12.5 49.25V46.125H8.75Z" fill="#ED4C5C"/>
<path d="M10.0625 46.375V47.375C10.0625 47.5625 10.1875 47.6875 10.375 47.6875H10.875C11.0625 47.6875 11.1875 47.5625 11.1875 47.375V46.3125H10.0625V46.375ZM10.0625 47.9375V49C10.0625 49.1875 10.1875 49.3125 10.375 49.3125H10.875C11.0625 49.3125 11.1875 49.1875 11.1875 49V47.9375H10.0625M8.8125 47.9375V49C8.8125 49.1875 8.9375 49.3125 9.125 49.3125H9.625C9.8125 49.3125 9.9375 49.1875 9.9375 49V47.9375H8.8125ZM11.3125 47.9375V49C11.3125 49.1875 11.4375 49.3125 11.625 49.3125H12.125C12.3125 49.3125 12.4375 49.1875 12.4375 49V47.9375H11.3125ZM10.0625 49.4375V50.5C10.0625 50.6875 10.1875 50.8125 10.375 50.8125H10.875C11.0625 50.8125 11.1875 50.6875 11.1875 50.5V49.4375H10.0625" fill="#0071BC"/>
<path d="M10.625 48.6875C10.694 48.6875 10.75 48.6315 10.75 48.5625C10.75 48.4935 10.694 48.4375 10.625 48.4375C10.556 48.4375 10.5 48.4935 10.5 48.5625C10.5 48.6315 10.556 48.6875 10.625 48.6875Z" fill="#262728"/>
<path d="M10.375 49C10.444 49 10.5 48.944 10.5 48.875C10.5 48.806 10.444 48.75 10.375 48.75C10.306 48.75 10.25 48.806 10.25 48.875C10.25 48.944 10.306 49 10.375 49Z" fill="#262728"/>
<path d="M10.875 49C10.944 49 11 48.944 11 48.875C11 48.806 10.944 48.75 10.875 48.75C10.806 48.75 10.75 48.806 10.75 48.875C10.75 48.944 10.806 49 10.875 49Z" fill="#262728"/>
<path d="M10.375 48.375C10.444 48.375 10.5 48.319 10.5 48.25C10.5 48.181 10.444 48.125 10.375 48.125C10.306 48.125 10.25 48.181 10.25 48.25C10.25 48.319 10.306 48.375 10.375 48.375Z" fill="#262728"/>
<path d="M10.875 48.375C10.944 48.375 11 48.319 11 48.25C11 48.181 10.944 48.125 10.875 48.125C10.806 48.125 10.75 48.181 10.75 48.25C10.75 48.319 10.806 48.375 10.875 48.375Z" fill="#262728"/>
<path d="M10.625 47.125C10.694 47.125 10.75 47.069 10.75 47C10.75 46.931 10.694 46.875 10.625 46.875C10.556 46.875 10.5 46.931 10.5 47C10.5 47.069 10.556 47.125 10.625 47.125Z" fill="#262728"/>
<path d="M10.375 47.4375C10.444 47.4375 10.5 47.3815 10.5 47.3125C10.5 47.2435 10.444 47.1875 10.375 47.1875C10.306 47.1875 10.25 47.2435 10.25 47.3125C10.25 47.3815 10.306 47.4375 10.375 47.4375Z" fill="#262728"/>
<path d="M10.875 47.4375C10.944 47.4375 11 47.3815 11 47.3125C11 47.2435 10.944 47.1875 10.875 47.1875C10.806 47.1875 10.75 47.2435 10.75 47.3125C10.75 47.3815 10.806 47.4375 10.875 47.4375Z" fill="#262728"/>
<path d="M10.375 46.8125C10.444 46.8125 10.5 46.7565 10.5 46.6875C10.5 46.6185 10.444 46.5625 10.375 46.5625C10.306 46.5625 10.25 46.6185 10.25 46.6875C10.25 46.7565 10.306 46.8125 10.375 46.8125Z" fill="#262728"/>
<path d="M10.875 46.8125C10.944 46.8125 11 46.7565 11 46.6875C11 46.6185 10.944 46.5625 10.875 46.5625C10.806 46.5625 10.75 46.6185 10.75 46.6875C10.75 46.7565 10.806 46.8125 10.875 46.8125Z" fill="#262728"/>
<path d="M11.875 48.6875C11.944 48.6875 12 48.6315 12 48.5625C12 48.4935 11.944 48.4375 11.875 48.4375C11.806 48.4375 11.75 48.4935 11.75 48.5625C11.75 48.6315 11.806 48.6875 11.875 48.6875Z" fill="#262728"/>
<path d="M11.625 49C11.694 49 11.75 48.944 11.75 48.875C11.75 48.806 11.694 48.75 11.625 48.75C11.556 48.75 11.5 48.806 11.5 48.875C11.5 48.944 11.556 49 11.625 49Z" fill="#262728"/>
<path d="M12.125 49C12.194 49 12.25 48.944 12.25 48.875C12.25 48.806 12.194 48.75 12.125 48.75C12.056 48.75 12 48.806 12 48.875C12 48.944 12.056 49 12.125 49Z" fill="#262728"/>
<path d="M11.625 48.375C11.694 48.375 11.75 48.319 11.75 48.25C11.75 48.181 11.694 48.125 11.625 48.125C11.556 48.125 11.5 48.181 11.5 48.25C11.5 48.319 11.556 48.375 11.625 48.375Z" fill="#262728"/>
<path d="M12.125 48.375C12.194 48.375 12.25 48.319 12.25 48.25C12.25 48.181 12.194 48.125 12.125 48.125C12.056 48.125 12 48.181 12 48.25C12 48.319 12.056 48.375 12.125 48.375Z" fill="#262728"/>
<path d="M9.375 48.6875C9.44404 48.6875 9.5 48.6315 9.5 48.5625C9.5 48.4935 9.44404 48.4375 9.375 48.4375C9.30596 48.4375 9.25 48.4935 9.25 48.5625C9.25 48.6315 9.30596 48.6875 9.375 48.6875Z" fill="#262728"/>
<path d="M9.125 49C9.19404 49 9.25 48.944 9.25 48.875C9.25 48.806 9.19404 48.75 9.125 48.75C9.05596 48.75 9 48.806 9 48.875C9 48.944 9.05596 49 9.125 49Z" fill="#262728"/>
<path d="M9.625 49C9.69404 49 9.75 48.944 9.75 48.875C9.75 48.806 9.69404 48.75 9.625 48.75C9.55596 48.75 9.5 48.806 9.5 48.875C9.5 48.944 9.55596 49 9.625 49Z" fill="#262728"/>
<path d="M9.125 48.375C9.19404 48.375 9.25 48.319 9.25 48.25C9.25 48.181 9.19404 48.125 9.125 48.125C9.05596 48.125 9 48.181 9 48.25C9 48.319 9.05596 48.375 9.125 48.375Z" fill="#262728"/>
<path d="M9.625 48.375C9.69404 48.375 9.75 48.319 9.75 48.25C9.75 48.181 9.69404 48.125 9.625 48.125C9.55596 48.125 9.5 48.181 9.5 48.25C9.5 48.319 9.55596 48.375 9.625 48.375Z" fill="#262728"/>
<path d="M10.625 50.25C10.694 50.25 10.75 50.194 10.75 50.125C10.75 50.056 10.694 50 10.625 50C10.556 50 10.5 50.056 10.5 50.125C10.5 50.194 10.556 50.25 10.625 50.25Z" fill="#262728"/>
<path d="M10.375 50.5625C10.444 50.5625 10.5 50.5065 10.5 50.4375C10.5 50.3685 10.444 50.3125 10.375 50.3125C10.306 50.3125 10.25 50.3685 10.25 50.4375C10.25 50.5065 10.306 50.5625 10.375 50.5625Z" fill="#262728"/>
<path d="M10.875 50.5625C10.944 50.5625 11 50.5065 11 50.4375C11 50.3685 10.944 50.3125 10.875 50.3125C10.806 50.3125 10.75 50.3685 10.75 50.4375C10.75 50.5065 10.806 50.5625 10.875 50.5625Z" fill="#262728"/>
<path d="M10.375 49.9375C10.444 49.9375 10.5 49.8815 10.5 49.8125C10.5 49.7435 10.444 49.6875 10.375 49.6875C10.306 49.6875 10.25 49.7435 10.25 49.8125C10.25 49.8815 10.306 49.9375 10.375 49.9375Z" fill="#262728"/>
<path d="M10.875 49.9375C10.944 49.9375 11 49.8815 11 49.8125C11 49.7435 10.944 49.6875 10.875 49.6875C10.806 49.6875 10.75 49.7435 10.75 49.8125C10.75 49.8815 10.806 49.9375 10.875 49.9375Z" fill="#262728"/>
<path d="M10 45.5H11.25L11.125 44.875V44.25H11.25V43.9375H11.0625V44.125H11V43.9375H10.8125V44.125H10.6875V43.9375H10.5625V44.125H10.4375V43.9375H10.25V44.125H10.125V43.9375H10V44.25H10.125V44.875L10 45.5Z" fill="#FFE62E"/>
<path d="M10.8125 45.5H10.75V45.25C10.75 45.1875 10.6875 45.125 10.625 45.125C10.5625 45.125 10.5 45.1875 10.5 45.25V45.5H10.4375V45.25C10.4375 45.125 10.5 45.0625 10.625 45.0625C10.75 45.0625 10.8125 45.125 10.8125 45.25V45.5ZM10.625 44.8125H10.25V44.5C10.25 44.375 10.3125 44.3125 10.4375 44.3125C10.5625 44.3125 10.625 44.375 10.625 44.5V44.8125ZM10.3125 44.75H10.5625V44.5C10.5625 44.4375 10.5 44.375 10.4375 44.375C10.375 44.375 10.3125 44.4375 10.3125 44.5V44.75ZM11 44.8125H10.625V44.5C10.625 44.375 10.6875 44.3125 10.8125 44.3125C10.9375 44.3125 11 44.375 11 44.5V44.8125ZM10.6875 44.75H10.9375V44.5C10.9375 44.4375 10.875 44.375 10.8125 44.375C10.75 44.375 10.6875 44.4375 10.6875 44.5V44.75Z" fill="#3E4347"/>
<path d="M6.875 45.5H8.125L8 44.875V44.25H8.125V43.9375H7.9375V44.125H7.875V43.9375H7.6875V44.125H7.5625V43.9375H7.4375V44.125H7.3125V43.9375H7.125V44.125H7V43.9375H6.875V44.25H7V44.875L6.875 45.5Z" fill="#FFE62E"/>
<path d="M7.6875 45.5H7.625V45.25C7.625 45.1875 7.5625 45.125 7.5 45.125C7.4375 45.125 7.375 45.1875 7.375 45.25V45.5H7.3125V45.25C7.3125 45.125 7.375 45.0625 7.5 45.0625C7.625 45.0625 7.6875 45.125 7.6875 45.25V45.5M7.5 44.8125H7.125V44.5C7.125 44.375 7.1875 44.3125 7.3125 44.3125C7.4375 44.3125 7.5 44.375 7.5 44.5V44.8125M7.1875 44.75H7.4375V44.5C7.4375 44.4375 7.375 44.375 7.3125 44.375C7.25 44.375 7.1875 44.4375 7.1875 44.5V44.75" fill="#3E4347"/>
<path d="M7.875 44.8125H7.5V44.5C7.5 44.375 7.5625 44.3125 7.6875 44.3125C7.8125 44.3125 7.875 44.375 7.875 44.5V44.8125M7.5625 44.75H7.8125V44.5C7.8125 44.4375 7.75 44.375 7.6875 44.375C7.625 44.375 7.5625 44.4375 7.5625 44.5V44.75" fill="#3E4347"/>
<path d="M6.875 49.1875H8.125L8 48.5625V47.9375H8.125V47.625H8V47.8125H7.875V47.625H7.75V47.8125H7.5625V47.625H7.4375V47.8125H7.3125V47.625H7.1875V47.8125H7.0625V47.625H6.875V47.9375H7.0625V48.5625L6.875 49.1875Z" fill="#FFE62E"/>
<path d="M7.6875 49.1875H7.625V48.9375C7.625 48.875 7.5625 48.8125 7.5 48.8125C7.4375 48.8125 7.375 48.875 7.375 48.9375V49.1875H7.3125V48.9375C7.3125 48.8125 7.375 48.75 7.5 48.75C7.625 48.75 7.6875 48.8125 7.6875 48.9375V49.1875M7.5 48.5H7.125V48.1875C7.125 48.0625 7.1875 48 7.3125 48C7.4375 48 7.5 48.0625 7.5 48.1875V48.5M7.1875 48.4375H7.4375V48.1875C7.4375 48.125 7.375 48.0625 7.3125 48.0625C7.25 48.0625 7.1875 48.125 7.1875 48.1875V48.4375M7.9375 48.5H7.5625V48.1875C7.5625 48.0625 7.625 48 7.75 48C7.875 48 7.9375 48.0625 7.9375 48.1875V48.5M7.625 48.4375H7.875V48.1875C7.875 48.125 7.8125 48.0625 7.75 48.0625C7.6875 48.0625 7.625 48.125 7.625 48.1875V48.4375" fill="#3E4347"/>
<path d="M13.125 49.25H14.375L14.25 48.625V48H14.375V47.75H14.1875V47.875H14.125V47.75H13.9375V47.875H13.8125V47.75H13.6875V47.875H13.5625V47.75H13.375V47.875H13.25V47.75H13.125V48H13.25V48.625L13.125 49.25Z" fill="#FFE62E"/>
<path d="M13.9375 49.25H13.875V49C13.875 48.9375 13.8125 48.875 13.75 48.875C13.6875 48.875 13.625 48.9375 13.625 49V49.25H13.5625V49C13.5625 48.875 13.625 48.8125 13.75 48.8125C13.875 48.8125 13.9375 48.875 13.9375 49V49.25ZM13.75 48.5625H13.375V48.25C13.375 48.125 13.4375 48.0625 13.5625 48.0625C13.6875 48.0625 13.75 48.125 13.75 48.25V48.5625ZM13.4375 48.5H13.6875V48.25C13.6875 48.1875 13.625 48.125 13.5625 48.125C13.5 48.125 13.4375 48.1875 13.4375 48.25V48.5ZM14.125 48.5625H13.75V48.25C13.75 48.125 13.8125 48.0625 13.9375 48.0625C14.0625 48.0625 14.125 48.125 14.125 48.25V48.5625ZM13.8125 48.5H14.0625V48.25C14.0625 48.1875 14 48.125 13.9375 48.125C13.875 48.125 13.8125 48.1875 13.8125 48.25V48.5Z" fill="#3E4347"/>
<path d="M13.125 45.5H14.375L14.25 44.875V44.25H14.375V43.9375H14.1875V44.125H14.125V43.9375H13.9375V44.125H13.8125V43.9375H13.6875V44.125H13.5625V43.9375H13.375V44.125H13.25V43.9375H13.125V44.25H13.25V44.875L13.125 45.5Z" fill="#FFE62E"/>
<path d="M13.9375 45.5H13.875V45.25C13.875 45.1875 13.8125 45.125 13.75 45.125C13.6875 45.125 13.625 45.1875 13.625 45.25V45.5H13.5625V45.25C13.5625 45.125 13.625 45.0625 13.75 45.0625C13.875 45.0625 13.9375 45.125 13.9375 45.25V45.5ZM13.75 44.8125H13.375V44.5C13.375 44.375 13.4375 44.3125 13.5625 44.3125C13.6875 44.3125 13.75 44.375 13.75 44.5V44.8125ZM13.4375 44.75H13.6875V44.5C13.6875 44.4375 13.625 44.375 13.5625 44.375C13.5 44.375 13.4375 44.4375 13.4375 44.5V44.75ZM14.125 44.8125H13.75V44.5C13.75 44.375 13.8125 44.3125 13.9375 44.3125C14.0625 44.3125 14.125 44.375 14.125 44.5V44.8125ZM13.8125 44.75H14.0625V44.5C14.0625 44.4375 14 44.375 13.9375 44.375C13.875 44.375 13.8125 44.4375 13.8125 44.5V44.75Z" fill="#3E4347"/>
<path d="M8.875 52.75L9.75 51.8125L9.1875 51.5L8.75 51.0625L8.875 50.9375L8.6875 50.75L8.5625 50.875L8.6875 51L8.625 51.0625L8.5 50.9375L8.375 51.0625L8.5 51.125L8.375 51.25L8.3125 51.125L8.1875 51.25L8.3125 51.375L8.1875 51.4375L8.125 51.3125L8 51.4375L8.0625 51.5625L8 51.625L7.9375 51.5L7.8125 51.625L8 51.8125H8.0625L8.125 51.75L8.5625 52.1875L8.875 52.75Z" fill="#FFE62E"/>
<path d="M9.4375 52.125L9.1875 52C9.125 51.9375 9.0625 51.9375 9 52C8.9375 52.0625 8.9375 52.125 9 52.1875L9.1875 52.375L9.125 52.4375L8.9375 52.25C8.875 52.1875 8.875 52.0625 8.9375 52C9 51.9375 9.125 51.9375 9.1875 52L9.4375 52.125ZM8.8125 51.8125L8.5625 52.0625L8.375 51.875C8.3125 51.8125 8.3125 51.6875 8.375 51.625C8.4375 51.5625 8.5625 51.5625 8.625 51.625L8.8125 51.8125ZM8.5625 52L8.75 51.8125L8.5625 51.625C8.5 51.5625 8.4375 51.5625 8.375 51.625C8.3125 51.6875 8.3125 51.75 8.375 51.8125L8.5625 52ZM9.125 51.5L8.875 51.75L8.6875 51.5625C8.625 51.5 8.625 51.375 8.6875 51.3125C8.75 51.25 8.875 51.25 8.9375 51.3125L9.125 51.5ZM8.875 51.6875L9.0625 51.5L8.875 51.3125C8.8125 51.25 8.75 51.25 8.6875 51.3125C8.625 51.375 8.625 51.4375 8.6875 51.5L8.875 51.6875Z" fill="#3E4347"/>
<path d="M12.375 52.75L11.5 51.8125L12 51.5L12.4375 51.0625L12.375 50.9375L12.5625 50.75L12.6875 50.875L12.5625 51L12.625 51.0625L12.75 50.9375L12.875 51.0625L12.75 51.125L12.875 51.25L12.9375 51.125L13.0625 51.25L12.9375 51.375L13.0625 51.4375L13.125 51.3125L13.25 51.4375L13.125 51.5625L13.25 51.625L13.3125 51.5L13.4375 51.625L13.25 51.8125H13.1875L13.125 51.75L12.6875 52.1875L12.375 52.75Z" fill="#FFE62E"/>
<path d="M11.8125 52.125L12.0625 52C12.125 51.9375 12.1875 51.9375 12.25 52C12.3125 52.0625 12.3125 52.125 12.25 52.1875L12 52.375L12.0625 52.4375L12.25 52.25C12.3125 52.1875 12.3125 52.0625 12.25 52C12.1875 51.9375 12.0625 51.9375 12 52L11.8125 52.125M12.625 51.625C12.6875 51.5625 12.8125 51.5625 12.875 51.625C12.9375 51.6875 12.9375 51.8125 12.875 51.875L12.6875 52.0625L12.4375 51.8125L12.625 51.625ZM12.8125 51.8125C12.875 51.75 12.875 51.6875 12.8125 51.625C12.75 51.5625 12.6875 51.5625 12.625 51.625L12.5 51.8125L12.6875 52L12.8125 51.8125ZM12.3125 51.3125C12.375 51.25 12.5 51.25 12.5625 51.3125C12.625 51.375 12.625 51.5 12.5625 51.5625L12.375 51.75L12.125 51.5L12.3125 51.3125ZM12.5625 51.5C12.625 51.4375 12.625 51.375 12.5625 51.3125C12.5 51.25 12.4375 51.25 12.375 51.3125L12.1875 51.5L12.375 51.6875L12.5625 51.5Z" fill="#3E4347"/>
<path d="M57.488 54V42.72H61.872C63.0347 42.72 63.9307 42.9973 64.56 43.552C65.2 44.1067 65.52 44.8853 65.52 45.888C65.52 46.8693 65.2 47.6427 64.56 48.208C63.9307 48.7733 63.0347 49.056 61.872 49.056H58.48V54H57.488ZM58.48 48.192H61.808C62.6933 48.192 63.3653 47.9947 63.824 47.6C64.2827 47.1947 64.512 46.624 64.512 45.888C64.512 45.152 64.2827 44.5813 63.824 44.176C63.3653 43.7707 62.6933 43.568 61.808 43.568H58.48V48.192ZM70.4648 54.128C69.7074 54.128 69.0514 53.9627 68.4968 53.632C67.9528 53.3013 67.5314 52.8267 67.2328 52.208C66.9341 51.5893 66.7848 50.848 66.7848 49.984C66.7848 49.1307 66.9341 48.3947 67.2328 47.776C67.5314 47.1573 67.9528 46.6827 68.4968 46.352C69.0514 46.0107 69.7074 45.84 70.4648 45.84C71.2114 45.84 71.8568 46.0107 72.4008 46.352C72.9554 46.6827 73.3821 47.1573 73.6808 47.776C73.9901 48.3947 74.1448 49.1307 74.1448 49.984C74.1448 50.848 73.9901 51.5893 73.6808 52.208C73.3821 52.8267 72.9554 53.3013 72.4008 53.632C71.8568 53.9627 71.2114 54.128 70.4648 54.128ZM70.4648 53.296C71.2754 53.296 71.9261 53.0133 72.4168 52.448C72.9074 51.8827 73.1528 51.0613 73.1528 49.984C73.1528 48.9067 72.9074 48.0853 72.4168 47.52C71.9261 46.9547 71.2754 46.672 70.4648 46.672C69.6434 46.672 68.9874 46.9547 68.4968 47.52C68.0168 48.0853 67.7768 48.9067 67.7768 49.984C67.7768 51.0613 68.0168 51.8827 68.4968 52.448C68.9874 53.0133 69.6434 53.296 70.4648 53.296ZM76.2651 54V47.856C76.2651 47.5467 76.2545 47.2373 76.2331 46.928C76.2225 46.608 76.1958 46.2933 76.1531 45.984H77.1131L77.2411 47.824L77.0491 47.84C77.1558 47.392 77.3478 47.024 77.6251 46.736C77.9025 46.4373 78.2225 46.2133 78.5851 46.064C78.9478 45.9147 79.3211 45.84 79.7051 45.84C79.8438 45.84 79.9718 45.8507 80.0891 45.872C80.2171 45.8827 80.3345 45.904 80.4411 45.936L80.4091 46.816C80.2811 46.7733 80.1531 46.7467 80.0251 46.736C79.8971 46.7253 79.7585 46.72 79.6091 46.72C79.1291 46.72 78.7078 46.8373 78.3451 47.072C77.9931 47.3067 77.7211 47.6053 77.5291 47.968C77.3371 48.3307 77.2411 48.6987 77.2411 49.072V54H76.2651ZM84.8731 54.128C84.1585 54.128 83.6091 53.9147 83.2251 53.488C82.8518 53.0613 82.6651 52.4053 82.6651 51.52V46.768H81.0651V45.984H82.6651V43.744L83.6411 43.424V45.984H86.0091V46.768H83.6411V51.376C83.6411 52.048 83.7478 52.5333 83.9611 52.832C84.1745 53.1307 84.5158 53.28 84.9851 53.28C85.1985 53.28 85.3851 53.2587 85.5451 53.216C85.7158 53.1733 85.8598 53.1253 85.9771 53.072V53.936C85.8491 53.9893 85.6838 54.032 85.4811 54.064C85.2785 54.1067 85.0758 54.128 84.8731 54.128ZM90.4878 54.128C89.5491 54.128 88.8344 53.8773 88.3438 53.376C87.8638 52.864 87.6238 52.08 87.6238 51.024V45.984H88.5998V50.96C88.5998 51.7707 88.7651 52.3627 89.0958 52.736C89.4264 53.1093 89.9331 53.296 90.6158 53.296C91.3731 53.296 91.9811 53.0507 92.4398 52.56C92.9091 52.0587 93.1438 51.3973 93.1438 50.576V45.984H94.1198V54H93.1598V52.112H93.3678C93.1438 52.7627 92.7758 53.264 92.2638 53.616C91.7624 53.9573 91.1704 54.128 90.4878 54.128ZM100.237 57.568C99.5651 57.568 98.9358 57.4773 98.3491 57.296C97.7731 57.1147 97.2558 56.8427 96.7971 56.48L97.1491 55.728C97.4905 55.9733 97.8158 56.1653 98.1251 56.304C98.4451 56.4533 98.7758 56.56 99.1171 56.624C99.4585 56.6987 99.8265 56.736 100.221 56.736C101.032 56.736 101.645 56.5173 102.061 56.08C102.477 55.6533 102.685 55.0347 102.685 54.224V51.68H102.861C102.69 52.352 102.333 52.88 101.789 53.264C101.245 53.6373 100.605 53.824 99.8691 53.824C99.1331 53.824 98.4931 53.664 97.9491 53.344C97.4158 53.0133 96.9998 52.5493 96.7011 51.952C96.4131 51.344 96.2691 50.6347 96.2691 49.824C96.2691 49.0133 96.4131 48.3093 96.7011 47.712C96.9998 47.1147 97.4158 46.656 97.9491 46.336C98.4931 46.0053 99.1331 45.84 99.8691 45.84C100.605 45.84 101.245 46.032 101.789 46.416C102.333 46.7893 102.69 47.3173 102.861 48L102.685 47.824L102.829 45.984H103.789C103.746 46.2933 103.714 46.5973 103.693 46.896C103.672 47.1947 103.661 47.488 103.661 47.776V54.08C103.661 55.232 103.368 56.1013 102.781 56.688C102.205 57.2747 101.357 57.568 100.237 57.568ZM99.9811 52.992C100.813 52.992 101.469 52.7147 101.949 52.16C102.44 51.6053 102.685 50.8267 102.685 49.824C102.685 48.832 102.44 48.0587 101.949 47.504C101.469 46.9493 100.813 46.672 99.9811 46.672C99.1491 46.672 98.4878 46.9493 97.9971 47.504C97.5065 48.0587 97.2611 48.832 97.2611 49.824C97.2611 50.8267 97.5065 51.6053 97.9971 52.16C98.4878 52.7147 99.1491 52.992 99.9811 52.992ZM109.337 54.128C108.611 54.128 107.982 53.9627 107.449 53.632C106.915 53.3013 106.505 52.8267 106.217 52.208C105.929 51.5893 105.785 50.848 105.785 49.984C105.785 49.12 105.929 48.384 106.217 47.776C106.515 47.1573 106.931 46.6827 107.465 46.352C107.998 46.0107 108.622 45.84 109.337 45.84C110.073 45.84 110.707 46.032 111.241 46.416C111.785 46.8 112.142 47.3227 112.313 47.984H112.121L112.281 45.984H113.225C113.193 46.2933 113.161 46.5973 113.129 46.896C113.107 47.1947 113.097 47.488 113.097 47.776V54H112.121V52H112.297C112.126 52.6613 111.769 53.184 111.225 53.568C110.691 53.9413 110.062 54.128 109.337 54.128ZM109.465 53.296C110.286 53.296 110.937 53.0133 111.417 52.448C111.897 51.8827 112.137 51.0613 112.137 49.984C112.137 48.9067 111.897 48.0853 111.417 47.52C110.937 46.9547 110.286 46.672 109.465 46.672C108.643 46.672 107.987 46.9547 107.497 47.52C107.017 48.0853 106.777 48.9067 106.777 49.984C106.777 51.0613 107.017 51.8827 107.497 52.448C107.987 53.0133 108.643 53.296 109.465 53.296ZM115.75 54V42.224H116.726V54H115.75Z" fill="#8E8E8E"/>
<path d="M9.86119 87L6.20119 78.54H7.00519L10.4012 86.472H10.0772L13.4972 78.54H14.2772L10.5932 87H9.86119ZM18.0186 87.096C17.3386 87.096 16.7386 87.008 16.2186 86.832C15.6986 86.656 15.2346 86.4 14.8266 86.064L15.1386 85.452C15.4266 85.676 15.7066 85.86 15.9786 86.004C16.2586 86.148 16.5626 86.256 16.8906 86.328C17.2186 86.392 17.5906 86.424 18.0066 86.424C18.7506 86.424 19.3106 86.28 19.6866 85.992C20.0626 85.696 20.2506 85.308 20.2506 84.828C20.2506 84.412 20.1186 84.096 19.8546 83.88C19.5986 83.656 19.1466 83.48 18.4986 83.352L17.2746 83.1C16.4986 82.94 15.9186 82.684 15.5346 82.332C15.1586 81.98 14.9706 81.5 14.9706 80.892C14.9706 80.396 15.0986 79.964 15.3546 79.596C15.6106 79.228 15.9666 78.944 16.4226 78.744C16.8786 78.544 17.4066 78.444 18.0066 78.444C18.6066 78.444 19.1506 78.536 19.6386 78.72C20.1346 78.896 20.5586 79.16 20.9106 79.512L20.6106 80.112C20.2346 79.76 19.8386 79.508 19.4226 79.356C19.0066 79.196 18.5346 79.116 18.0066 79.116C17.3106 79.116 16.7586 79.276 16.3506 79.596C15.9426 79.908 15.7386 80.332 15.7386 80.868C15.7386 81.3 15.8666 81.636 16.1226 81.876C16.3866 82.116 16.8106 82.296 17.3946 82.416L18.6306 82.668C19.4546 82.836 20.0586 83.084 20.4426 83.412C20.8266 83.732 21.0186 84.192 21.0186 84.792C21.0186 85.248 20.8946 85.652 20.6466 86.004C20.4066 86.348 20.0626 86.616 19.6146 86.808C19.1666 87 18.6346 87.096 18.0186 87.096Z" fill="#8E8E8E"/>
<path d="M20 135.75C30.3553 135.75 38.75 127.355 38.75 117C38.75 106.645 30.3553 98.25 20 98.25C9.64466 98.25 1.25 106.645 1.25 117C1.25 127.355 9.64466 135.75 20 135.75Z" fill="#F42F4C"/>
<path d="M14.5625 124.5L16.625 118.312L11.25 114.437H17.9375L20 108.25L22.0625 114.437H28.75L23.3125 118.25L25.375 124.438L20 120.688L14.5625 124.5M21.125 119.875L22.8125 121.062L22.1875 119.125L21.125 119.875ZM17.8125 119.125L17.1875 121.062L18.875 119.875L17.8125 119.125ZM18.25 117.812L20 119.062L21.75 117.812L21.0625 115.813H18.875L18.25 117.812ZM15.4375 115.813L17.125 117L17.5 115.813H15.4375ZM22.875 117L24.5625 115.813H22.5L22.875 117ZM19.375 114.437H20.625L20 112.5L19.375 114.437Z" fill="#4F682E"/>
<path d="M57.488 123V111.72H58.352L63.056 122.344H62.592L67.312 111.72H68.16V123H67.248V112.888H67.68L63.184 123H62.464L57.968 112.888H58.4V123H57.488ZM74.1366 123.128C73.3793 123.128 72.7233 122.963 72.1686 122.632C71.6246 122.301 71.2033 121.827 70.9046 121.208C70.606 120.589 70.4566 119.848 70.4566 118.984C70.4566 118.131 70.606 117.395 70.9046 116.776C71.2033 116.157 71.6246 115.683 72.1686 115.352C72.7233 115.011 73.3793 114.84 74.1366 114.84C74.8833 114.84 75.5286 115.011 76.0726 115.352C76.6273 115.683 77.054 116.157 77.3526 116.776C77.662 117.395 77.8166 118.131 77.8166 118.984C77.8166 119.848 77.662 120.589 77.3526 121.208C77.054 121.827 76.6273 122.301 76.0726 122.632C75.5286 122.963 74.8833 123.128 74.1366 123.128ZM74.1366 122.296C74.9473 122.296 75.598 122.013 76.0886 121.448C76.5793 120.883 76.8246 120.061 76.8246 118.984C76.8246 117.907 76.5793 117.085 76.0886 116.52C75.598 115.955 74.9473 115.672 74.1366 115.672C73.3153 115.672 72.6593 115.955 72.1686 116.52C71.6886 117.085 71.4486 117.907 71.4486 118.984C71.4486 120.061 71.6886 120.883 72.1686 121.448C72.6593 122.013 73.3153 122.296 74.1366 122.296ZM79.937 123V116.856C79.937 116.547 79.9263 116.237 79.905 115.928C79.8943 115.608 79.8677 115.293 79.825 114.984H80.785L80.913 116.824L80.721 116.84C80.8277 116.392 81.0197 116.024 81.297 115.736C81.5743 115.437 81.8943 115.213 82.257 115.064C82.6197 114.915 82.993 114.84 83.377 114.84C83.5157 114.84 83.6437 114.851 83.761 114.872C83.889 114.883 84.0063 114.904 84.113 114.936L84.081 115.816C83.953 115.773 83.825 115.747 83.697 115.736C83.569 115.725 83.4303 115.72 83.281 115.72C82.801 115.72 82.3797 115.837 82.017 116.072C81.665 116.307 81.393 116.605 81.201 116.968C81.009 117.331 80.913 117.699 80.913 118.072V123H79.937ZM88.6054 123.128C87.848 123.128 87.192 122.963 86.6374 122.632C86.0934 122.301 85.672 121.827 85.3734 121.208C85.0747 120.589 84.9254 119.848 84.9254 118.984C84.9254 118.131 85.0747 117.395 85.3734 116.776C85.672 116.157 86.0934 115.683 86.6374 115.352C87.192 115.011 87.848 114.84 88.6054 114.84C89.352 114.84 89.9974 115.011 90.5414 115.352C91.096 115.683 91.5227 116.157 91.8214 116.776C92.1307 117.395 92.2854 118.131 92.2854 118.984C92.2854 119.848 92.1307 120.589 91.8214 121.208C91.5227 121.827 91.096 122.301 90.5414 122.632C89.9974 122.963 89.352 123.128 88.6054 123.128ZM88.6054 122.296C89.416 122.296 90.0667 122.013 90.5574 121.448C91.048 120.883 91.2934 120.061 91.2934 118.984C91.2934 117.907 91.048 117.085 90.5574 116.52C90.0667 115.955 89.416 115.672 88.6054 115.672C87.784 115.672 87.128 115.955 86.6374 116.52C86.1574 117.085 85.9174 117.907 85.9174 118.984C85.9174 120.061 86.1574 120.883 86.6374 121.448C87.128 122.013 87.784 122.296 88.6054 122.296ZM97.6538 123.128C96.8964 123.128 96.2351 122.963 95.6698 122.632C95.1044 122.291 94.6671 121.805 94.3578 121.176C94.0591 120.547 93.9098 119.8 93.9098 118.936C93.9098 118.072 94.0644 117.336 94.3738 116.728C94.6831 116.109 95.1151 115.64 95.6698 115.32C96.2351 115 96.8964 114.84 97.6538 114.84C98.1658 114.84 98.6564 114.936 99.1258 115.128C99.6058 115.32 100 115.587 100.31 115.928L99.9098 116.648C99.5791 116.317 99.2218 116.077 98.8378 115.928C98.4538 115.768 98.0698 115.688 97.6858 115.688C96.8111 115.688 96.1284 115.965 95.6378 116.52C95.1471 117.075 94.9018 117.885 94.9018 118.952C94.9018 120.019 95.1471 120.845 95.6378 121.432C96.1284 122.008 96.8111 122.296 97.6858 122.296C98.0484 122.296 98.4218 122.221 98.8058 122.072C99.2004 121.923 99.5684 121.677 99.9098 121.336L100.31 122.056C99.9898 122.397 99.5844 122.664 99.0938 122.856C98.6138 123.037 98.1338 123.128 97.6538 123.128ZM105.357 123.128C104.6 123.128 103.938 122.963 103.373 122.632C102.808 122.291 102.37 121.805 102.061 121.176C101.762 120.547 101.613 119.8 101.613 118.936C101.613 118.072 101.768 117.336 102.077 116.728C102.386 116.109 102.818 115.64 103.373 115.32C103.938 115 104.6 114.84 105.357 114.84C105.869 114.84 106.36 114.936 106.829 115.128C107.309 115.32 107.704 115.587 108.013 115.928L107.613 116.648C107.282 116.317 106.925 116.077 106.541 115.928C106.157 115.768 105.773 115.688 105.389 115.688C104.514 115.688 103.832 115.965 103.341 116.52C102.85 117.075 102.605 117.885 102.605 118.952C102.605 120.019 102.85 120.845 103.341 121.432C103.832 122.008 104.514 122.296 105.389 122.296C105.752 122.296 106.125 122.221 106.509 122.072C106.904 121.923 107.272 121.677 107.613 121.336L108.013 122.056C107.693 122.397 107.288 122.664 106.797 122.856C106.317 123.037 105.837 123.128 105.357 123.128ZM112.996 123.128C112.239 123.128 111.583 122.963 111.028 122.632C110.484 122.301 110.063 121.827 109.764 121.208C109.465 120.589 109.316 119.848 109.316 118.984C109.316 118.131 109.465 117.395 109.764 116.776C110.063 116.157 110.484 115.683 111.028 115.352C111.583 115.011 112.239 114.84 112.996 114.84C113.743 114.84 114.388 115.011 114.932 115.352C115.487 115.683 115.913 116.157 116.212 116.776C116.521 117.395 116.676 118.131 116.676 118.984C116.676 119.848 116.521 120.589 116.212 121.208C115.913 121.827 115.487 122.301 114.932 122.632C114.388 122.963 113.743 123.128 112.996 123.128ZM112.996 122.296C113.807 122.296 114.457 122.013 114.948 121.448C115.439 120.883 115.684 120.061 115.684 118.984C115.684 117.907 115.439 117.085 114.948 116.52C114.457 115.955 113.807 115.672 112.996 115.672C112.175 115.672 111.519 115.955 111.028 116.52C110.548 117.085 110.308 117.907 110.308 118.984C110.308 120.061 110.548 120.883 111.028 121.448C111.519 122.013 112.175 122.296 112.996 122.296Z" fill="#8E8E8E"/>
<path d="M215.505 56.716C213.553 56.716 212.049 55.972 210.993 54.484C209.953 52.98 209.433 50.828 209.433 48.028C209.433 45.18 209.953 43.028 210.993 41.572C212.049 40.1 213.553 39.364 215.505 39.364C217.473 39.364 218.977 40.1 220.017 41.572C221.057 43.028 221.577 45.172 221.577 48.004C221.577 50.82 221.049 52.98 219.993 54.484C218.953 55.972 217.457 56.716 215.505 56.716ZM215.505 54.628C216.737 54.628 217.649 54.092 218.241 53.02C218.849 51.948 219.153 50.276 219.153 48.004C219.153 45.716 218.849 44.052 218.241 43.012C217.649 41.956 216.737 41.428 215.505 41.428C214.289 41.428 213.377 41.956 212.769 43.012C212.161 44.052 211.857 45.708 211.857 47.98C211.857 50.268 212.161 51.948 212.769 53.02C213.393 54.092 214.305 54.628 215.505 54.628Z" fill="#8E8E8E"/>
<path d="M211.185 126.5V124.412H215.121V111.692H216.369L211.569 114.62V112.22L215.817 109.58H217.617V124.412H221.313V126.5H211.185Z" fill="#8E8E8E"/>
<path d="M291.509 87V78.54H296.789V79.356H292.505V82.32H296.525V83.136H292.505V87H291.509ZM300.135 87.108C299.423 87.108 298.883 86.912 298.515 86.52C298.155 86.128 297.975 85.528 297.975 84.72V80.976H298.947V84.696C298.947 85.248 299.059 85.656 299.283 85.92C299.507 86.176 299.855 86.304 300.327 86.304C300.855 86.304 301.279 86.132 301.599 85.788C301.919 85.444 302.079 84.984 302.079 84.408V80.976H303.051V87H302.103V85.644H302.259C302.091 86.108 301.819 86.468 301.443 86.724C301.075 86.98 300.639 87.108 300.135 87.108ZM304.936 87V78.168H305.908V87H304.936ZM307.796 87V78.168H308.768V87H307.796ZM315.944 87V79.38H312.956V78.54H319.916V79.38H316.94V87H315.944ZM321.026 87V80.976H321.998V87H321.026ZM320.906 79.608V78.516H322.106V79.608H320.906ZM323.886 87V82.368C323.886 82.144 323.874 81.916 323.85 81.684C323.834 81.444 323.814 81.208 323.79 80.976H324.726L324.846 82.296H324.701C324.862 81.84 325.114 81.488 325.458 81.24C325.81 80.992 326.234 80.868 326.73 80.868C327.234 80.868 327.642 80.988 327.954 81.228C328.274 81.468 328.49 81.84 328.602 82.344H328.422C328.574 81.888 328.842 81.528 329.226 81.264C329.61 81 330.058 80.868 330.57 80.868C331.234 80.868 331.734 81.06 332.07 81.444C332.406 81.82 332.574 82.416 332.574 83.232V87H331.602V83.292C331.602 82.724 331.502 82.312 331.302 82.056C331.102 81.792 330.782 81.66 330.342 81.66C329.838 81.66 329.438 81.836 329.142 82.188C328.854 82.532 328.71 82.996 328.71 83.58V87H327.738V83.292C327.738 82.724 327.638 82.312 327.438 82.056C327.238 81.792 326.918 81.66 326.478 81.66C325.974 81.66 325.578 81.836 325.29 82.188C325.002 82.532 324.858 82.996 324.858 83.58V87H323.886ZM337.097 87.108C336.153 87.108 335.409 86.836 334.865 86.292C334.321 85.74 334.049 84.976 334.049 84C334.049 83.368 334.169 82.82 334.409 82.356C334.649 81.884 334.985 81.52 335.417 81.264C335.849 81 336.345 80.868 336.905 80.868C337.457 80.868 337.921 80.984 338.297 81.216C338.673 81.448 338.961 81.78 339.161 82.212C339.361 82.636 339.461 83.14 339.461 83.724V84.084H334.793V83.472H338.825L338.621 83.628C338.621 82.988 338.477 82.488 338.189 82.128C337.901 81.768 337.473 81.588 336.905 81.588C336.305 81.588 335.837 81.8 335.501 82.224C335.165 82.64 334.997 83.204 334.997 83.916V84.024C334.997 84.776 335.181 85.348 335.549 85.74C335.925 86.124 336.449 86.316 337.121 86.316C337.481 86.316 337.817 86.264 338.129 86.16C338.449 86.048 338.753 85.868 339.041 85.62L339.377 86.304C339.113 86.56 338.777 86.76 338.369 86.904C337.969 87.04 337.545 87.108 337.097 87.108Z" fill="#8E8E8E"/>
</svg>
